<?xml version="1.0" encoding="utf-8" standalone="no"?>
<!DOCTYPE svg PUBLIC "-//W3C//DTD SVG 1.1//EN"
  "http://www.w3.org/Graphics/SVG/1.1/DTD/svg11.dtd">
<svg xmlns:xlink="http://www.w3.org/1999/xlink" width="864pt" height="432pt" viewBox="0 0 864 432" xmlns="http://www.w3.org/2000/svg" version="1.1">
 <metadata>
  <rdf:RDF xmlns:dc="http://purl.org/dc/elements/1.1/" xmlns:cc="http://creativecommons.org/ns#" xmlns:rdf="http://www.w3.org/1999/02/22-rdf-syntax-ns#">
   <cc:Work>
    <dc:type rdf:resource="http://purl.org/dc/dcmitype/StillImage"/>
    <dc:date>2025-02-06T20:06:30.217629</dc:date>
    <dc:format>image/svg+xml</dc:format>
    <dc:creator>
     <cc:Agent>
      <dc:title>Matplotlib v3.5.1, https://matplotlib.org/</dc:title>
     </cc:Agent>
    </dc:creator>
   </cc:Work>
  </rdf:RDF>
 </metadata>
 <defs>
  <style type="text/css">*{stroke-linejoin: round; stroke-linecap: butt}</style>
 </defs>
 <g id="figure_1">
  <g id="patch_1">
   <path d="M 0 432 
L 864 432 
L 864 0 
L 0 0 
z
" style="fill: #ffffff"/>
  </g>
  <g id="axes_1">
   <g id="patch_2">
    <path d="M 101.017899 291.542101 
L 853.2 291.542101 
L 853.2 104.092 
L 101.017899 104.092 
z
" style="fill: #ffffff"/>
   </g>
   <g id="patch_3">
    <path d="M 107.286083 291.542101 
L 110.420175 291.542101 
L 110.420175 107.216168 
L 107.286083 107.216168 
z
" clip-path="url(#pc764328311)" style="fill: #1f77b4"/>
   </g>
   <g id="patch_4">
    <path d="M 132.35882 291.542101 
L 135.492912 291.542101 
L 135.492912 191.568714 
L 132.35882 191.568714 
z
" clip-path="url(#pc764328311)" style="fill: #1f77b4"/>
   </g>
   <g id="patch_5">
    <path d="M 157.431557 291.542101 
L 160.565649 291.542101 
L 160.565649 104.092 
L 157.431557 104.092 
z
" clip-path="url(#pc764328311)" style="fill: #1f77b4"/>
   </g>
   <g id="patch_6">
    <path d="M 182.504293 291.542101 
L 185.638386 291.542101 
L 185.638386 105.527899 
L 182.504293 105.527899 
z
" clip-path="url(#pc764328311)" style="fill: #1f77b4"/>
   </g>
   <g id="patch_7">
    <path d="M 207.57703 291.542101 
L 210.711122 291.542101 
L 210.711122 111.902421 
L 207.57703 111.902421 
z
" clip-path="url(#pc764328311)" style="fill: #1f77b4"/>
   </g>
   <g id="patch_8">
    <path d="M 232.649767 291.542101 
L 235.783859 291.542101 
L 235.783859 186.570044 
L 232.649767 186.570044 
z
" clip-path="url(#pc764328311)" style="fill: #1f77b4"/>
   </g>
   <g id="patch_9">
    <path d="M 257.722504 291.542101 
L 260.856596 291.542101 
L 260.856596 133.250905 
L 257.722504 133.250905 
z
" clip-path="url(#pc764328311)" style="fill: #1f77b4"/>
   </g>
   <g id="patch_10">
    <path d="M 282.79524 291.542101 
L 285.929332 291.542101 
L 285.929332 151.312254 
L 282.79524 151.312254 
z
" clip-path="url(#pc764328311)" style="fill: #1f77b4"/>
   </g>
   <g id="patch_11">
    <path d="M 307.867977 291.542101 
L 311.002069 291.542101 
L 311.002069 120.392009 
L 307.867977 120.392009 
z
" clip-path="url(#pc764328311)" style="fill: #1f77b4"/>
   </g>
   <g id="patch_12">
    <path d="M 332.940714 291.542101 
L 336.074806 291.542101 
L 336.074806 219.55556 
L 332.940714 219.55556 
z
" clip-path="url(#pc764328311)" style="fill: #1f77b4"/>
   </g>
   <g id="patch_13">
    <path d="M 358.01345 291.542101 
L 361.147542 291.542101 
L 361.147542 198.189397 
L 358.01345 198.189397 
z
" clip-path="url(#pc764328311)" style="fill: #1f77b4"/>
   </g>
   <g id="patch_14">
    <path d="M 383.086187 291.542101 
L 386.220279 291.542101 
L 386.220279 182.821042 
L 383.086187 182.821042 
z
" clip-path="url(#pc764328311)" style="fill: #1f77b4"/>
   </g>
   <g id="patch_15">
    <path d="M 408.158924 291.542101 
L 411.293016 291.542101 
L 411.293016 215.548817 
L 408.158924 215.548817 
z
" clip-path="url(#pc764328311)" style="fill: #1f77b4"/>
   </g>
   <g id="patch_16">
    <path d="M 433.23166 291.542101 
L 436.365752 291.542101 
L 436.365752 223.619005 
L 433.23166 223.619005 
z
" clip-path="url(#pc764328311)" style="fill: #1f77b4"/>
   </g>
   <g id="patch_17">
    <path d="M 458.304397 291.542101 
L 461.438489 291.542101 
L 461.438489 237.593047 
L 458.304397 237.593047 
z
" clip-path="url(#pc764328311)" style="fill: #1f77b4"/>
   </g>
   <g id="patch_18">
    <path d="M 483.377134 291.542101 
L 486.511226 291.542101 
L 486.511226 186.442578 
L 483.377134 186.442578 
z
" clip-path="url(#pc764328311)" style="fill: #1f77b4"/>
   </g>
   <g id="patch_19">
    <path d="M 508.44987 291.542101 
L 511.583963 291.542101 
L 511.583963 107.638353 
L 508.44987 107.638353 
z
" clip-path="url(#pc764328311)" style="fill: #1f77b4"/>
   </g>
   <g id="patch_20">
    <path d="M 533.522607 291.542101 
L 536.656699 291.542101 
L 536.656699 206.634654 
L 533.522607 206.634654 
z
" clip-path="url(#pc764328311)" style="fill: #1f77b4"/>
   </g>
   <g id="patch_21">
    <path d="M 558.595344 291.542101 
L 561.729436 291.542101 
L 561.729436 135.333684 
L 558.595344 135.333684 
z
" clip-path="url(#pc764328311)" style="fill: #1f77b4"/>
   </g>
   <g id="patch_22">
    <path d="M 583.668081 291.542101 
L 586.802173 291.542101 
L 586.802173 194.068048 
L 583.668081 194.068048 
z
" clip-path="url(#pc764328311)" style="fill: #1f77b4"/>
   </g>
   <g id="patch_23">
    <path d="M 608.740817 291.542101 
L 611.874909 291.542101 
L 611.874909 118.671452 
L 608.740817 118.671452 
z
" clip-path="url(#pc764328311)" style="fill: #1f77b4"/>
   </g>
   <g id="patch_24">
    <path d="M 633.813554 291.542101 
L 636.947646 291.542101 
L 636.947646 174.521229 
L 633.813554 174.521229 
z
" clip-path="url(#pc764328311)" style="fill: #1f77b4"/>
   </g>
   <g id="patch_25">
    <path d="M 658.886291 291.542101 
L 662.020383 291.542101 
L 662.020383 125.634293 
L 658.886291 125.634293 
z
" clip-path="url(#pc764328311)" style="fill: #1f77b4"/>
   </g>
   <g id="patch_26">
    <path d="M 683.959027 291.542101 
L 687.093119 291.542101 
L 687.093119 269.180025 
L 683.959027 269.180025 
z
" clip-path="url(#pc764328311)" style="fill: #1f77b4"/>
   </g>
   <g id="patch_27">
    <path d="M 709.031764 291.542101 
L 712.165856 291.542101 
L 712.165856 137.389057 
L 709.031764 137.389057 
z
" clip-path="url(#pc764328311)" style="fill: #1f77b4"/>
   </g>
   <g id="patch_28">
    <path d="M 734.104501 291.542101 
L 737.238593 291.542101 
L 737.238593 146.956016 
L 734.104501 146.956016 
z
" clip-path="url(#pc764328311)" style="fill: #1f77b4"/>
   </g>
   <g id="patch_29">
    <path d="M 759.177237 291.542101 
L 762.311329 291.542101 
L 762.311329 205.106777 
L 759.177237 205.106777 
z
" clip-path="url(#pc764328311)" style="fill: #1f77b4"/>
   </g>
   <g id="patch_30">
    <path d="M 784.249974 291.542101 
L 787.384066 291.542101 
L 787.384066 107.842707 
L 784.249974 107.842707 
z
" clip-path="url(#pc764328311)" style="fill: #1f77b4"/>
   </g>
   <g id="patch_31">
    <path d="M 809.322711 291.542101 
L 812.456803 291.542101 
L 812.456803 254.052081 
L 809.322711 254.052081 
z
" clip-path="url(#pc764328311)" style="fill: #1f77b4"/>
   </g>
   <g id="patch_32">
    <path d="M 834.395447 291.542101 
L 837.52954 291.542101 
L 837.52954 121.665447 
L 834.395447 121.665447 
z
" clip-path="url(#pc764328311)" style="fill: #1f77b4"/>
   </g>
   <g id="patch_33">
    <path d="M 110.420175 291.542101 
L 113.554268 291.542101 
L 113.554268 109.715503 
L 110.420175 109.715503 
z
" clip-path="url(#pc764328311)" style="fill: #ff7f0e"/>
   </g>
   <g id="patch_34">
    <path d="M 135.492912 291.542101 
L 138.627004 291.542101 
L 138.627004 216.56206 
L 135.492912 216.56206 
z
" clip-path="url(#pc764328311)" style="fill: #ff7f0e"/>
   </g>
   <g id="patch_35">
    <path d="M 160.565649 291.542101 
L 163.699741 291.542101 
L 163.699741 108.778253 
L 160.565649 108.778253 
z
" clip-path="url(#pc764328311)" style="fill: #ff7f0e"/>
   </g>
   <g id="patch_36">
    <path d="M 185.638386 291.542101 
L 188.772478 291.542101 
L 188.772478 109.70506 
L 185.638386 109.70506 
z
" clip-path="url(#pc764328311)" style="fill: #ff7f0e"/>
   </g>
   <g id="patch_37">
    <path d="M 210.711122 291.542101 
L 213.845214 291.542101 
L 213.845214 111.902421 
L 210.711122 111.902421 
z
" clip-path="url(#pc764328311)" style="fill: #ff7f0e"/>
   </g>
   <g id="patch_38">
    <path d="M 235.783859 291.542101 
L 238.917951 291.542101 
L 238.917951 201.566052 
L 235.783859 201.566052 
z
" clip-path="url(#pc764328311)" style="fill: #ff7f0e"/>
   </g>
   <g id="patch_39">
    <path d="M 260.856596 291.542101 
L 263.990688 291.542101 
L 263.990688 130.473866 
L 260.856596 130.473866 
z
" clip-path="url(#pc764328311)" style="fill: #ff7f0e"/>
   </g>
   <g id="patch_40">
    <path d="M 285.929332 291.542101 
L 289.063424 291.542101 
L 289.063424 184.223341 
L 285.929332 184.223341 
z
" clip-path="url(#pc764328311)" style="fill: #ff7f0e"/>
   </g>
   <g id="patch_41">
    <path d="M 311.002069 291.542101 
L 314.136161 291.542101 
L 314.136161 129.900347 
L 311.002069 129.900347 
z
" clip-path="url(#pc764328311)" style="fill: #ff7f0e"/>
   </g>
   <g id="patch_42">
    <path d="M 336.074806 291.542101 
L 339.208898 291.542101 
L 339.208898 238.086749 
L 336.074806 238.086749 
z
" clip-path="url(#pc764328311)" style="fill: #ff7f0e"/>
   </g>
   <g id="patch_43">
    <path d="M 361.147542 291.542101 
L 364.281634 291.542101 
L 364.281634 189.306263 
L 361.147542 189.306263 
z
" clip-path="url(#pc764328311)" style="fill: #ff7f0e"/>
   </g>
   <g id="patch_44">
    <path d="M 386.220279 291.542101 
L 389.354371 291.542101 
L 389.354371 197.81705 
L 386.220279 197.81705 
z
" clip-path="url(#pc764328311)" style="fill: #ff7f0e"/>
   </g>
   <g id="patch_45">
    <path d="M 411.293016 291.542101 
L 414.427108 291.542101 
L 414.427108 218.081926 
L 411.293016 218.081926 
z
" clip-path="url(#pc764328311)" style="fill: #ff7f0e"/>
   </g>
   <g id="patch_46">
    <path d="M 436.365752 291.542101 
L 439.499845 291.542101 
L 439.499845 240.820309 
L 436.365752 240.820309 
z
" clip-path="url(#pc764328311)" style="fill: #ff7f0e"/>
   </g>
   <g id="patch_47">
    <path d="M 461.438489 291.542101 
L 464.572581 291.542101 
L 464.572581 147.068365 
L 461.438489 147.068365 
z
" clip-path="url(#pc764328311)" style="fill: #ff7f0e"/>
   </g>
   <g id="patch_48">
    <path d="M 486.511226 291.542101 
L 489.645318 291.542101 
L 489.645318 211.440924 
L 486.511226 211.440924 
z
" clip-path="url(#pc764328311)" style="fill: #ff7f0e"/>
   </g>
   <g id="patch_49">
    <path d="M 511.583963 291.542101 
L 514.718055 291.542101 
L 514.718055 109.664841 
L 511.583963 109.664841 
z
" clip-path="url(#pc764328311)" style="fill: #ff7f0e"/>
   </g>
   <g id="patch_50">
    <path d="M 536.656699 291.542101 
L 539.790791 291.542101 
L 539.790791 194.852511 
L 536.656699 194.852511 
z
" clip-path="url(#pc764328311)" style="fill: #ff7f0e"/>
   </g>
   <g id="patch_51">
    <path d="M 561.729436 291.542101 
L 564.863528 291.542101 
L 564.863528 153.037304 
L 561.729436 153.037304 
z
" clip-path="url(#pc764328311)" style="fill: #ff7f0e"/>
   </g>
   <g id="patch_52">
    <path d="M 586.802173 291.542101 
L 589.936265 291.542101 
L 589.936265 216.56206 
L 586.802173 216.56206 
z
" clip-path="url(#pc764328311)" style="fill: #ff7f0e"/>
   </g>
   <g id="patch_53">
    <path d="M 611.874909 291.542101 
L 615.009001 291.542101 
L 615.009001 130.126736 
L 611.874909 130.126736 
z
" clip-path="url(#pc764328311)" style="fill: #ff7f0e"/>
   </g>
   <g id="patch_54">
    <path d="M 636.947646 291.542101 
L 640.081738 291.542101 
L 640.081738 192.941181 
L 636.947646 192.941181 
z
" clip-path="url(#pc764328311)" style="fill: #ff7f0e"/>
   </g>
   <g id="patch_55">
    <path d="M 662.020383 291.542101 
L 665.154475 291.542101 
L 665.154475 139.406356 
L 662.020383 139.406356 
z
" clip-path="url(#pc764328311)" style="fill: #ff7f0e"/>
   </g>
   <g id="patch_56">
    <path d="M 687.093119 291.542101 
L 690.227211 291.542101 
L 690.227211 265.378472 
L 687.093119 265.378472 
z
" clip-path="url(#pc764328311)" style="fill: #ff7f0e"/>
   </g>
   <g id="patch_57">
    <path d="M 712.165856 291.542101 
L 715.299948 291.542101 
L 715.299948 136.155833 
L 712.165856 136.155833 
z
" clip-path="url(#pc764328311)" style="fill: #ff7f0e"/>
   </g>
   <g id="patch_58">
    <path d="M 737.238593 291.542101 
L 740.372685 291.542101 
L 740.372685 174.465758 
L 737.238593 174.465758 
z
" clip-path="url(#pc764328311)" style="fill: #ff7f0e"/>
   </g>
   <g id="patch_59">
    <path d="M 762.311329 291.542101 
L 765.445422 291.542101 
L 765.445422 193.651493 
L 762.311329 193.651493 
z
" clip-path="url(#pc764328311)" style="fill: #ff7f0e"/>
   </g>
   <g id="patch_60">
    <path d="M 787.384066 291.542101 
L 790.518158 291.542101 
L 790.518158 117.134231 
L 787.384066 117.134231 
z
" clip-path="url(#pc764328311)" style="fill: #ff7f0e"/>
   </g>
   <g id="patch_61">
    <path d="M 812.456803 291.542101 
L 815.590895 291.542101 
L 815.590895 241.555407 
L 812.456803 241.555407 
z
" clip-path="url(#pc764328311)" style="fill: #ff7f0e"/>
   </g>
   <g id="patch_62">
    <path d="M 837.52954 291.542101 
L 840.663632 291.542101 
L 840.663632 131.623734 
L 837.52954 131.623734 
z
" clip-path="url(#pc764328311)" style="fill: #ff7f0e"/>
   </g>
   <g id="patch_63">
    <path d="M 113.554268 291.542101 
L 116.68836 291.542101 
L 116.68836 108.465836 
L 113.554268 108.465836 
z
" clip-path="url(#pc764328311)" style="fill: #2ca02c"/>
   </g>
   <g id="patch_64">
    <path d="M 138.627004 291.542101 
L 141.761096 291.542101 
L 141.761096 216.56206 
L 138.627004 216.56206 
z
" clip-path="url(#pc764328311)" style="fill: #2ca02c"/>
   </g>
   <g id="patch_65">
    <path d="M 163.699741 291.542101 
L 166.833833 291.542101 
L 166.833833 104.092 
L 163.699741 104.092 
z
" clip-path="url(#pc764328311)" style="fill: #2ca02c"/>
   </g>
   <g id="patch_66">
    <path d="M 188.772478 291.542101 
L 191.90657 291.542101 
L 191.90657 105.919508 
L 188.772478 105.919508 
z
" clip-path="url(#pc764328311)" style="fill: #2ca02c"/>
   </g>
   <g id="patch_67">
    <path d="M 213.845214 291.542101 
L 216.979306 291.542101 
L 216.979306 122.316315 
L 213.845214 122.316315 
z
" clip-path="url(#pc764328311)" style="fill: #2ca02c"/>
   </g>
   <g id="patch_68">
    <path d="M 238.917951 291.542101 
L 242.052043 291.542101 
L 242.052043 209.064056 
L 238.917951 209.064056 
z
" clip-path="url(#pc764328311)" style="fill: #2ca02c"/>
   </g>
   <g id="patch_69">
    <path d="M 263.990688 291.542101 
L 267.12478 291.542101 
L 267.12478 120.754231 
L 263.990688 120.754231 
z
" clip-path="url(#pc764328311)" style="fill: #2ca02c"/>
   </g>
   <g id="patch_70">
    <path d="M 289.063424 291.542101 
L 292.197517 291.542101 
L 292.197517 192.808842 
L 289.063424 192.808842 
z
" clip-path="url(#pc764328311)" style="fill: #2ca02c"/>
   </g>
   <g id="patch_71">
    <path d="M 314.136161 291.542101 
L 317.270253 291.542101 
L 317.270253 143.483688 
L 314.136161 143.483688 
z
" clip-path="url(#pc764328311)" style="fill: #2ca02c"/>
   </g>
   <g id="patch_72">
    <path d="M 339.208898 291.542101 
L 342.34299 291.542101 
L 342.34299 191.758777 
L 339.208898 191.758777 
z
" clip-path="url(#pc764328311)" style="fill: #2ca02c"/>
   </g>
   <g id="patch_73">
    <path d="M 364.281634 291.542101 
L 367.415727 291.542101 
L 367.415727 177.072005 
L 364.281634 177.072005 
z
" clip-path="url(#pc764328311)" style="fill: #2ca02c"/>
   </g>
   <g id="patch_74">
    <path d="M 389.354371 291.542101 
L 392.488463 291.542101 
L 392.488463 165.950533 
L 389.354371 165.950533 
z
" clip-path="url(#pc764328311)" style="fill: #2ca02c"/>
   </g>
   <g id="patch_75">
    <path d="M 414.427108 291.542101 
L 417.5612 291.542101 
L 417.5612 187.684613 
L 414.427108 187.684613 
z
" clip-path="url(#pc764328311)" style="fill: #2ca02c"/>
   </g>
   <g id="patch_76">
    <path d="M 439.499845 291.542101 
L 442.633937 291.542101 
L 442.633937 235.307071 
L 439.499845 235.307071 
z
" clip-path="url(#pc764328311)" style="fill: #2ca02c"/>
   </g>
   <g id="patch_77">
    <path d="M 464.572581 291.542101 
L 467.706673 291.542101 
L 467.706673 164.441789 
L 464.572581 164.441789 
z
" clip-path="url(#pc764328311)" style="fill: #2ca02c"/>
   </g>
   <g id="patch_78">
    <path d="M 489.645318 291.542101 
L 492.77941 291.542101 
L 492.77941 194.570415 
L 489.645318 194.570415 
z
" clip-path="url(#pc764328311)" style="fill: #2ca02c"/>
   </g>
   <g id="patch_79">
    <path d="M 514.718055 291.542101 
L 517.852147 291.542101 
L 517.852147 108.144975 
L 514.718055 108.144975 
z
" clip-path="url(#pc764328311)" style="fill: #2ca02c"/>
   </g>
   <g id="patch_80">
    <path d="M 539.790791 291.542101 
L 542.924883 291.542101 
L 542.924883 214.160024 
L 539.790791 214.160024 
z
" clip-path="url(#pc764328311)" style="fill: #2ca02c"/>
   </g>
   <g id="patch_81">
    <path d="M 564.863528 291.542101 
L 567.99762 291.542101 
L 567.99762 180.11343 
L 564.863528 180.11343 
z
" clip-path="url(#pc764328311)" style="fill: #2ca02c"/>
   </g>
   <g id="patch_82">
    <path d="M 589.936265 291.542101 
L 593.070357 291.542101 
L 593.070357 197.81705 
L 589.936265 197.81705 
z
" clip-path="url(#pc764328311)" style="fill: #2ca02c"/>
   </g>
   <g id="patch_83">
    <path d="M 615.009001 291.542101 
L 618.143094 291.542101 
L 618.143094 116.588673 
L 615.009001 116.588673 
z
" clip-path="url(#pc764328311)" style="fill: #2ca02c"/>
   </g>
   <g id="patch_84">
    <path d="M 640.081738 291.542101 
L 643.21583 291.542101 
L 643.21583 132.263691 
L 640.081738 132.263691 
z
" clip-path="url(#pc764328311)" style="fill: #2ca02c"/>
   </g>
   <g id="patch_85">
    <path d="M 665.154475 291.542101 
L 668.288567 291.542101 
L 668.288567 111.540703 
L 665.154475 111.540703 
z
" clip-path="url(#pc764328311)" style="fill: #2ca02c"/>
   </g>
   <g id="patch_86">
    <path d="M 690.227211 291.542101 
L 693.361304 291.542101 
L 693.361304 273.931966 
L 690.227211 273.931966 
z
" clip-path="url(#pc764328311)" style="fill: #2ca02c"/>
   </g>
   <g id="patch_87">
    <path d="M 715.299948 291.542101 
L 718.43404 291.542101 
L 718.43404 142.321955 
L 715.299948 142.321955 
z
" clip-path="url(#pc764328311)" style="fill: #2ca02c"/>
   </g>
   <g id="patch_88">
    <path d="M 740.372685 291.542101 
L 743.506777 291.542101 
L 743.506777 128.402935 
L 740.372685 128.402935 
z
" clip-path="url(#pc764328311)" style="fill: #2ca02c"/>
   </g>
   <g id="patch_89">
    <path d="M 765.445422 291.542101 
L 768.579514 291.542101 
L 768.579514 198.85844 
L 765.445422 198.85844 
z
" clip-path="url(#pc764328311)" style="fill: #2ca02c"/>
   </g>
   <g id="patch_90">
    <path d="M 790.518158 291.542101 
L 793.65225 291.542101 
L 793.65225 108.865627 
L 790.518158 108.865627 
z
" clip-path="url(#pc764328311)" style="fill: #2ca02c"/>
   </g>
   <g id="patch_91">
    <path d="M 815.590895 291.542101 
L 818.724987 291.542101 
L 818.724987 216.56206 
L 815.590895 216.56206 
z
" clip-path="url(#pc764328311)" style="fill: #2ca02c"/>
   </g>
   <g id="patch_92">
    <path d="M 840.663632 291.542101 
L 843.797724 291.542101 
L 843.797724 132.209515 
L 840.663632 132.209515 
z
" clip-path="url(#pc764328311)" style="fill: #2ca02c"/>
   </g>
   <g id="patch_93">
    <path d="M 116.68836 291.542101 
L 119.822452 291.542101 
L 119.822452 163.451199 
L 116.68836 163.451199 
z
" clip-path="url(#pc764328311)" style="fill: #d62728"/>
   </g>
   <g id="patch_94">
    <path d="M 141.761096 291.542101 
L 144.895188 291.542101 
L 144.895188 204.065387 
L 141.761096 204.065387 
z
" clip-path="url(#pc764328311)" style="fill: #d62728"/>
   </g>
   <g id="patch_95">
    <path d="M 166.833833 291.542101 
L 169.967925 291.542101 
L 169.967925 160.32703 
L 166.833833 160.32703 
z
" clip-path="url(#pc764328311)" style="fill: #d62728"/>
   </g>
   <g id="patch_96">
    <path d="M 191.90657 291.542101 
L 195.040662 291.542101 
L 195.040662 105.788972 
L 191.90657 105.788972 
z
" clip-path="url(#pc764328311)" style="fill: #d62728"/>
   </g>
   <g id="patch_97">
    <path d="M 216.979306 291.542101 
L 220.113399 291.542101 
L 220.113399 239.472628 
L 216.979306 239.472628 
z
" clip-path="url(#pc764328311)" style="fill: #d62728"/>
   </g>
   <g id="patch_98">
    <path d="M 242.052043 291.542101 
L 245.186135 291.542101 
L 245.186135 231.558069 
L 242.052043 231.558069 
z
" clip-path="url(#pc764328311)" style="fill: #d62728"/>
   </g>
   <g id="patch_99">
    <path d="M 267.12478 291.542101 
L 270.258872 291.542101 
L 270.258872 117.282933 
L 267.12478 117.282933 
z
" clip-path="url(#pc764328311)" style="fill: #d62728"/>
   </g>
   <g id="patch_100">
    <path d="M 292.197517 291.542101 
L 295.331609 291.542101 
L 295.331609 202.825259 
L 292.197517 202.825259 
z
" clip-path="url(#pc764328311)" style="fill: #d62728"/>
   </g>
   <g id="patch_101">
    <path d="M 317.270253 291.542101 
L 320.404345 291.542101 
L 320.404345 125.825345 
L 317.270253 125.825345 
z
" clip-path="url(#pc764328311)" style="fill: #d62728"/>
   </g>
   <g id="patch_102">
    <path d="M 342.34299 291.542101 
L 345.477082 291.542101 
L 345.477082 244.501391 
L 342.34299 244.501391 
z
" clip-path="url(#pc764328311)" style="fill: #d62728"/>
   </g>
   <g id="patch_103">
    <path d="M 367.415727 291.542101 
L 370.549819 291.542101 
L 370.549819 196.168085 
L 367.415727 196.168085 
z
" clip-path="url(#pc764328311)" style="fill: #d62728"/>
   </g>
   <g id="patch_104">
    <path d="M 392.488463 291.542101 
L 395.622555 291.542101 
L 395.622555 199.691551 
L 392.488463 199.691551 
z
" clip-path="url(#pc764328311)" style="fill: #d62728"/>
   </g>
   <g id="patch_105">
    <path d="M 417.5612 291.542101 
L 420.695292 291.542101 
L 420.695292 253.545459 
L 417.5612 253.545459 
z
" clip-path="url(#pc764328311)" style="fill: #d62728"/>
   </g>
   <g id="patch_106">
    <path d="M 442.633937 291.542101 
L 445.768029 291.542101 
L 445.768029 249.86202 
L 442.633937 249.86202 
z
" clip-path="url(#pc764328311)" style="fill: #d62728"/>
   </g>
   <g id="patch_107">
    <path d="M 467.706673 291.542101 
L 470.840765 291.542101 
L 470.840765 156.212272 
L 467.706673 156.212272 
z
" clip-path="url(#pc764328311)" style="fill: #d62728"/>
   </g>
   <g id="patch_108">
    <path d="M 492.77941 291.542101 
L 495.913502 291.542101 
L 495.913502 221.998113 
L 492.77941 221.998113 
z
" clip-path="url(#pc764328311)" style="fill: #d62728"/>
   </g>
   <g id="patch_109">
    <path d="M 517.852147 291.542101 
L 520.986239 291.542101 
L 520.986239 114.73106 
L 517.852147 114.73106 
z
" clip-path="url(#pc764328311)" style="fill: #d62728"/>
   </g>
   <g id="patch_110">
    <path d="M 542.924883 291.542101 
L 546.058976 291.542101 
L 546.058976 232.479356 
L 542.924883 232.479356 
z
" clip-path="url(#pc764328311)" style="fill: #d62728"/>
   </g>
   <g id="patch_111">
    <path d="M 567.99762 291.542101 
L 571.131712 291.542101 
L 571.131712 223.851787 
L 567.99762 223.851787 
z
" clip-path="url(#pc764328311)" style="fill: #d62728"/>
   </g>
   <g id="patch_112">
    <path d="M 593.070357 291.542101 
L 596.204449 291.542101 
L 596.204449 197.81705 
L 593.070357 197.81705 
z
" clip-path="url(#pc764328311)" style="fill: #d62728"/>
   </g>
   <g id="patch_113">
    <path d="M 618.143094 291.542101 
L 621.277186 291.542101 
L 621.277186 139.499241 
L 618.143094 139.499241 
z
" clip-path="url(#pc764328311)" style="fill: #d62728"/>
   </g>
   <g id="patch_114">
    <path d="M 643.21583 291.542101 
L 646.349922 291.542101 
L 646.349922 146.349537 
L 643.21583 146.349537 
z
" clip-path="url(#pc764328311)" style="fill: #d62728"/>
   </g>
   <g id="patch_115">
    <path d="M 668.288567 291.542101 
L 671.422659 291.542101 
L 671.422659 122.097499 
L 668.288567 122.097499 
z
" clip-path="url(#pc764328311)" style="fill: #d62728"/>
   </g>
   <g id="patch_116">
    <path d="M 693.361304 291.542101 
L 696.495396 291.542101 
L 696.495396 279.802011 
L 693.361304 279.802011 
z
" clip-path="url(#pc764328311)" style="fill: #d62728"/>
   </g>
   <g id="patch_117">
    <path d="M 718.43404 291.542101 
L 721.568132 291.542101 
L 721.568132 238.513454 
L 718.43404 238.513454 
z
" clip-path="url(#pc764328311)" style="fill: #d62728"/>
   </g>
   <g id="patch_118">
    <path d="M 743.506777 291.542101 
L 746.640869 291.542101 
L 746.640869 197.49717 
L 743.506777 197.49717 
z
" clip-path="url(#pc764328311)" style="fill: #d62728"/>
   </g>
   <g id="patch_119">
    <path d="M 768.579514 291.542101 
L 771.713606 291.542101 
L 771.713606 197.81705 
L 768.579514 197.81705 
z
" clip-path="url(#pc764328311)" style="fill: #d62728"/>
   </g>
   <g id="patch_120">
    <path d="M 793.65225 291.542101 
L 796.786342 291.542101 
L 796.786342 138.786039 
L 793.65225 138.786039 
z
" clip-path="url(#pc764328311)" style="fill: #d62728"/>
   </g>
   <g id="patch_121">
    <path d="M 818.724987 291.542101 
L 821.859079 291.542101 
L 821.859079 204.065387 
L 818.724987 204.065387 
z
" clip-path="url(#pc764328311)" style="fill: #d62728"/>
   </g>
   <g id="patch_122">
    <path d="M 843.797724 291.542101 
L 846.931816 291.542101 
L 846.931816 241.750668 
L 843.797724 241.750668 
z
" clip-path="url(#pc764328311)" style="fill: #d62728"/>
   </g>
   <g id="matplotlib.axis_1">
    <g id="xtick_1">
     <g id="line2d_1">
      <defs>
       <path id="m8d80d18b11" d="M 0 0 
L 0 3.5 
" style="stroke: #000000; stroke-width: 0.8"/>
      </defs>
      <g>
       <use xlink:href="#m8d80d18b11" x="113.554268" y="291.542101" style="stroke: #000000; stroke-width: 0.8"/>
      </g>
     </g>
     <g id="text_1">
      <!-- ArticularyWordRecognition -->
      <g transform="translate(18.029666 397.969048)rotate(-45)scale(0.1 -0.1)">
       <defs>
        <path id="DejaVuSans-41" d="M 2188 4044 
L 1331 1722 
L 3047 1722 
L 2188 4044 
z
M 1831 4666 
L 2547 4666 
L 4325 0 
L 3669 0 
L 3244 1197 
L 1141 1197 
L 716 0 
L 50 0 
L 1831 4666 
z
" transform="scale(0.015625)"/>
        <path id="DejaVuSans-72" d="M 2631 2963 
Q 2534 3019 2420 3045 
Q 2306 3072 2169 3072 
Q 1681 3072 1420 2755 
Q 1159 2438 1159 1844 
L 1159 0 
L 581 0 
L 581 3500 
L 1159 3500 
L 1159 2956 
Q 1341 3275 1631 3429 
Q 1922 3584 2338 3584 
Q 2397 3584 2469 3576 
Q 2541 3569 2628 3553 
L 2631 2963 
z
" transform="scale(0.015625)"/>
        <path id="DejaVuSans-74" d="M 1172 4494 
L 1172 3500 
L 2356 3500 
L 2356 3053 
L 1172 3053 
L 1172 1153 
Q 1172 725 1289 603 
Q 1406 481 1766 481 
L 2356 481 
L 2356 0 
L 1766 0 
Q 1100 0 847 248 
Q 594 497 594 1153 
L 594 3053 
L 172 3053 
L 172 3500 
L 594 3500 
L 594 4494 
L 1172 4494 
z
" transform="scale(0.015625)"/>
        <path id="DejaVuSans-69" d="M 603 3500 
L 1178 3500 
L 1178 0 
L 603 0 
L 603 3500 
z
M 603 4863 
L 1178 4863 
L 1178 4134 
L 603 4134 
L 603 4863 
z
" transform="scale(0.015625)"/>
        <path id="DejaVuSans-63" d="M 3122 3366 
L 3122 2828 
Q 2878 2963 2633 3030 
Q 2388 3097 2138 3097 
Q 1578 3097 1268 2742 
Q 959 2388 959 1747 
Q 959 1106 1268 751 
Q 1578 397 2138 397 
Q 2388 397 2633 464 
Q 2878 531 3122 666 
L 3122 134 
Q 2881 22 2623 -34 
Q 2366 -91 2075 -91 
Q 1284 -91 818 406 
Q 353 903 353 1747 
Q 353 2603 823 3093 
Q 1294 3584 2113 3584 
Q 2378 3584 2631 3529 
Q 2884 3475 3122 3366 
z
" transform="scale(0.015625)"/>
        <path id="DejaVuSans-75" d="M 544 1381 
L 544 3500 
L 1119 3500 
L 1119 1403 
Q 1119 906 1312 657 
Q 1506 409 1894 409 
Q 2359 409 2629 706 
Q 2900 1003 2900 1516 
L 2900 3500 
L 3475 3500 
L 3475 0 
L 2900 0 
L 2900 538 
Q 2691 219 2414 64 
Q 2138 -91 1772 -91 
Q 1169 -91 856 284 
Q 544 659 544 1381 
z
M 1991 3584 
L 1991 3584 
z
" transform="scale(0.015625)"/>
        <path id="DejaVuSans-6c" d="M 603 4863 
L 1178 4863 
L 1178 0 
L 603 0 
L 603 4863 
z
" transform="scale(0.015625)"/>
        <path id="DejaVuSans-61" d="M 2194 1759 
Q 1497 1759 1228 1600 
Q 959 1441 959 1056 
Q 959 750 1161 570 
Q 1363 391 1709 391 
Q 2188 391 2477 730 
Q 2766 1069 2766 1631 
L 2766 1759 
L 2194 1759 
z
M 3341 1997 
L 3341 0 
L 2766 0 
L 2766 531 
Q 2569 213 2275 61 
Q 1981 -91 1556 -91 
Q 1019 -91 701 211 
Q 384 513 384 1019 
Q 384 1609 779 1909 
Q 1175 2209 1959 2209 
L 2766 2209 
L 2766 2266 
Q 2766 2663 2505 2880 
Q 2244 3097 1772 3097 
Q 1472 3097 1187 3025 
Q 903 2953 641 2809 
L 641 3341 
Q 956 3463 1253 3523 
Q 1550 3584 1831 3584 
Q 2591 3584 2966 3190 
Q 3341 2797 3341 1997 
z
" transform="scale(0.015625)"/>
        <path id="DejaVuSans-79" d="M 2059 -325 
Q 1816 -950 1584 -1140 
Q 1353 -1331 966 -1331 
L 506 -1331 
L 506 -850 
L 844 -850 
Q 1081 -850 1212 -737 
Q 1344 -625 1503 -206 
L 1606 56 
L 191 3500 
L 800 3500 
L 1894 763 
L 2988 3500 
L 3597 3500 
L 2059 -325 
z
" transform="scale(0.015625)"/>
        <path id="DejaVuSans-57" d="M 213 4666 
L 850 4666 
L 1831 722 
L 2809 4666 
L 3519 4666 
L 4500 722 
L 5478 4666 
L 6119 4666 
L 4947 0 
L 4153 0 
L 3169 4050 
L 2175 0 
L 1381 0 
L 213 4666 
z
" transform="scale(0.015625)"/>
        <path id="DejaVuSans-6f" d="M 1959 3097 
Q 1497 3097 1228 2736 
Q 959 2375 959 1747 
Q 959 1119 1226 758 
Q 1494 397 1959 397 
Q 2419 397 2687 759 
Q 2956 1122 2956 1747 
Q 2956 2369 2687 2733 
Q 2419 3097 1959 3097 
z
M 1959 3584 
Q 2709 3584 3137 3096 
Q 3566 2609 3566 1747 
Q 3566 888 3137 398 
Q 2709 -91 1959 -91 
Q 1206 -91 779 398 
Q 353 888 353 1747 
Q 353 2609 779 3096 
Q 1206 3584 1959 3584 
z
" transform="scale(0.015625)"/>
        <path id="DejaVuSans-64" d="M 2906 2969 
L 2906 4863 
L 3481 4863 
L 3481 0 
L 2906 0 
L 2906 525 
Q 2725 213 2448 61 
Q 2172 -91 1784 -91 
Q 1150 -91 751 415 
Q 353 922 353 1747 
Q 353 2572 751 3078 
Q 1150 3584 1784 3584 
Q 2172 3584 2448 3432 
Q 2725 3281 2906 2969 
z
M 947 1747 
Q 947 1113 1208 752 
Q 1469 391 1925 391 
Q 2381 391 2643 752 
Q 2906 1113 2906 1747 
Q 2906 2381 2643 2742 
Q 2381 3103 1925 3103 
Q 1469 3103 1208 2742 
Q 947 2381 947 1747 
z
" transform="scale(0.015625)"/>
        <path id="DejaVuSans-52" d="M 2841 2188 
Q 3044 2119 3236 1894 
Q 3428 1669 3622 1275 
L 4263 0 
L 3584 0 
L 2988 1197 
Q 2756 1666 2539 1819 
Q 2322 1972 1947 1972 
L 1259 1972 
L 1259 0 
L 628 0 
L 628 4666 
L 2053 4666 
Q 2853 4666 3247 4331 
Q 3641 3997 3641 3322 
Q 3641 2881 3436 2590 
Q 3231 2300 2841 2188 
z
M 1259 4147 
L 1259 2491 
L 2053 2491 
Q 2509 2491 2742 2702 
Q 2975 2913 2975 3322 
Q 2975 3731 2742 3939 
Q 2509 4147 2053 4147 
L 1259 4147 
z
" transform="scale(0.015625)"/>
        <path id="DejaVuSans-65" d="M 3597 1894 
L 3597 1613 
L 953 1613 
Q 991 1019 1311 708 
Q 1631 397 2203 397 
Q 2534 397 2845 478 
Q 3156 559 3463 722 
L 3463 178 
Q 3153 47 2828 -22 
Q 2503 -91 2169 -91 
Q 1331 -91 842 396 
Q 353 884 353 1716 
Q 353 2575 817 3079 
Q 1281 3584 2069 3584 
Q 2775 3584 3186 3129 
Q 3597 2675 3597 1894 
z
M 3022 2063 
Q 3016 2534 2758 2815 
Q 2500 3097 2075 3097 
Q 1594 3097 1305 2825 
Q 1016 2553 972 2059 
L 3022 2063 
z
" transform="scale(0.015625)"/>
        <path id="DejaVuSans-67" d="M 2906 1791 
Q 2906 2416 2648 2759 
Q 2391 3103 1925 3103 
Q 1463 3103 1205 2759 
Q 947 2416 947 1791 
Q 947 1169 1205 825 
Q 1463 481 1925 481 
Q 2391 481 2648 825 
Q 2906 1169 2906 1791 
z
M 3481 434 
Q 3481 -459 3084 -895 
Q 2688 -1331 1869 -1331 
Q 1566 -1331 1297 -1286 
Q 1028 -1241 775 -1147 
L 775 -588 
Q 1028 -725 1275 -790 
Q 1522 -856 1778 -856 
Q 2344 -856 2625 -561 
Q 2906 -266 2906 331 
L 2906 616 
Q 2728 306 2450 153 
Q 2172 0 1784 0 
Q 1141 0 747 490 
Q 353 981 353 1791 
Q 353 2603 747 3093 
Q 1141 3584 1784 3584 
Q 2172 3584 2450 3431 
Q 2728 3278 2906 2969 
L 2906 3500 
L 3481 3500 
L 3481 434 
z
" transform="scale(0.015625)"/>
        <path id="DejaVuSans-6e" d="M 3513 2113 
L 3513 0 
L 2938 0 
L 2938 2094 
Q 2938 2591 2744 2837 
Q 2550 3084 2163 3084 
Q 1697 3084 1428 2787 
Q 1159 2491 1159 1978 
L 1159 0 
L 581 0 
L 581 3500 
L 1159 3500 
L 1159 2956 
Q 1366 3272 1645 3428 
Q 1925 3584 2291 3584 
Q 2894 3584 3203 3211 
Q 3513 2838 3513 2113 
z
" transform="scale(0.015625)"/>
       </defs>
       <use xlink:href="#DejaVuSans-41"/>
       <use xlink:href="#DejaVuSans-72" x="68.408203"/>
       <use xlink:href="#DejaVuSans-74" x="109.521484"/>
       <use xlink:href="#DejaVuSans-69" x="148.730469"/>
       <use xlink:href="#DejaVuSans-63" x="176.513672"/>
       <use xlink:href="#DejaVuSans-75" x="231.494141"/>
       <use xlink:href="#DejaVuSans-6c" x="294.873047"/>
       <use xlink:href="#DejaVuSans-61" x="322.65625"/>
       <use xlink:href="#DejaVuSans-72" x="383.935547"/>
       <use xlink:href="#DejaVuSans-79" x="425.048828"/>
       <use xlink:href="#DejaVuSans-57" x="484.228516"/>
       <use xlink:href="#DejaVuSans-6f" x="577.230469"/>
       <use xlink:href="#DejaVuSans-72" x="638.412109"/>
       <use xlink:href="#DejaVuSans-64" x="677.775391"/>
       <use xlink:href="#DejaVuSans-52" x="741.251953"/>
       <use xlink:href="#DejaVuSans-65" x="806.234375"/>
       <use xlink:href="#DejaVuSans-63" x="867.757812"/>
       <use xlink:href="#DejaVuSans-6f" x="922.738281"/>
       <use xlink:href="#DejaVuSans-67" x="983.919922"/>
       <use xlink:href="#DejaVuSans-6e" x="1047.396484"/>
       <use xlink:href="#DejaVuSans-69" x="1110.775391"/>
       <use xlink:href="#DejaVuSans-74" x="1138.558594"/>
       <use xlink:href="#DejaVuSans-69" x="1177.767578"/>
       <use xlink:href="#DejaVuSans-6f" x="1205.550781"/>
       <use xlink:href="#DejaVuSans-6e" x="1266.732422"/>
      </g>
     </g>
    </g>
    <g id="xtick_2">
     <g id="line2d_2">
      <g>
       <use xlink:href="#m8d80d18b11" x="138.627004" y="291.542101" style="stroke: #000000; stroke-width: 0.8"/>
      </g>
     </g>
     <g id="text_2">
      <!-- AtrialFibrillation -->
      <g transform="translate(81.816499 359.254952)rotate(-45)scale(0.1 -0.1)">
       <defs>
        <path id="DejaVuSans-46" d="M 628 4666 
L 3309 4666 
L 3309 4134 
L 1259 4134 
L 1259 2759 
L 3109 2759 
L 3109 2228 
L 1259 2228 
L 1259 0 
L 628 0 
L 628 4666 
z
" transform="scale(0.015625)"/>
        <path id="DejaVuSans-62" d="M 3116 1747 
Q 3116 2381 2855 2742 
Q 2594 3103 2138 3103 
Q 1681 3103 1420 2742 
Q 1159 2381 1159 1747 
Q 1159 1113 1420 752 
Q 1681 391 2138 391 
Q 2594 391 2855 752 
Q 3116 1113 3116 1747 
z
M 1159 2969 
Q 1341 3281 1617 3432 
Q 1894 3584 2278 3584 
Q 2916 3584 3314 3078 
Q 3713 2572 3713 1747 
Q 3713 922 3314 415 
Q 2916 -91 2278 -91 
Q 1894 -91 1617 61 
Q 1341 213 1159 525 
L 1159 0 
L 581 0 
L 581 4863 
L 1159 4863 
L 1159 2969 
z
" transform="scale(0.015625)"/>
       </defs>
       <use xlink:href="#DejaVuSans-41"/>
       <use xlink:href="#DejaVuSans-74" x="66.658203"/>
       <use xlink:href="#DejaVuSans-72" x="105.867188"/>
       <use xlink:href="#DejaVuSans-69" x="146.980469"/>
       <use xlink:href="#DejaVuSans-61" x="174.763672"/>
       <use xlink:href="#DejaVuSans-6c" x="236.042969"/>
       <use xlink:href="#DejaVuSans-46" x="263.826172"/>
       <use xlink:href="#DejaVuSans-69" x="314.095703"/>
       <use xlink:href="#DejaVuSans-62" x="341.878906"/>
       <use xlink:href="#DejaVuSans-72" x="405.355469"/>
       <use xlink:href="#DejaVuSans-69" x="446.46875"/>
       <use xlink:href="#DejaVuSans-6c" x="474.251953"/>
       <use xlink:href="#DejaVuSans-6c" x="502.035156"/>
       <use xlink:href="#DejaVuSans-61" x="529.818359"/>
       <use xlink:href="#DejaVuSans-74" x="591.097656"/>
       <use xlink:href="#DejaVuSans-69" x="630.306641"/>
       <use xlink:href="#DejaVuSans-6f" x="658.089844"/>
       <use xlink:href="#DejaVuSans-6e" x="719.271484"/>
      </g>
     </g>
    </g>
    <g id="xtick_3">
     <g id="line2d_3">
      <g>
       <use xlink:href="#m8d80d18b11" x="163.699741" y="291.542101" style="stroke: #000000; stroke-width: 0.8"/>
      </g>
     </g>
     <g id="text_3">
      <!-- BasicMotions -->
      <g transform="translate(115.852919 350.291269)rotate(-45)scale(0.1 -0.1)">
       <defs>
        <path id="DejaVuSans-42" d="M 1259 2228 
L 1259 519 
L 2272 519 
Q 2781 519 3026 730 
Q 3272 941 3272 1375 
Q 3272 1813 3026 2020 
Q 2781 2228 2272 2228 
L 1259 2228 
z
M 1259 4147 
L 1259 2741 
L 2194 2741 
Q 2656 2741 2882 2914 
Q 3109 3088 3109 3444 
Q 3109 3797 2882 3972 
Q 2656 4147 2194 4147 
L 1259 4147 
z
M 628 4666 
L 2241 4666 
Q 2963 4666 3353 4366 
Q 3744 4066 3744 3513 
Q 3744 3084 3544 2831 
Q 3344 2578 2956 2516 
Q 3422 2416 3680 2098 
Q 3938 1781 3938 1306 
Q 3938 681 3513 340 
Q 3088 0 2303 0 
L 628 0 
L 628 4666 
z
" transform="scale(0.015625)"/>
        <path id="DejaVuSans-73" d="M 2834 3397 
L 2834 2853 
Q 2591 2978 2328 3040 
Q 2066 3103 1784 3103 
Q 1356 3103 1142 2972 
Q 928 2841 928 2578 
Q 928 2378 1081 2264 
Q 1234 2150 1697 2047 
L 1894 2003 
Q 2506 1872 2764 1633 
Q 3022 1394 3022 966 
Q 3022 478 2636 193 
Q 2250 -91 1575 -91 
Q 1294 -91 989 -36 
Q 684 19 347 128 
L 347 722 
Q 666 556 975 473 
Q 1284 391 1588 391 
Q 1994 391 2212 530 
Q 2431 669 2431 922 
Q 2431 1156 2273 1281 
Q 2116 1406 1581 1522 
L 1381 1569 
Q 847 1681 609 1914 
Q 372 2147 372 2553 
Q 372 3047 722 3315 
Q 1072 3584 1716 3584 
Q 2034 3584 2315 3537 
Q 2597 3491 2834 3397 
z
" transform="scale(0.015625)"/>
        <path id="DejaVuSans-4d" d="M 628 4666 
L 1569 4666 
L 2759 1491 
L 3956 4666 
L 4897 4666 
L 4897 0 
L 4281 0 
L 4281 4097 
L 3078 897 
L 2444 897 
L 1241 4097 
L 1241 0 
L 628 0 
L 628 4666 
z
" transform="scale(0.015625)"/>
       </defs>
       <use xlink:href="#DejaVuSans-42"/>
       <use xlink:href="#DejaVuSans-61" x="68.603516"/>
       <use xlink:href="#DejaVuSans-73" x="129.882812"/>
       <use xlink:href="#DejaVuSans-69" x="181.982422"/>
       <use xlink:href="#DejaVuSans-63" x="209.765625"/>
       <use xlink:href="#DejaVuSans-4d" x="264.746094"/>
       <use xlink:href="#DejaVuSans-6f" x="351.025391"/>
       <use xlink:href="#DejaVuSans-74" x="412.207031"/>
       <use xlink:href="#DejaVuSans-69" x="451.416016"/>
       <use xlink:href="#DejaVuSans-6f" x="479.199219"/>
       <use xlink:href="#DejaVuSans-6e" x="540.380859"/>
       <use xlink:href="#DejaVuSans-73" x="603.759766"/>
      </g>
     </g>
    </g>
    <g id="xtick_4">
     <g id="line2d_4">
      <g>
       <use xlink:href="#m8d80d18b11" x="188.772478" y="291.542101" style="stroke: #000000; stroke-width: 0.8"/>
      </g>
     </g>
     <g id="text_4">
      <!-- CharacterTrajectories -->
      <g transform="translate(111.668007 379.548917)rotate(-45)scale(0.1 -0.1)">
       <defs>
        <path id="DejaVuSans-43" d="M 4122 4306 
L 4122 3641 
Q 3803 3938 3442 4084 
Q 3081 4231 2675 4231 
Q 1875 4231 1450 3742 
Q 1025 3253 1025 2328 
Q 1025 1406 1450 917 
Q 1875 428 2675 428 
Q 3081 428 3442 575 
Q 3803 722 4122 1019 
L 4122 359 
Q 3791 134 3420 21 
Q 3050 -91 2638 -91 
Q 1578 -91 968 557 
Q 359 1206 359 2328 
Q 359 3453 968 4101 
Q 1578 4750 2638 4750 
Q 3056 4750 3426 4639 
Q 3797 4528 4122 4306 
z
" transform="scale(0.015625)"/>
        <path id="DejaVuSans-68" d="M 3513 2113 
L 3513 0 
L 2938 0 
L 2938 2094 
Q 2938 2591 2744 2837 
Q 2550 3084 2163 3084 
Q 1697 3084 1428 2787 
Q 1159 2491 1159 1978 
L 1159 0 
L 581 0 
L 581 4863 
L 1159 4863 
L 1159 2956 
Q 1366 3272 1645 3428 
Q 1925 3584 2291 3584 
Q 2894 3584 3203 3211 
Q 3513 2838 3513 2113 
z
" transform="scale(0.015625)"/>
        <path id="DejaVuSans-54" d="M -19 4666 
L 3928 4666 
L 3928 4134 
L 2272 4134 
L 2272 0 
L 1638 0 
L 1638 4134 
L -19 4134 
L -19 4666 
z
" transform="scale(0.015625)"/>
        <path id="DejaVuSans-6a" d="M 603 3500 
L 1178 3500 
L 1178 -63 
Q 1178 -731 923 -1031 
Q 669 -1331 103 -1331 
L -116 -1331 
L -116 -844 
L 38 -844 
Q 366 -844 484 -692 
Q 603 -541 603 -63 
L 603 3500 
z
M 603 4863 
L 1178 4863 
L 1178 4134 
L 603 4134 
L 603 4863 
z
" transform="scale(0.015625)"/>
       </defs>
       <use xlink:href="#DejaVuSans-43"/>
       <use xlink:href="#DejaVuSans-68" x="69.824219"/>
       <use xlink:href="#DejaVuSans-61" x="133.203125"/>
       <use xlink:href="#DejaVuSans-72" x="194.482422"/>
       <use xlink:href="#DejaVuSans-61" x="235.595703"/>
       <use xlink:href="#DejaVuSans-63" x="296.875"/>
       <use xlink:href="#DejaVuSans-74" x="351.855469"/>
       <use xlink:href="#DejaVuSans-65" x="391.064453"/>
       <use xlink:href="#DejaVuSans-72" x="452.587891"/>
       <use xlink:href="#DejaVuSans-54" x="493.701172"/>
       <use xlink:href="#DejaVuSans-72" x="540.035156"/>
       <use xlink:href="#DejaVuSans-61" x="581.148438"/>
       <use xlink:href="#DejaVuSans-6a" x="642.427734"/>
       <use xlink:href="#DejaVuSans-65" x="670.210938"/>
       <use xlink:href="#DejaVuSans-63" x="731.734375"/>
       <use xlink:href="#DejaVuSans-74" x="786.714844"/>
       <use xlink:href="#DejaVuSans-6f" x="825.923828"/>
       <use xlink:href="#DejaVuSans-72" x="887.105469"/>
       <use xlink:href="#DejaVuSans-69" x="928.21875"/>
       <use xlink:href="#DejaVuSans-65" x="956.001953"/>
       <use xlink:href="#DejaVuSans-73" x="1017.525391"/>
      </g>
     </g>
    </g>
    <g id="xtick_5">
     <g id="line2d_5">
      <g>
       <use xlink:href="#m8d80d18b11" x="213.845214" y="291.542101" style="stroke: #000000; stroke-width: 0.8"/>
      </g>
     </g>
     <g id="text_5">
      <!-- Cricket -->
      <g transform="translate(187.716514 328.573147)rotate(-45)scale(0.1 -0.1)">
       <defs>
        <path id="DejaVuSans-6b" d="M 581 4863 
L 1159 4863 
L 1159 1991 
L 2875 3500 
L 3609 3500 
L 1753 1863 
L 3688 0 
L 2938 0 
L 1159 1709 
L 1159 0 
L 581 0 
L 581 4863 
z
" transform="scale(0.015625)"/>
       </defs>
       <use xlink:href="#DejaVuSans-43"/>
       <use xlink:href="#DejaVuSans-72" x="69.824219"/>
       <use xlink:href="#DejaVuSans-69" x="110.9375"/>
       <use xlink:href="#DejaVuSans-63" x="138.720703"/>
       <use xlink:href="#DejaVuSans-6b" x="193.701172"/>
       <use xlink:href="#DejaVuSans-65" x="247.986328"/>
       <use xlink:href="#DejaVuSans-74" x="309.509766"/>
      </g>
     </g>
    </g>
    <g id="xtick_6">
     <g id="line2d_6">
      <g>
       <use xlink:href="#m8d80d18b11" x="238.917951" y="291.542101" style="stroke: #000000; stroke-width: 0.8"/>
      </g>
     </g>
     <g id="text_6">
      <!-- DuckDuckGeese -->
      <g transform="translate(179.414915 361.947482)rotate(-45)scale(0.1 -0.1)">
       <defs>
        <path id="DejaVuSans-44" d="M 1259 4147 
L 1259 519 
L 2022 519 
Q 2988 519 3436 956 
Q 3884 1394 3884 2338 
Q 3884 3275 3436 3711 
Q 2988 4147 2022 4147 
L 1259 4147 
z
M 628 4666 
L 1925 4666 
Q 3281 4666 3915 4102 
Q 4550 3538 4550 2338 
Q 4550 1131 3912 565 
Q 3275 0 1925 0 
L 628 0 
L 628 4666 
z
" transform="scale(0.015625)"/>
        <path id="DejaVuSans-47" d="M 3809 666 
L 3809 1919 
L 2778 1919 
L 2778 2438 
L 4434 2438 
L 4434 434 
Q 4069 175 3628 42 
Q 3188 -91 2688 -91 
Q 1594 -91 976 548 
Q 359 1188 359 2328 
Q 359 3472 976 4111 
Q 1594 4750 2688 4750 
Q 3144 4750 3555 4637 
Q 3966 4525 4313 4306 
L 4313 3634 
Q 3963 3931 3569 4081 
Q 3175 4231 2741 4231 
Q 1884 4231 1454 3753 
Q 1025 3275 1025 2328 
Q 1025 1384 1454 906 
Q 1884 428 2741 428 
Q 3075 428 3337 486 
Q 3600 544 3809 666 
z
" transform="scale(0.015625)"/>
       </defs>
       <use xlink:href="#DejaVuSans-44"/>
       <use xlink:href="#DejaVuSans-75" x="77.001953"/>
       <use xlink:href="#DejaVuSans-63" x="140.380859"/>
       <use xlink:href="#DejaVuSans-6b" x="195.361328"/>
       <use xlink:href="#DejaVuSans-44" x="253.271484"/>
       <use xlink:href="#DejaVuSans-75" x="330.273438"/>
       <use xlink:href="#DejaVuSans-63" x="393.652344"/>
       <use xlink:href="#DejaVuSans-6b" x="448.632812"/>
       <use xlink:href="#DejaVuSans-47" x="506.542969"/>
       <use xlink:href="#DejaVuSans-65" x="584.033203"/>
       <use xlink:href="#DejaVuSans-65" x="645.556641"/>
       <use xlink:href="#DejaVuSans-73" x="707.080078"/>
       <use xlink:href="#DejaVuSans-65" x="759.179688"/>
      </g>
     </g>
    </g>
    <g id="xtick_7">
     <g id="line2d_7">
      <g>
       <use xlink:href="#m8d80d18b11" x="263.990688" y="291.542101" style="stroke: #000000; stroke-width: 0.8"/>
      </g>
     </g>
     <g id="text_7">
      <!-- ERing -->
      <g transform="translate(242.204065 324.231069)rotate(-45)scale(0.1 -0.1)">
       <defs>
        <path id="DejaVuSans-45" d="M 628 4666 
L 3578 4666 
L 3578 4134 
L 1259 4134 
L 1259 2753 
L 3481 2753 
L 3481 2222 
L 1259 2222 
L 1259 531 
L 3634 531 
L 3634 0 
L 628 0 
L 628 4666 
z
" transform="scale(0.015625)"/>
       </defs>
       <use xlink:href="#DejaVuSans-45"/>
       <use xlink:href="#DejaVuSans-52" x="63.183594"/>
       <use xlink:href="#DejaVuSans-69" x="132.666016"/>
       <use xlink:href="#DejaVuSans-6e" x="160.449219"/>
       <use xlink:href="#DejaVuSans-67" x="223.828125"/>
      </g>
     </g>
    </g>
    <g id="xtick_8">
     <g id="line2d_8">
      <g>
       <use xlink:href="#m8d80d18b11" x="289.063424" y="291.542101" style="stroke: #000000; stroke-width: 0.8"/>
      </g>
     </g>
     <g id="text_8">
      <!-- EigenWorms -->
      <g transform="translate(243.582095 347.925775)rotate(-45)scale(0.1 -0.1)">
       <defs>
        <path id="DejaVuSans-6d" d="M 3328 2828 
Q 3544 3216 3844 3400 
Q 4144 3584 4550 3584 
Q 5097 3584 5394 3201 
Q 5691 2819 5691 2113 
L 5691 0 
L 5113 0 
L 5113 2094 
Q 5113 2597 4934 2840 
Q 4756 3084 4391 3084 
Q 3944 3084 3684 2787 
Q 3425 2491 3425 1978 
L 3425 0 
L 2847 0 
L 2847 2094 
Q 2847 2600 2669 2842 
Q 2491 3084 2119 3084 
Q 1678 3084 1418 2786 
Q 1159 2488 1159 1978 
L 1159 0 
L 581 0 
L 581 3500 
L 1159 3500 
L 1159 2956 
Q 1356 3278 1631 3431 
Q 1906 3584 2284 3584 
Q 2666 3584 2933 3390 
Q 3200 3197 3328 2828 
z
" transform="scale(0.015625)"/>
       </defs>
       <use xlink:href="#DejaVuSans-45"/>
       <use xlink:href="#DejaVuSans-69" x="63.183594"/>
       <use xlink:href="#DejaVuSans-67" x="90.966797"/>
       <use xlink:href="#DejaVuSans-65" x="154.443359"/>
       <use xlink:href="#DejaVuSans-6e" x="215.966797"/>
       <use xlink:href="#DejaVuSans-57" x="279.345703"/>
       <use xlink:href="#DejaVuSans-6f" x="372.347656"/>
       <use xlink:href="#DejaVuSans-72" x="433.529297"/>
       <use xlink:href="#DejaVuSans-6d" x="472.892578"/>
       <use xlink:href="#DejaVuSans-73" x="570.304688"/>
      </g>
     </g>
    </g>
    <g id="xtick_9">
     <g id="line2d_9">
      <g>
       <use xlink:href="#m8d80d18b11" x="314.136161" y="291.542101" style="stroke: #000000; stroke-width: 0.8"/>
      </g>
     </g>
     <g id="text_9">
      <!-- Epilepsy -->
      <g transform="translate(283.070971 333.509636)rotate(-45)scale(0.1 -0.1)">
       <defs>
        <path id="DejaVuSans-70" d="M 1159 525 
L 1159 -1331 
L 581 -1331 
L 581 3500 
L 1159 3500 
L 1159 2969 
Q 1341 3281 1617 3432 
Q 1894 3584 2278 3584 
Q 2916 3584 3314 3078 
Q 3713 2572 3713 1747 
Q 3713 922 3314 415 
Q 2916 -91 2278 -91 
Q 1894 -91 1617 61 
Q 1341 213 1159 525 
z
M 3116 1747 
Q 3116 2381 2855 2742 
Q 2594 3103 2138 3103 
Q 1681 3103 1420 2742 
Q 1159 2381 1159 1747 
Q 1159 1113 1420 752 
Q 1681 391 2138 391 
Q 2594 391 2855 752 
Q 3116 1113 3116 1747 
z
" transform="scale(0.015625)"/>
       </defs>
       <use xlink:href="#DejaVuSans-45"/>
       <use xlink:href="#DejaVuSans-70" x="63.183594"/>
       <use xlink:href="#DejaVuSans-69" x="126.660156"/>
       <use xlink:href="#DejaVuSans-6c" x="154.443359"/>
       <use xlink:href="#DejaVuSans-65" x="182.226562"/>
       <use xlink:href="#DejaVuSans-70" x="243.75"/>
       <use xlink:href="#DejaVuSans-73" x="307.226562"/>
       <use xlink:href="#DejaVuSans-79" x="359.326172"/>
      </g>
     </g>
    </g>
    <g id="xtick_10">
     <g id="line2d_10">
      <g>
       <use xlink:href="#m8d80d18b11" x="339.208898" y="291.542101" style="stroke: #000000; stroke-width: 0.8"/>
      </g>
     </g>
     <g id="text_10">
      <!-- EthanolConcentration -->
      <g transform="translate(260.889088 380.764256)rotate(-45)scale(0.1 -0.1)">
       <use xlink:href="#DejaVuSans-45"/>
       <use xlink:href="#DejaVuSans-74" x="63.183594"/>
       <use xlink:href="#DejaVuSans-68" x="102.392578"/>
       <use xlink:href="#DejaVuSans-61" x="165.771484"/>
       <use xlink:href="#DejaVuSans-6e" x="227.050781"/>
       <use xlink:href="#DejaVuSans-6f" x="290.429688"/>
       <use xlink:href="#DejaVuSans-6c" x="351.611328"/>
       <use xlink:href="#DejaVuSans-43" x="379.394531"/>
       <use xlink:href="#DejaVuSans-6f" x="449.21875"/>
       <use xlink:href="#DejaVuSans-6e" x="510.400391"/>
       <use xlink:href="#DejaVuSans-63" x="573.779297"/>
       <use xlink:href="#DejaVuSans-65" x="628.759766"/>
       <use xlink:href="#DejaVuSans-6e" x="690.283203"/>
       <use xlink:href="#DejaVuSans-74" x="753.662109"/>
       <use xlink:href="#DejaVuSans-72" x="792.871094"/>
       <use xlink:href="#DejaVuSans-61" x="833.984375"/>
       <use xlink:href="#DejaVuSans-74" x="895.263672"/>
       <use xlink:href="#DejaVuSans-69" x="934.472656"/>
       <use xlink:href="#DejaVuSans-6f" x="962.255859"/>
       <use xlink:href="#DejaVuSans-6e" x="1023.4375"/>
      </g>
     </g>
    </g>
    <g id="xtick_11">
     <g id="line2d_11">
      <g>
       <use xlink:href="#m8d80d18b11" x="364.281634" y="291.542101" style="stroke: #000000; stroke-width: 0.8"/>
      </g>
     </g>
     <g id="text_11">
      <!-- FaceDetection -->
      <g transform="translate(312.466175 354.259905)rotate(-45)scale(0.1 -0.1)">
       <use xlink:href="#DejaVuSans-46"/>
       <use xlink:href="#DejaVuSans-61" x="48.394531"/>
       <use xlink:href="#DejaVuSans-63" x="109.673828"/>
       <use xlink:href="#DejaVuSans-65" x="164.654297"/>
       <use xlink:href="#DejaVuSans-44" x="226.177734"/>
       <use xlink:href="#DejaVuSans-65" x="303.179688"/>
       <use xlink:href="#DejaVuSans-74" x="364.703125"/>
       <use xlink:href="#DejaVuSans-65" x="403.912109"/>
       <use xlink:href="#DejaVuSans-63" x="465.435547"/>
       <use xlink:href="#DejaVuSans-74" x="520.416016"/>
       <use xlink:href="#DejaVuSans-69" x="559.625"/>
       <use xlink:href="#DejaVuSans-6f" x="587.408203"/>
       <use xlink:href="#DejaVuSans-6e" x="648.589844"/>
      </g>
     </g>
    </g>
    <g id="xtick_12">
     <g id="line2d_12">
      <g>
       <use xlink:href="#m8d80d18b11" x="389.354371" y="291.542101" style="stroke: #000000; stroke-width: 0.8"/>
      </g>
     </g>
     <g id="text_12">
      <!-- FingerMovements -->
      <g transform="translate(324.99771 366.801107)rotate(-45)scale(0.1 -0.1)">
       <defs>
        <path id="DejaVuSans-76" d="M 191 3500 
L 800 3500 
L 1894 563 
L 2988 3500 
L 3597 3500 
L 2284 0 
L 1503 0 
L 191 3500 
z
" transform="scale(0.015625)"/>
       </defs>
       <use xlink:href="#DejaVuSans-46"/>
       <use xlink:href="#DejaVuSans-69" x="50.269531"/>
       <use xlink:href="#DejaVuSans-6e" x="78.052734"/>
       <use xlink:href="#DejaVuSans-67" x="141.431641"/>
       <use xlink:href="#DejaVuSans-65" x="204.908203"/>
       <use xlink:href="#DejaVuSans-72" x="266.431641"/>
       <use xlink:href="#DejaVuSans-4d" x="307.544922"/>
       <use xlink:href="#DejaVuSans-6f" x="393.824219"/>
       <use xlink:href="#DejaVuSans-76" x="455.005859"/>
       <use xlink:href="#DejaVuSans-65" x="514.185547"/>
       <use xlink:href="#DejaVuSans-6d" x="575.708984"/>
       <use xlink:href="#DejaVuSans-65" x="673.121094"/>
       <use xlink:href="#DejaVuSans-6e" x="734.644531"/>
       <use xlink:href="#DejaVuSans-74" x="798.023438"/>
       <use xlink:href="#DejaVuSans-73" x="837.232422"/>
      </g>
     </g>
    </g>
    <g id="xtick_13">
     <g id="line2d_13">
      <g>
       <use xlink:href="#m8d80d18b11" x="414.427108" y="291.542101" style="stroke: #000000; stroke-width: 0.8"/>
      </g>
     </g>
     <g id="text_13">
      <!-- HandMovementDirection -->
      <g transform="translate(324.93943 391.932124)rotate(-45)scale(0.1 -0.1)">
       <defs>
        <path id="DejaVuSans-48" d="M 628 4666 
L 1259 4666 
L 1259 2753 
L 3553 2753 
L 3553 4666 
L 4184 4666 
L 4184 0 
L 3553 0 
L 3553 2222 
L 1259 2222 
L 1259 0 
L 628 0 
L 628 4666 
z
" transform="scale(0.015625)"/>
       </defs>
       <use xlink:href="#DejaVuSans-48"/>
       <use xlink:href="#DejaVuSans-61" x="75.195312"/>
       <use xlink:href="#DejaVuSans-6e" x="136.474609"/>
       <use xlink:href="#DejaVuSans-64" x="199.853516"/>
       <use xlink:href="#DejaVuSans-4d" x="263.330078"/>
       <use xlink:href="#DejaVuSans-6f" x="349.609375"/>
       <use xlink:href="#DejaVuSans-76" x="410.791016"/>
       <use xlink:href="#DejaVuSans-65" x="469.970703"/>
       <use xlink:href="#DejaVuSans-6d" x="531.494141"/>
       <use xlink:href="#DejaVuSans-65" x="628.90625"/>
       <use xlink:href="#DejaVuSans-6e" x="690.429688"/>
       <use xlink:href="#DejaVuSans-74" x="753.808594"/>
       <use xlink:href="#DejaVuSans-44" x="793.017578"/>
       <use xlink:href="#DejaVuSans-69" x="870.019531"/>
       <use xlink:href="#DejaVuSans-72" x="897.802734"/>
       <use xlink:href="#DejaVuSans-65" x="936.666016"/>
       <use xlink:href="#DejaVuSans-63" x="998.189453"/>
       <use xlink:href="#DejaVuSans-74" x="1053.169922"/>
       <use xlink:href="#DejaVuSans-69" x="1092.378906"/>
       <use xlink:href="#DejaVuSans-6f" x="1120.162109"/>
       <use xlink:href="#DejaVuSans-6e" x="1181.34375"/>
      </g>
     </g>
    </g>
    <g id="xtick_14">
     <g id="line2d_14">
      <g>
       <use xlink:href="#m8d80d18b11" x="439.499845" y="291.542101" style="stroke: #000000; stroke-width: 0.8"/>
      </g>
     </g>
     <g id="text_14">
      <!-- Handwriting -->
      <g transform="translate(395.047135 346.897156)rotate(-45)scale(0.1 -0.1)">
       <defs>
        <path id="DejaVuSans-77" d="M 269 3500 
L 844 3500 
L 1563 769 
L 2278 3500 
L 2956 3500 
L 3675 769 
L 4391 3500 
L 4966 3500 
L 4050 0 
L 3372 0 
L 2619 2869 
L 1863 0 
L 1184 0 
L 269 3500 
z
" transform="scale(0.015625)"/>
       </defs>
       <use xlink:href="#DejaVuSans-48"/>
       <use xlink:href="#DejaVuSans-61" x="75.195312"/>
       <use xlink:href="#DejaVuSans-6e" x="136.474609"/>
       <use xlink:href="#DejaVuSans-64" x="199.853516"/>
       <use xlink:href="#DejaVuSans-77" x="263.330078"/>
       <use xlink:href="#DejaVuSans-72" x="345.117188"/>
       <use xlink:href="#DejaVuSans-69" x="386.230469"/>
       <use xlink:href="#DejaVuSans-74" x="414.013672"/>
       <use xlink:href="#DejaVuSans-69" x="453.222656"/>
       <use xlink:href="#DejaVuSans-6e" x="481.005859"/>
       <use xlink:href="#DejaVuSans-67" x="544.384766"/>
      </g>
     </g>
    </g>
    <g id="xtick_15">
     <g id="line2d_15">
      <g>
       <use xlink:href="#m8d80d18b11" x="464.572581" y="291.542101" style="stroke: #000000; stroke-width: 0.8"/>
      </g>
     </g>
     <g id="text_15">
      <!-- Heartbeat -->
      <g transform="translate(427.475992 339.541036)rotate(-45)scale(0.1 -0.1)">
       <use xlink:href="#DejaVuSans-48"/>
       <use xlink:href="#DejaVuSans-65" x="75.195312"/>
       <use xlink:href="#DejaVuSans-61" x="136.71875"/>
       <use xlink:href="#DejaVuSans-72" x="197.998047"/>
       <use xlink:href="#DejaVuSans-74" x="239.111328"/>
       <use xlink:href="#DejaVuSans-62" x="278.320312"/>
       <use xlink:href="#DejaVuSans-65" x="341.796875"/>
       <use xlink:href="#DejaVuSans-61" x="403.320312"/>
       <use xlink:href="#DejaVuSans-74" x="464.599609"/>
      </g>
     </g>
    </g>
    <g id="xtick_16">
     <g id="line2d_16">
      <g>
       <use xlink:href="#m8d80d18b11" x="489.645318" y="291.542101" style="stroke: #000000; stroke-width: 0.8"/>
      </g>
     </g>
     <g id="text_16">
      <!-- InsectWingbeat -->
      <g transform="translate(433.200519 358.889245)rotate(-45)scale(0.1 -0.1)">
       <defs>
        <path id="DejaVuSans-49" d="M 628 4666 
L 1259 4666 
L 1259 0 
L 628 0 
L 628 4666 
z
" transform="scale(0.015625)"/>
       </defs>
       <use xlink:href="#DejaVuSans-49"/>
       <use xlink:href="#DejaVuSans-6e" x="29.492188"/>
       <use xlink:href="#DejaVuSans-73" x="92.871094"/>
       <use xlink:href="#DejaVuSans-65" x="144.970703"/>
       <use xlink:href="#DejaVuSans-63" x="206.494141"/>
       <use xlink:href="#DejaVuSans-74" x="261.474609"/>
       <use xlink:href="#DejaVuSans-57" x="300.683594"/>
       <use xlink:href="#DejaVuSans-69" x="397.310547"/>
       <use xlink:href="#DejaVuSans-6e" x="425.09375"/>
       <use xlink:href="#DejaVuSans-67" x="488.472656"/>
       <use xlink:href="#DejaVuSans-62" x="551.949219"/>
       <use xlink:href="#DejaVuSans-65" x="615.425781"/>
       <use xlink:href="#DejaVuSans-61" x="676.949219"/>
       <use xlink:href="#DejaVuSans-74" x="738.228516"/>
      </g>
     </g>
    </g>
    <g id="xtick_17">
     <g id="line2d_17">
      <g>
       <use xlink:href="#m8d80d18b11" x="514.718055" y="291.542101" style="stroke: #000000; stroke-width: 0.8"/>
      </g>
     </g>
     <g id="text_17">
      <!-- JapaneseVowels -->
      <g transform="translate(456.741928 360.420573)rotate(-45)scale(0.1 -0.1)">
       <defs>
        <path id="DejaVuSans-4a" d="M 628 4666 
L 1259 4666 
L 1259 325 
Q 1259 -519 939 -900 
Q 619 -1281 -91 -1281 
L -331 -1281 
L -331 -750 
L -134 -750 
Q 284 -750 456 -515 
Q 628 -281 628 325 
L 628 4666 
z
" transform="scale(0.015625)"/>
        <path id="DejaVuSans-56" d="M 1831 0 
L 50 4666 
L 709 4666 
L 2188 738 
L 3669 4666 
L 4325 4666 
L 2547 0 
L 1831 0 
z
" transform="scale(0.015625)"/>
       </defs>
       <use xlink:href="#DejaVuSans-4a"/>
       <use xlink:href="#DejaVuSans-61" x="29.492188"/>
       <use xlink:href="#DejaVuSans-70" x="90.771484"/>
       <use xlink:href="#DejaVuSans-61" x="154.248047"/>
       <use xlink:href="#DejaVuSans-6e" x="215.527344"/>
       <use xlink:href="#DejaVuSans-65" x="278.90625"/>
       <use xlink:href="#DejaVuSans-73" x="340.429688"/>
       <use xlink:href="#DejaVuSans-65" x="392.529297"/>
       <use xlink:href="#DejaVuSans-56" x="454.052734"/>
       <use xlink:href="#DejaVuSans-6f" x="514.710938"/>
       <use xlink:href="#DejaVuSans-77" x="575.892578"/>
       <use xlink:href="#DejaVuSans-65" x="657.679688"/>
       <use xlink:href="#DejaVuSans-6c" x="719.203125"/>
       <use xlink:href="#DejaVuSans-73" x="746.986328"/>
      </g>
     </g>
    </g>
    <g id="xtick_18">
     <g id="line2d_18">
      <g>
       <use xlink:href="#m8d80d18b11" x="539.790791" y="291.542101" style="stroke: #000000; stroke-width: 0.8"/>
      </g>
     </g>
     <g id="text_18">
      <!-- LSST -->
      <g transform="translate(521.083398 321.15184)rotate(-45)scale(0.1 -0.1)">
       <defs>
        <path id="DejaVuSans-4c" d="M 628 4666 
L 1259 4666 
L 1259 531 
L 3531 531 
L 3531 0 
L 628 0 
L 628 4666 
z
" transform="scale(0.015625)"/>
        <path id="DejaVuSans-53" d="M 3425 4513 
L 3425 3897 
Q 3066 4069 2747 4153 
Q 2428 4238 2131 4238 
Q 1616 4238 1336 4038 
Q 1056 3838 1056 3469 
Q 1056 3159 1242 3001 
Q 1428 2844 1947 2747 
L 2328 2669 
Q 3034 2534 3370 2195 
Q 3706 1856 3706 1288 
Q 3706 609 3251 259 
Q 2797 -91 1919 -91 
Q 1588 -91 1214 -16 
Q 841 59 441 206 
L 441 856 
Q 825 641 1194 531 
Q 1563 422 1919 422 
Q 2459 422 2753 634 
Q 3047 847 3047 1241 
Q 3047 1584 2836 1778 
Q 2625 1972 2144 2069 
L 1759 2144 
Q 1053 2284 737 2584 
Q 422 2884 422 3419 
Q 422 4038 858 4394 
Q 1294 4750 2059 4750 
Q 2388 4750 2728 4690 
Q 3069 4631 3425 4513 
z
" transform="scale(0.015625)"/>
       </defs>
       <use xlink:href="#DejaVuSans-4c"/>
       <use xlink:href="#DejaVuSans-53" x="55.712891"/>
       <use xlink:href="#DejaVuSans-53" x="119.189453"/>
       <use xlink:href="#DejaVuSans-54" x="182.666016"/>
      </g>
     </g>
    </g>
    <g id="xtick_19">
     <g id="line2d_19">
      <g>
       <use xlink:href="#m8d80d18b11" x="564.863528" y="291.542101" style="stroke: #000000; stroke-width: 0.8"/>
      </g>
     </g>
     <g id="text_19">
      <!-- Libras -->
      <g transform="translate(542.075907 325.232067)rotate(-45)scale(0.1 -0.1)">
       <use xlink:href="#DejaVuSans-4c"/>
       <use xlink:href="#DejaVuSans-69" x="55.712891"/>
       <use xlink:href="#DejaVuSans-62" x="83.496094"/>
       <use xlink:href="#DejaVuSans-72" x="146.972656"/>
       <use xlink:href="#DejaVuSans-61" x="188.085938"/>
       <use xlink:href="#DejaVuSans-73" x="249.365234"/>
      </g>
     </g>
    </g>
    <g id="xtick_20">
     <g id="line2d_20">
      <g>
       <use xlink:href="#m8d80d18b11" x="589.936265" y="291.542101" style="stroke: #000000; stroke-width: 0.8"/>
      </g>
     </g>
     <g id="text_20">
      <!-- MotorImagery -->
      <g transform="translate(538.793662 353.587049)rotate(-45)scale(0.1 -0.1)">
       <use xlink:href="#DejaVuSans-4d"/>
       <use xlink:href="#DejaVuSans-6f" x="86.279297"/>
       <use xlink:href="#DejaVuSans-74" x="147.460938"/>
       <use xlink:href="#DejaVuSans-6f" x="186.669922"/>
       <use xlink:href="#DejaVuSans-72" x="247.851562"/>
       <use xlink:href="#DejaVuSans-49" x="288.964844"/>
       <use xlink:href="#DejaVuSans-6d" x="318.457031"/>
       <use xlink:href="#DejaVuSans-61" x="415.869141"/>
       <use xlink:href="#DejaVuSans-67" x="477.148438"/>
       <use xlink:href="#DejaVuSans-65" x="540.625"/>
       <use xlink:href="#DejaVuSans-72" x="602.148438"/>
       <use xlink:href="#DejaVuSans-79" x="643.261719"/>
      </g>
     </g>
    </g>
    <g id="xtick_21">
     <g id="line2d_21">
      <g>
       <use xlink:href="#m8d80d18b11" x="615.009001" y="291.542101" style="stroke: #000000; stroke-width: 0.8"/>
      </g>
     </g>
     <g id="text_21">
      <!-- NATOPS -->
      <g transform="translate(585.321565 332.131883)rotate(-45)scale(0.1 -0.1)">
       <defs>
        <path id="DejaVuSans-4e" d="M 628 4666 
L 1478 4666 
L 3547 763 
L 3547 4666 
L 4159 4666 
L 4159 0 
L 3309 0 
L 1241 3903 
L 1241 0 
L 628 0 
L 628 4666 
z
" transform="scale(0.015625)"/>
        <path id="DejaVuSans-4f" d="M 2522 4238 
Q 1834 4238 1429 3725 
Q 1025 3213 1025 2328 
Q 1025 1447 1429 934 
Q 1834 422 2522 422 
Q 3209 422 3611 934 
Q 4013 1447 4013 2328 
Q 4013 3213 3611 3725 
Q 3209 4238 2522 4238 
z
M 2522 4750 
Q 3503 4750 4090 4092 
Q 4678 3434 4678 2328 
Q 4678 1225 4090 567 
Q 3503 -91 2522 -91 
Q 1538 -91 948 565 
Q 359 1222 359 2328 
Q 359 3434 948 4092 
Q 1538 4750 2522 4750 
z
" transform="scale(0.015625)"/>
        <path id="DejaVuSans-50" d="M 1259 4147 
L 1259 2394 
L 2053 2394 
Q 2494 2394 2734 2622 
Q 2975 2850 2975 3272 
Q 2975 3691 2734 3919 
Q 2494 4147 2053 4147 
L 1259 4147 
z
M 628 4666 
L 2053 4666 
Q 2838 4666 3239 4311 
Q 3641 3956 3641 3272 
Q 3641 2581 3239 2228 
Q 2838 1875 2053 1875 
L 1259 1875 
L 1259 0 
L 628 0 
L 628 4666 
z
" transform="scale(0.015625)"/>
       </defs>
       <use xlink:href="#DejaVuSans-4e"/>
       <use xlink:href="#DejaVuSans-41" x="74.804688"/>
       <use xlink:href="#DejaVuSans-54" x="135.462891"/>
       <use xlink:href="#DejaVuSans-4f" x="196.546875"/>
       <use xlink:href="#DejaVuSans-50" x="275.257812"/>
       <use xlink:href="#DejaVuSans-53" x="335.560547"/>
      </g>
     </g>
    </g>
    <g id="xtick_22">
     <g id="line2d_22">
      <g>
       <use xlink:href="#m8d80d18b11" x="640.081738" y="291.542101" style="stroke: #000000; stroke-width: 0.8"/>
      </g>
     </g>
     <g id="text_22">
      <!-- PEMS-SF -->
      <g transform="translate(608.182383 334.343801)rotate(-45)scale(0.1 -0.1)">
       <defs>
        <path id="DejaVuSans-2d" d="M 313 2009 
L 1997 2009 
L 1997 1497 
L 313 1497 
L 313 2009 
z
" transform="scale(0.015625)"/>
       </defs>
       <use xlink:href="#DejaVuSans-50"/>
       <use xlink:href="#DejaVuSans-45" x="60.302734"/>
       <use xlink:href="#DejaVuSans-4d" x="123.486328"/>
       <use xlink:href="#DejaVuSans-53" x="209.765625"/>
       <use xlink:href="#DejaVuSans-2d" x="273.242188"/>
       <use xlink:href="#DejaVuSans-53" x="309.326172"/>
       <use xlink:href="#DejaVuSans-46" x="372.802734"/>
      </g>
     </g>
    </g>
    <g id="xtick_23">
     <g id="line2d_23">
      <g>
       <use xlink:href="#m8d80d18b11" x="665.154475" y="291.542101" style="stroke: #000000; stroke-width: 0.8"/>
      </g>
     </g>
     <g id="text_23">
      <!-- PenDigits -->
      <g transform="translate(630.52613 337.072791)rotate(-45)scale(0.1 -0.1)">
       <use xlink:href="#DejaVuSans-50"/>
       <use xlink:href="#DejaVuSans-65" x="56.677734"/>
       <use xlink:href="#DejaVuSans-6e" x="118.201172"/>
       <use xlink:href="#DejaVuSans-44" x="181.580078"/>
       <use xlink:href="#DejaVuSans-69" x="258.582031"/>
       <use xlink:href="#DejaVuSans-67" x="286.365234"/>
       <use xlink:href="#DejaVuSans-69" x="349.841797"/>
       <use xlink:href="#DejaVuSans-74" x="377.625"/>
       <use xlink:href="#DejaVuSans-73" x="416.833984"/>
      </g>
     </g>
    </g>
    <g id="xtick_24">
     <g id="line2d_24">
      <g>
       <use xlink:href="#m8d80d18b11" x="690.227211" y="291.542101" style="stroke: #000000; stroke-width: 0.8"/>
      </g>
     </g>
     <g id="text_24">
      <!-- PhonemeSpectra -->
      <g transform="translate(628.385199 364.286459)rotate(-45)scale(0.1 -0.1)">
       <use xlink:href="#DejaVuSans-50"/>
       <use xlink:href="#DejaVuSans-68" x="60.302734"/>
       <use xlink:href="#DejaVuSans-6f" x="123.681641"/>
       <use xlink:href="#DejaVuSans-6e" x="184.863281"/>
       <use xlink:href="#DejaVuSans-65" x="248.242188"/>
       <use xlink:href="#DejaVuSans-6d" x="309.765625"/>
       <use xlink:href="#DejaVuSans-65" x="407.177734"/>
       <use xlink:href="#DejaVuSans-53" x="468.701172"/>
       <use xlink:href="#DejaVuSans-70" x="532.177734"/>
       <use xlink:href="#DejaVuSans-65" x="595.654297"/>
       <use xlink:href="#DejaVuSans-63" x="657.177734"/>
       <use xlink:href="#DejaVuSans-74" x="712.158203"/>
       <use xlink:href="#DejaVuSans-72" x="751.367188"/>
       <use xlink:href="#DejaVuSans-61" x="792.480469"/>
      </g>
     </g>
    </g>
    <g id="xtick_25">
     <g id="line2d_25">
      <g>
       <use xlink:href="#m8d80d18b11" x="715.299948" y="291.542101" style="stroke: #000000; stroke-width: 0.8"/>
      </g>
     </g>
     <g id="text_25">
      <!-- RacketSports -->
      <g transform="translate(667.225526 350.518869)rotate(-45)scale(0.1 -0.1)">
       <use xlink:href="#DejaVuSans-52"/>
       <use xlink:href="#DejaVuSans-61" x="67.232422"/>
       <use xlink:href="#DejaVuSans-63" x="128.511719"/>
       <use xlink:href="#DejaVuSans-6b" x="183.492188"/>
       <use xlink:href="#DejaVuSans-65" x="237.777344"/>
       <use xlink:href="#DejaVuSans-74" x="299.300781"/>
       <use xlink:href="#DejaVuSans-53" x="338.509766"/>
       <use xlink:href="#DejaVuSans-70" x="401.986328"/>
       <use xlink:href="#DejaVuSans-6f" x="465.462891"/>
       <use xlink:href="#DejaVuSans-72" x="526.644531"/>
       <use xlink:href="#DejaVuSans-74" x="567.757812"/>
       <use xlink:href="#DejaVuSans-73" x="606.966797"/>
      </g>
     </g>
    </g>
    <g id="xtick_26">
     <g id="line2d_26">
      <g>
       <use xlink:href="#m8d80d18b11" x="740.372685" y="291.542101" style="stroke: #000000; stroke-width: 0.8"/>
      </g>
     </g>
     <g id="text_26">
      <!-- SelfRegulationSCP1 -->
      <g transform="translate(669.660902 373.156229)rotate(-45)scale(0.1 -0.1)">
       <defs>
        <path id="DejaVuSans-66" d="M 2375 4863 
L 2375 4384 
L 1825 4384 
Q 1516 4384 1395 4259 
Q 1275 4134 1275 3809 
L 1275 3500 
L 2222 3500 
L 2222 3053 
L 1275 3053 
L 1275 0 
L 697 0 
L 697 3053 
L 147 3053 
L 147 3500 
L 697 3500 
L 697 3744 
Q 697 4328 969 4595 
Q 1241 4863 1831 4863 
L 2375 4863 
z
" transform="scale(0.015625)"/>
        <path id="DejaVuSans-31" d="M 794 531 
L 1825 531 
L 1825 4091 
L 703 3866 
L 703 4441 
L 1819 4666 
L 2450 4666 
L 2450 531 
L 3481 531 
L 3481 0 
L 794 0 
L 794 531 
z
" transform="scale(0.015625)"/>
       </defs>
       <use xlink:href="#DejaVuSans-53"/>
       <use xlink:href="#DejaVuSans-65" x="63.476562"/>
       <use xlink:href="#DejaVuSans-6c" x="125"/>
       <use xlink:href="#DejaVuSans-66" x="152.783203"/>
       <use xlink:href="#DejaVuSans-52" x="187.988281"/>
       <use xlink:href="#DejaVuSans-65" x="252.970703"/>
       <use xlink:href="#DejaVuSans-67" x="314.494141"/>
       <use xlink:href="#DejaVuSans-75" x="377.970703"/>
       <use xlink:href="#DejaVuSans-6c" x="441.349609"/>
       <use xlink:href="#DejaVuSans-61" x="469.132812"/>
       <use xlink:href="#DejaVuSans-74" x="530.412109"/>
       <use xlink:href="#DejaVuSans-69" x="569.621094"/>
       <use xlink:href="#DejaVuSans-6f" x="597.404297"/>
       <use xlink:href="#DejaVuSans-6e" x="658.585938"/>
       <use xlink:href="#DejaVuSans-53" x="721.964844"/>
       <use xlink:href="#DejaVuSans-43" x="785.441406"/>
       <use xlink:href="#DejaVuSans-50" x="855.265625"/>
       <use xlink:href="#DejaVuSans-31" x="915.568359"/>
      </g>
     </g>
    </g>
    <g id="xtick_27">
     <g id="line2d_27">
      <g>
       <use xlink:href="#m8d80d18b11" x="765.445422" y="291.542101" style="stroke: #000000; stroke-width: 0.8"/>
      </g>
     </g>
     <g id="text_27">
      <!-- SelfRegulationSCP2 -->
      <g transform="translate(694.733639 373.156229)rotate(-45)scale(0.1 -0.1)">
       <defs>
        <path id="DejaVuSans-32" d="M 1228 531 
L 3431 531 
L 3431 0 
L 469 0 
L 469 531 
Q 828 903 1448 1529 
Q 2069 2156 2228 2338 
Q 2531 2678 2651 2914 
Q 2772 3150 2772 3378 
Q 2772 3750 2511 3984 
Q 2250 4219 1831 4219 
Q 1534 4219 1204 4116 
Q 875 4013 500 3803 
L 500 4441 
Q 881 4594 1212 4672 
Q 1544 4750 1819 4750 
Q 2544 4750 2975 4387 
Q 3406 4025 3406 3419 
Q 3406 3131 3298 2873 
Q 3191 2616 2906 2266 
Q 2828 2175 2409 1742 
Q 1991 1309 1228 531 
z
" transform="scale(0.015625)"/>
       </defs>
       <use xlink:href="#DejaVuSans-53"/>
       <use xlink:href="#DejaVuSans-65" x="63.476562"/>
       <use xlink:href="#DejaVuSans-6c" x="125"/>
       <use xlink:href="#DejaVuSans-66" x="152.783203"/>
       <use xlink:href="#DejaVuSans-52" x="187.988281"/>
       <use xlink:href="#DejaVuSans-65" x="252.970703"/>
       <use xlink:href="#DejaVuSans-67" x="314.494141"/>
       <use xlink:href="#DejaVuSans-75" x="377.970703"/>
       <use xlink:href="#DejaVuSans-6c" x="441.349609"/>
       <use xlink:href="#DejaVuSans-61" x="469.132812"/>
       <use xlink:href="#DejaVuSans-74" x="530.412109"/>
       <use xlink:href="#DejaVuSans-69" x="569.621094"/>
       <use xlink:href="#DejaVuSans-6f" x="597.404297"/>
       <use xlink:href="#DejaVuSans-6e" x="658.585938"/>
       <use xlink:href="#DejaVuSans-53" x="721.964844"/>
       <use xlink:href="#DejaVuSans-43" x="785.441406"/>
       <use xlink:href="#DejaVuSans-50" x="855.265625"/>
       <use xlink:href="#DejaVuSans-32" x="915.568359"/>
      </g>
     </g>
    </g>
    <g id="xtick_28">
     <g id="line2d_28">
      <g>
       <use xlink:href="#m8d80d18b11" x="790.518158" y="291.542101" style="stroke: #000000; stroke-width: 0.8"/>
      </g>
     </g>
     <g id="text_28">
      <!-- SpokenArabicDigits -->
      <g transform="translate(720.335601 372.627004)rotate(-45)scale(0.1 -0.1)">
       <use xlink:href="#DejaVuSans-53"/>
       <use xlink:href="#DejaVuSans-70" x="63.476562"/>
       <use xlink:href="#DejaVuSans-6f" x="126.953125"/>
       <use xlink:href="#DejaVuSans-6b" x="188.134766"/>
       <use xlink:href="#DejaVuSans-65" x="242.419922"/>
       <use xlink:href="#DejaVuSans-6e" x="303.943359"/>
       <use xlink:href="#DejaVuSans-41" x="367.322266"/>
       <use xlink:href="#DejaVuSans-72" x="435.730469"/>
       <use xlink:href="#DejaVuSans-61" x="476.84375"/>
       <use xlink:href="#DejaVuSans-62" x="538.123047"/>
       <use xlink:href="#DejaVuSans-69" x="601.599609"/>
       <use xlink:href="#DejaVuSans-63" x="629.382812"/>
       <use xlink:href="#DejaVuSans-44" x="684.363281"/>
       <use xlink:href="#DejaVuSans-69" x="761.365234"/>
       <use xlink:href="#DejaVuSans-67" x="789.148438"/>
       <use xlink:href="#DejaVuSans-69" x="852.625"/>
       <use xlink:href="#DejaVuSans-74" x="880.408203"/>
       <use xlink:href="#DejaVuSans-73" x="919.617188"/>
      </g>
     </g>
    </g>
    <g id="xtick_29">
     <g id="line2d_29">
      <g>
       <use xlink:href="#m8d80d18b11" x="815.590895" y="291.542101" style="stroke: #000000; stroke-width: 0.8"/>
      </g>
     </g>
     <g id="text_29">
      <!-- StandWalkJump -->
      <g transform="translate(758.678743 359.356599)rotate(-45)scale(0.1 -0.1)">
       <use xlink:href="#DejaVuSans-53"/>
       <use xlink:href="#DejaVuSans-74" x="63.476562"/>
       <use xlink:href="#DejaVuSans-61" x="102.685547"/>
       <use xlink:href="#DejaVuSans-6e" x="163.964844"/>
       <use xlink:href="#DejaVuSans-64" x="227.34375"/>
       <use xlink:href="#DejaVuSans-57" x="290.820312"/>
       <use xlink:href="#DejaVuSans-61" x="383.322266"/>
       <use xlink:href="#DejaVuSans-6c" x="444.601562"/>
       <use xlink:href="#DejaVuSans-6b" x="472.384766"/>
       <use xlink:href="#DejaVuSans-4a" x="530.294922"/>
       <use xlink:href="#DejaVuSans-75" x="559.787109"/>
       <use xlink:href="#DejaVuSans-6d" x="623.166016"/>
       <use xlink:href="#DejaVuSans-70" x="720.578125"/>
      </g>
     </g>
    </g>
    <g id="xtick_30">
     <g id="line2d_30">
      <g>
       <use xlink:href="#m8d80d18b11" x="840.663632" y="291.542101" style="stroke: #000000; stroke-width: 0.8"/>
      </g>
     </g>
     <g id="text_30">
      <!-- UWaveGestureLibrary -->
      <g transform="translate(762.016785 381.091293)rotate(-45)scale(0.1 -0.1)">
       <defs>
        <path id="DejaVuSans-55" d="M 556 4666 
L 1191 4666 
L 1191 1831 
Q 1191 1081 1462 751 
Q 1734 422 2344 422 
Q 2950 422 3222 751 
Q 3494 1081 3494 1831 
L 3494 4666 
L 4128 4666 
L 4128 1753 
Q 4128 841 3676 375 
Q 3225 -91 2344 -91 
Q 1459 -91 1007 375 
Q 556 841 556 1753 
L 556 4666 
z
" transform="scale(0.015625)"/>
       </defs>
       <use xlink:href="#DejaVuSans-55"/>
       <use xlink:href="#DejaVuSans-57" x="73.193359"/>
       <use xlink:href="#DejaVuSans-61" x="165.695312"/>
       <use xlink:href="#DejaVuSans-76" x="226.974609"/>
       <use xlink:href="#DejaVuSans-65" x="286.154297"/>
       <use xlink:href="#DejaVuSans-47" x="347.677734"/>
       <use xlink:href="#DejaVuSans-65" x="425.167969"/>
       <use xlink:href="#DejaVuSans-73" x="486.691406"/>
       <use xlink:href="#DejaVuSans-74" x="538.791016"/>
       <use xlink:href="#DejaVuSans-75" x="578"/>
       <use xlink:href="#DejaVuSans-72" x="641.378906"/>
       <use xlink:href="#DejaVuSans-65" x="680.242188"/>
       <use xlink:href="#DejaVuSans-4c" x="741.765625"/>
       <use xlink:href="#DejaVuSans-69" x="797.478516"/>
       <use xlink:href="#DejaVuSans-62" x="825.261719"/>
       <use xlink:href="#DejaVuSans-72" x="888.738281"/>
       <use xlink:href="#DejaVuSans-61" x="929.851562"/>
       <use xlink:href="#DejaVuSans-72" x="991.130859"/>
       <use xlink:href="#DejaVuSans-79" x="1032.244141"/>
      </g>
     </g>
    </g>
    <g id="text_31">
     <!-- Dataset -->
     <g transform="translate(441.865512 417.116797)scale(0.18 -0.18)">
      <use xlink:href="#DejaVuSans-44"/>
      <use xlink:href="#DejaVuSans-61" x="77.001953"/>
      <use xlink:href="#DejaVuSans-74" x="138.28125"/>
      <use xlink:href="#DejaVuSans-61" x="177.490234"/>
      <use xlink:href="#DejaVuSans-73" x="238.769531"/>
      <use xlink:href="#DejaVuSans-65" x="290.869141"/>
      <use xlink:href="#DejaVuSans-74" x="352.392578"/>
     </g>
    </g>
   </g>
   <g id="matplotlib.axis_2">
    <g id="ytick_1">
     <g id="line2d_31">
      <defs>
       <path id="m71de6d1d5e" d="M 0 0 
L -3.5 0 
" style="stroke: #000000; stroke-width: 0.8"/>
      </defs>
      <g>
       <use xlink:href="#m71de6d1d5e" x="101.017899" y="291.542101" style="stroke: #000000; stroke-width: 0.8"/>
      </g>
     </g>
     <g id="text_32">
      <!-- 0.0 -->
      <g transform="translate(78.114774 295.34132)scale(0.1 -0.1)">
       <defs>
        <path id="DejaVuSans-30" d="M 2034 4250 
Q 1547 4250 1301 3770 
Q 1056 3291 1056 2328 
Q 1056 1369 1301 889 
Q 1547 409 2034 409 
Q 2525 409 2770 889 
Q 3016 1369 3016 2328 
Q 3016 3291 2770 3770 
Q 2525 4250 2034 4250 
z
M 2034 4750 
Q 2819 4750 3233 4129 
Q 3647 3509 3647 2328 
Q 3647 1150 3233 529 
Q 2819 -91 2034 -91 
Q 1250 -91 836 529 
Q 422 1150 422 2328 
Q 422 3509 836 4129 
Q 1250 4750 2034 4750 
z
" transform="scale(0.015625)"/>
        <path id="DejaVuSans-2e" d="M 684 794 
L 1344 794 
L 1344 0 
L 684 0 
L 684 794 
z
" transform="scale(0.015625)"/>
       </defs>
       <use xlink:href="#DejaVuSans-30"/>
       <use xlink:href="#DejaVuSans-2e" x="63.623047"/>
       <use xlink:href="#DejaVuSans-30" x="95.410156"/>
      </g>
     </g>
    </g>
    <g id="ytick_2">
     <g id="line2d_32">
      <g>
       <use xlink:href="#m71de6d1d5e" x="101.017899" y="254.052081" style="stroke: #000000; stroke-width: 0.8"/>
      </g>
     </g>
     <g id="text_33">
      <!-- 0.2 -->
      <g transform="translate(78.114774 257.851299)scale(0.1 -0.1)">
       <use xlink:href="#DejaVuSans-30"/>
       <use xlink:href="#DejaVuSans-2e" x="63.623047"/>
       <use xlink:href="#DejaVuSans-32" x="95.410156"/>
      </g>
     </g>
    </g>
    <g id="ytick_3">
     <g id="line2d_33">
      <g>
       <use xlink:href="#m71de6d1d5e" x="101.017899" y="216.56206" style="stroke: #000000; stroke-width: 0.8"/>
      </g>
     </g>
     <g id="text_34">
      <!-- 0.4 -->
      <g transform="translate(78.114774 220.361279)scale(0.1 -0.1)">
       <defs>
        <path id="DejaVuSans-34" d="M 2419 4116 
L 825 1625 
L 2419 1625 
L 2419 4116 
z
M 2253 4666 
L 3047 4666 
L 3047 1625 
L 3713 1625 
L 3713 1100 
L 3047 1100 
L 3047 0 
L 2419 0 
L 2419 1100 
L 313 1100 
L 313 1709 
L 2253 4666 
z
" transform="scale(0.015625)"/>
       </defs>
       <use xlink:href="#DejaVuSans-30"/>
       <use xlink:href="#DejaVuSans-2e" x="63.623047"/>
       <use xlink:href="#DejaVuSans-34" x="95.410156"/>
      </g>
     </g>
    </g>
    <g id="ytick_4">
     <g id="line2d_34">
      <g>
       <use xlink:href="#m71de6d1d5e" x="101.017899" y="179.07204" style="stroke: #000000; stroke-width: 0.8"/>
      </g>
     </g>
     <g id="text_35">
      <!-- 0.6 -->
      <g transform="translate(78.114774 182.871259)scale(0.1 -0.1)">
       <defs>
        <path id="DejaVuSans-36" d="M 2113 2584 
Q 1688 2584 1439 2293 
Q 1191 2003 1191 1497 
Q 1191 994 1439 701 
Q 1688 409 2113 409 
Q 2538 409 2786 701 
Q 3034 994 3034 1497 
Q 3034 2003 2786 2293 
Q 2538 2584 2113 2584 
z
M 3366 4563 
L 3366 3988 
Q 3128 4100 2886 4159 
Q 2644 4219 2406 4219 
Q 1781 4219 1451 3797 
Q 1122 3375 1075 2522 
Q 1259 2794 1537 2939 
Q 1816 3084 2150 3084 
Q 2853 3084 3261 2657 
Q 3669 2231 3669 1497 
Q 3669 778 3244 343 
Q 2819 -91 2113 -91 
Q 1303 -91 875 529 
Q 447 1150 447 2328 
Q 447 3434 972 4092 
Q 1497 4750 2381 4750 
Q 2619 4750 2861 4703 
Q 3103 4656 3366 4563 
z
" transform="scale(0.015625)"/>
       </defs>
       <use xlink:href="#DejaVuSans-30"/>
       <use xlink:href="#DejaVuSans-2e" x="63.623047"/>
       <use xlink:href="#DejaVuSans-36" x="95.410156"/>
      </g>
     </g>
    </g>
    <g id="ytick_5">
     <g id="line2d_35">
      <g>
       <use xlink:href="#m71de6d1d5e" x="101.017899" y="141.58202" style="stroke: #000000; stroke-width: 0.8"/>
      </g>
     </g>
     <g id="text_36">
      <!-- 0.8 -->
      <g transform="translate(78.114774 145.381239)scale(0.1 -0.1)">
       <defs>
        <path id="DejaVuSans-38" d="M 2034 2216 
Q 1584 2216 1326 1975 
Q 1069 1734 1069 1313 
Q 1069 891 1326 650 
Q 1584 409 2034 409 
Q 2484 409 2743 651 
Q 3003 894 3003 1313 
Q 3003 1734 2745 1975 
Q 2488 2216 2034 2216 
z
M 1403 2484 
Q 997 2584 770 2862 
Q 544 3141 544 3541 
Q 544 4100 942 4425 
Q 1341 4750 2034 4750 
Q 2731 4750 3128 4425 
Q 3525 4100 3525 3541 
Q 3525 3141 3298 2862 
Q 3072 2584 2669 2484 
Q 3125 2378 3379 2068 
Q 3634 1759 3634 1313 
Q 3634 634 3220 271 
Q 2806 -91 2034 -91 
Q 1263 -91 848 271 
Q 434 634 434 1313 
Q 434 1759 690 2068 
Q 947 2378 1403 2484 
z
M 1172 3481 
Q 1172 3119 1398 2916 
Q 1625 2713 2034 2713 
Q 2441 2713 2670 2916 
Q 2900 3119 2900 3481 
Q 2900 3844 2670 4047 
Q 2441 4250 2034 4250 
Q 1625 4250 1398 4047 
Q 1172 3844 1172 3481 
z
" transform="scale(0.015625)"/>
       </defs>
       <use xlink:href="#DejaVuSans-30"/>
       <use xlink:href="#DejaVuSans-2e" x="63.623047"/>
       <use xlink:href="#DejaVuSans-38" x="95.410156"/>
      </g>
     </g>
    </g>
    <g id="ytick_6">
     <g id="line2d_36">
      <g>
       <use xlink:href="#m71de6d1d5e" x="101.017899" y="104.092" style="stroke: #000000; stroke-width: 0.8"/>
      </g>
     </g>
     <g id="text_37">
      <!-- 1.0 -->
      <g transform="translate(78.114774 107.891219)scale(0.1 -0.1)">
       <use xlink:href="#DejaVuSans-31"/>
       <use xlink:href="#DejaVuSans-2e" x="63.623047"/>
       <use xlink:href="#DejaVuSans-30" x="95.410156"/>
      </g>
     </g>
    </g>
    <g id="text_38">
     <!-- Accuracy -->
     <g transform="translate(70.371337 238.907675)rotate(-90)scale(0.18 -0.18)">
      <use xlink:href="#DejaVuSans-41"/>
      <use xlink:href="#DejaVuSans-63" x="66.658203"/>
      <use xlink:href="#DejaVuSans-63" x="121.638672"/>
      <use xlink:href="#DejaVuSans-75" x="176.619141"/>
      <use xlink:href="#DejaVuSans-72" x="239.998047"/>
      <use xlink:href="#DejaVuSans-61" x="281.111328"/>
      <use xlink:href="#DejaVuSans-63" x="342.390625"/>
      <use xlink:href="#DejaVuSans-79" x="397.371094"/>
     </g>
    </g>
   </g>
   <g id="patch_123">
    <path d="M 101.017899 291.542101 
L 101.017899 104.092 
" style="fill: none; stroke: #000000; stroke-width: 0.8; stroke-linejoin: miter; stroke-linecap: square"/>
   </g>
   <g id="patch_124">
    <path d="M 853.2 291.542101 
L 853.2 104.092 
" style="fill: none; stroke: #000000; stroke-width: 0.8; stroke-linejoin: miter; stroke-linecap: square"/>
   </g>
   <g id="patch_125">
    <path d="M 101.017899 291.542101 
L 853.2 291.542101 
" style="fill: none; stroke: #000000; stroke-width: 0.8; stroke-linejoin: miter; stroke-linecap: square"/>
   </g>
   <g id="patch_126">
    <path d="M 101.017899 104.092 
L 853.2 104.092 
" style="fill: none; stroke: #000000; stroke-width: 0.8; stroke-linejoin: miter; stroke-linecap: square"/>
   </g>
   <g id="legend_1">
    <g id="patch_127">
     <path d="M 239.304418 97.387907 
L 714.913481 97.387907 
Q 717.513481 97.387907 717.513481 94.787907 
L 717.513481 56.95697 
Q 717.513481 54.35697 714.913481 54.35697 
L 239.304418 54.35697 
Q 236.704418 54.35697 236.704418 56.95697 
L 236.704418 94.787907 
Q 236.704418 97.387907 239.304418 97.387907 
z
" style="fill: #ffffff; opacity: 0.8; stroke: #cccccc; stroke-linejoin: miter"/>
    </g>
    <g id="text_39">
     <!-- Method -->
     <g transform="translate(450.854575 70.194782)scale(0.14 -0.14)">
      <use xlink:href="#DejaVuSans-4d"/>
      <use xlink:href="#DejaVuSans-65" x="86.279297"/>
      <use xlink:href="#DejaVuSans-74" x="147.802734"/>
      <use xlink:href="#DejaVuSans-68" x="187.011719"/>
      <use xlink:href="#DejaVuSans-6f" x="250.390625"/>
      <use xlink:href="#DejaVuSans-64" x="311.572266"/>
     </g>
    </g>
    <g id="patch_128">
     <path d="M 241.904418 89.484314 
L 267.904418 89.484314 
L 267.904418 80.384314 
L 241.904418 80.384314 
z
" style="fill: #1f77b4"/>
    </g>
    <g id="text_40">
     <!-- GRSA -->
     <g transform="translate(278.304418 89.484314)scale(0.13 -0.13)">
      <use xlink:href="#DejaVuSans-47"/>
      <use xlink:href="#DejaVuSans-52" x="77.490234"/>
      <use xlink:href="#DejaVuSans-53" x="146.972656"/>
      <use xlink:href="#DejaVuSans-41" x="212.324219"/>
     </g>
    </g>
    <g id="patch_129">
     <path d="M 340.799887 89.484314 
L 366.799887 89.484314 
L 366.799887 80.384314 
L 340.799887 80.384314 
z
" style="fill: #ff7f0e"/>
    </g>
    <g id="text_41">
     <!-- Regression -->
     <g transform="translate(377.199887 89.484314)scale(0.13 -0.13)">
      <use xlink:href="#DejaVuSans-52"/>
      <use xlink:href="#DejaVuSans-65" x="64.982422"/>
      <use xlink:href="#DejaVuSans-67" x="126.505859"/>
      <use xlink:href="#DejaVuSans-72" x="189.982422"/>
      <use xlink:href="#DejaVuSans-65" x="228.845703"/>
      <use xlink:href="#DejaVuSans-73" x="290.369141"/>
      <use xlink:href="#DejaVuSans-73" x="342.46875"/>
      <use xlink:href="#DejaVuSans-69" x="394.568359"/>
      <use xlink:href="#DejaVuSans-6f" x="422.351562"/>
      <use xlink:href="#DejaVuSans-6e" x="483.533203"/>
     </g>
    </g>
    <g id="patch_130">
     <path d="M 474.299731 89.484314 
L 500.299731 89.484314 
L 500.299731 80.384314 
L 474.299731 80.384314 
z
" style="fill: #2ca02c"/>
    </g>
    <g id="text_42">
     <!-- SVM(linear) -->
     <g transform="translate(510.699731 89.484314)scale(0.13 -0.13)">
      <defs>
       <path id="DejaVuSans-28" d="M 1984 4856 
Q 1566 4138 1362 3434 
Q 1159 2731 1159 2009 
Q 1159 1288 1364 580 
Q 1569 -128 1984 -844 
L 1484 -844 
Q 1016 -109 783 600 
Q 550 1309 550 2009 
Q 550 2706 781 3412 
Q 1013 4119 1484 4856 
L 1984 4856 
z
" transform="scale(0.015625)"/>
       <path id="DejaVuSans-29" d="M 513 4856 
L 1013 4856 
Q 1481 4119 1714 3412 
Q 1947 2706 1947 2009 
Q 1947 1309 1714 600 
Q 1481 -109 1013 -844 
L 513 -844 
Q 928 -128 1133 580 
Q 1338 1288 1338 2009 
Q 1338 2731 1133 3434 
Q 928 4138 513 4856 
z
" transform="scale(0.015625)"/>
      </defs>
      <use xlink:href="#DejaVuSans-53"/>
      <use xlink:href="#DejaVuSans-56" x="63.476562"/>
      <use xlink:href="#DejaVuSans-4d" x="131.884766"/>
      <use xlink:href="#DejaVuSans-28" x="218.164062"/>
      <use xlink:href="#DejaVuSans-6c" x="257.177734"/>
      <use xlink:href="#DejaVuSans-69" x="284.960938"/>
      <use xlink:href="#DejaVuSans-6e" x="312.744141"/>
      <use xlink:href="#DejaVuSans-65" x="376.123047"/>
      <use xlink:href="#DejaVuSans-61" x="437.646484"/>
      <use xlink:href="#DejaVuSans-72" x="498.925781"/>
      <use xlink:href="#DejaVuSans-29" x="540.039062"/>
     </g>
    </g>
    <g id="patch_131">
     <path d="M 611.977856 89.484314 
L 637.977856 89.484314 
L 637.977856 80.384314 
L 611.977856 80.384314 
z
" style="fill: #d62728"/>
    </g>
    <g id="text_43">
     <!-- SVM(RBF) -->
     <g transform="translate(648.377856 89.484314)scale(0.13 -0.13)">
      <use xlink:href="#DejaVuSans-53"/>
      <use xlink:href="#DejaVuSans-56" x="63.476562"/>
      <use xlink:href="#DejaVuSans-4d" x="131.884766"/>
      <use xlink:href="#DejaVuSans-28" x="218.164062"/>
      <use xlink:href="#DejaVuSans-52" x="257.177734"/>
      <use xlink:href="#DejaVuSans-42" x="326.660156"/>
      <use xlink:href="#DejaVuSans-46" x="395.263672"/>
      <use xlink:href="#DejaVuSans-29" x="452.783203"/>
     </g>
    </g>
   </g>
  </g>
 </g>
 <defs>
  <clipPath id="pc764328311">
   <rect x="101.017899" y="104.092" width="752.182101" height="187.450101"/>
  </clipPath>
 </defs>
</svg>
