<?xml version="1.0" encoding="UTF-8" standalone="no"?>
<svg
   width="464.20218pt"
   height="373.31812pt"
   viewBox="0 0 464.20218 373.31812"
   version="1.1"
   id="svg412"
   sodipodi:docname="case_study_Epilepsy_task120.svg"
   inkscape:version="1.1.2 (b8e25be833, 2022-02-05)"
   xmlns:inkscape="http://www.inkscape.org/namespaces/inkscape"
   xmlns:sodipodi="http://sodipodi.sourceforge.net/DTD/sodipodi-0.dtd"
   xmlns:xlink="http://www.w3.org/1999/xlink"
   xmlns="http://www.w3.org/2000/svg"
   xmlns:svg="http://www.w3.org/2000/svg"
   xmlns:rdf="http://www.w3.org/1999/02/22-rdf-syntax-ns#"
   xmlns:cc="http://creativecommons.org/ns#"
   xmlns:dc="http://purl.org/dc/elements/1.1/">
  <sodipodi:namedview
     id="namedview414"
     pagecolor="#ffffff"
     bordercolor="#666666"
     borderopacity="1.0"
     inkscape:pageshadow="2"
     inkscape:pageopacity="0.0"
     inkscape:pagecheckerboard="0"
     inkscape:document-units="pt"
     showgrid="false"
     inkscape:zoom="1.3368056"
     inkscape:cx="311.56364"
     inkscape:cy="246.85714"
     inkscape:window-width="1920"
     inkscape:window-height="974"
     inkscape:window-x="-11"
     inkscape:window-y="-11"
     inkscape:window-maximized="1"
     inkscape:current-layer="svg412"
     fit-margin-top="0"
     fit-margin-left="0"
     fit-margin-right="0"
     fit-margin-bottom="0" />
  <metadata
     id="metadata2">
    <rdf:RDF>
      <cc:Work>
        <dc:type
           rdf:resource="http://purl.org/dc/dcmitype/StillImage" />
        <dc:date>2025-02-06T19:44:41.901242</dc:date>
        <dc:format>image/svg+xml</dc:format>
        <dc:creator>
          <cc:Agent>
            <dc:title>Matplotlib v3.5.1, https://matplotlib.org/</dc:title>
          </cc:Agent>
        </dc:creator>
      </cc:Work>
    </rdf:RDF>
  </metadata>
  <defs
     id="defs6">
    <style
       type="text/css"
       id="style4">*{stroke-linejoin: round; stroke-linecap: butt}</style>
  </defs>
  <g
     id="figure_1"
     transform="translate(-54.697812,-30.643125)">
    <g
       id="patch_1" />
    <g
       id="axes_1">
      <g
         id="patch_2">
        <path
           d="M 72,109.19172 H 518.4 V 51.84 H 72 Z"
           style="fill:none"
           id="path11" />
      </g>
      <g
         id="matplotlib.axis_1">
        <g
           id="xtick_1" />
        <g
           id="xtick_2" />
        <g
           id="xtick_3" />
        <g
           id="xtick_4" />
        <g
           id="xtick_5" />
      </g>
      <g
         id="matplotlib.axis_2">
        <g
           id="ytick_1" />
        <g
           id="ytick_2" />
        <g
           id="text_1">
          <!-- Input -->
          <g
             transform="matrix(0,-0.14,-0.14,0,65.088437,98.641487)"
             id="g39">
            <defs
               id="defs27">
              <path
                 id="DejaVuSans-49"
                 d="m 628,4666 h 631 V 0 H 628 Z"
                 transform="scale(0.015625)" />
              <path
                 id="DejaVuSans-6e"
                 d="M 3513,2113 V 0 h -575 v 2094 q 0,497 -194,743 -194,247 -581,247 -466,0 -735,-297 -269,-296 -269,-809 V 0 H 581 v 3500 h 578 v -544 q 207,316 486,472 280,156 646,156 603,0 912,-373 310,-373 310,-1098 z"
                 transform="scale(0.015625)" />
              <path
                 id="DejaVuSans-70"
                 d="M 1159,525 V -1331 H 581 v 4831 h 578 v -531 q 182,312 458,463 277,152 661,152 638,0 1036,-506 399,-506 399,-1331 0,-825 -399,-1332 -398,-506 -1036,-506 -384,0 -661,152 -276,152 -458,464 z m 1957,1222 q 0,634 -261,995 -261,361 -717,361 -457,0 -718,-361 -261,-361 -261,-995 0,-634 261,-995 261,-361 718,-361 456,0 717,361 261,361 261,995 z"
                 transform="scale(0.015625)" />
              <path
                 id="DejaVuSans-75"
                 d="m 544,1381 v 2119 h 575 V 1403 q 0,-497 193,-746 194,-248 582,-248 465,0 735,297 271,297 271,810 v 1984 h 575 V 0 H 2900 V 538 Q 2691,219 2414,64 2138,-91 1772,-91 1169,-91 856,284 544,659 544,1381 Z m 1447,2203 z"
                 transform="scale(0.015625)" />
              <path
                 id="DejaVuSans-74"
                 d="M 1172,4494 V 3500 H 2356 V 3053 H 1172 V 1153 q 0,-428 117,-550 117,-122 477,-122 h 590 V 0 H 1766 Q 1100,0 847,248 594,497 594,1153 V 3053 H 172 v 447 h 422 v 994 z"
                 transform="scale(0.015625)" />
            </defs>
            <use
               xlink:href="#DejaVuSans-49"
               id="use29"
               x="0"
               y="0"
               width="100%"
               height="100%" />
            <use
               xlink:href="#DejaVuSans-6e"
               x="29.492188"
               id="use31"
               y="0"
               width="100%"
               height="100%" />
            <use
               xlink:href="#DejaVuSans-70"
               x="92.871094"
               id="use33"
               y="0"
               width="100%"
               height="100%" />
            <use
               xlink:href="#DejaVuSans-75"
               x="156.34766"
               id="use35"
               y="0"
               width="100%"
               height="100%" />
            <use
               xlink:href="#DejaVuSans-74"
               x="219.72656"
               id="use37"
               y="0"
               width="100%"
               height="100%" />
          </g>
        </g>
      </g>
      <g
         id="line2d_1">
        <path
           d="m 92.290909,98.586395 1.979601,-11.84953 1.979601,-20.736677 1.979601,-11.257053 1.979598,3.25862 3.9592,45.324455 1.97961,-7.702197 1.9796,-9.479624 1.9796,-21.032916 1.9796,-10.664576 1.9796,3.554858 3.9592,48.583075 1.9796,-11.553294 1.9796,-13.330721 1.9796,-22.514107 1.9796,-2.962382 1.97961,10.960815 1.9796,26.661442 1.9796,2.369906 1.9796,-5.924765 3.9592,-32.586207 1.9796,0.888715 1.9796,17.478056 1.9796,28.142632 1.9796,-8.590907 1.9796,-12.145768 1.9796,-20.144201 1.97961,-7.405956 1.9796,7.998432 1.9796,27.550157 1.9796,10.072103 1.9796,-9.479626 1.9796,-13.923198 1.9796,-17.478056 1.9796,-4.443574 1.9796,6.221003 1.9796,30.512539 1.9796,10.368342 1.9796,-10.072103 1.97961,-16.589342 1.9796,-18.070533 1.9796,-3.258621 1.9796,10.664577 1.9796,28.438872 1.9796,7.10972 1.9796,-7.998435 1.9796,-15.108151 1.9796,-18.959247 1.9796,-4.147336 1.9796,10.368339 1.97961,27.846395 1.9796,7.998435 1.9796,-7.998435 1.9796,-13.923198 1.9796,-19.255486 1.9796,-4.443573 1.9796,6.813479 1.9796,26.365204 1.9796,13.923199 1.9796,-8.59091 1.9796,-12.738245 1.97961,-19.255486 1.9796,-7.702194 1.9796,5.332288 1.9796,29.031348 1.9796,13.626959 1.9796,-9.183385 1.9796,-10.960815 1.9796,-19.551724 1.9796,-7.109718 1.9796,4.739812 1.9796,27.253918 1.97961,14.811912 1.9796,-9.479623 1.9796,-10.072101 1.9796,-20.736677 1.9796,-6.813479 1.9796,10.664576 1.9796,25.772728 1.9796,8.294666 1.9796,-9.183381 1.9796,-11.257053 1.9796,-17.774295 1.9796,-0.888715 1.97961,5.924765 1.9796,21.032915 1.9796,15.404394 1.9796,-10.96082 1.9796,-11.84953 1.9796,-19.255486 1.9796,-4.443573 1.9796,13.034483 1.9796,29.327586 1.9796,-2.962383 1.9796,-5.924765 3.95921,-31.401254 1.9796,1.77743 1.9796,9.479624 1.9796,29.327586 1.9796,-0.296238 1.9796,-9.479624 1.9796,-18.366771 1.9796,-13.923198 h 1.9796 l 1.9796,21.92163 1.97961,25.772723 1.9796,-9.183381 1.9796,-11.257053 1.9796,-19.551724 1.9796,-8.887148 1.9796,5.332289 1.9796,27.846395 1.9796,11.849532 1.9796,-8.294673 1.9796,-11.553292 1.9796,-19.255486 1.97961,-6.221003 1.9796,10.664577 1.9796,23.402821 1.9796,9.479624 1.9796,-7.109718 1.9796,-14.219436 1.9796,-17.478056 1.9796,-3.851097 1.9796,14.515674 1.9796,27.846395 1.9796,-3.554859 1.9796,-7.702195 1.97961,-17.181818 1.9796,-12.442006 1.9796,1.777429 1.9796,16.293104 1.9796,24.587775 1.9796,-5.924766 1.9796,-7.405956 1.9796,-16.88558 1.9796,-13.923197 1.9796,4.147335 1.9796,13.626959 1.97961,27.253915 1.9796,-6.517237 1.9796,-8.294671 1.9796,-16.293104 1.9796,-14.219435 1.9796,3.851097 1.9796,17.478056 1.9796,24.291534 1.9796,-7.405954 1.9796,-10.960815 1.9796,-17.774295 1.97961,-9.479623 1.9796,5.628526 1.9796,22.217868 1.9796,16.885583 1.9796,-7.10972 1.9796,-11.553292 1.9796,-15.10815 1.9796,-11.257054 1.9796,1.481191 1.9796,24.587775 1.9796,22.81034 3.95921,-21.032911 1.9796,-18.959247 1.9796,-8.887148 1.9796,4.147336 1.9796,22.810345 1.9796,18.070535 1.9796,-7.10972 1.9796,-13.62696 1.9796,-18.070533 1.9796,-5.628526 1.97961,6.813479 1.9796,31.697493 1.9796,4.147335 1.9796,-8.294671 1.9796,-18.366771 1.9796,-16.293103 1.9796,-0.296239 1.9796,17.478057 1.9796,26.365199 1.9796,-1.184949 1.9796,-7.702194 3.95921,-35.548589 1.9796,0.888715 1.9796,16.589341 1.9796,28.735106 1.9796,-6.517237 1.9796,-7.702195 1.9796,-17.478056 1.9796,-12.145768 1.9796,2.073667 1.9796,14.515674 1.97961,27.253915 1.9796,-5.628523 1.9796,-9.479624 1.9796,-20.736677 1.9796,-9.183385 1.9796,4.443573 1.9796,21.032916 1.9796,18.36677 v 0"
           clip-path="url(#p3d33e3fc61)"
           style="fill:none;stroke:#1f77b4;stroke-width:1.5;stroke-linecap:square"
           id="path43" />
      </g>
      <g
         id="line2d_2">
        <path
           d="m 92.290909,67.777618 1.979601,-2.073668 1.979601,-0.296238 1.979601,6.813479 1.979598,4.739812 1.9796,-0.592476 1.9796,-4.147336 1.97961,-2.369906 1.9796,-6.517241 1.9796,3.258621 1.9796,6.221003 3.9592,3.554859 1.9796,-5.332289 1.9796,-3.25862 1.9796,-4.147336 1.9796,4.739812 1.9796,3.554859 1.97961,2.073668 h 1.9796 l 1.9796,-3.554859 1.9796,-1.481191 1.9796,-5.924765 1.9796,6.517241 1.9796,3.851097 1.9796,-1.184953 1.9796,1.77743 1.9796,-3.851097 1.9796,-0.296239 1.9796,-6.221003 1.97961,3.851097 1.9796,4.739812 1.9796,3.554859 1.9796,-5.03605 1.9796,-1.184953 1.9796,-2.666144 1.9796,-5.924765 1.9796,9.479624 1.9796,5.628526 1.9796,-3.25862 1.9796,-1.481192 1.9796,-4.443573 1.97961,1.777429 1.9796,-6.517241 1.9796,5.628527 1.9796,8.29467 1.9796,-1.777429 1.9796,-4.147335 1.9796,-2.666145 1.9796,-5.924765 1.9796,4.739812 1.9796,6.221003 1.9796,1.481192 1.97961,-1.77743 1.9796,-4.147335 1.9796,0.592476 1.9796,-6.517241 1.9796,5.628527 1.9796,3.851097 1.9796,0.888714 1.9796,-2.962382 1.9796,1.184953 1.9796,-6.221003 1.9796,0.296238 1.97961,4.443574 1.9796,5.628526 1.9796,-1.481191 1.9796,-3.25862 1.9796,-1.77743 3.9592,-4.739812 1.9796,6.81348 1.9796,3.851097 1.9796,-2.073668 1.9796,-1.184953 1.97961,-2.369906 1.9796,-3.851097 1.9796,-2.073668 1.9796,7.405957 1.9796,4.739811 1.9796,1.77743 1.9796,-4.147336 1.9796,-4.739811 1.9796,-5.036051 1.9796,0.592477 1.9796,8.887147 1.9796,3.258621 1.97961,-2.666144 1.9796,-5.03605 1.9796,0.296238 1.9796,-3.851097 h 1.9796 l 1.9796,7.702194 1.9796,2.369906 1.9796,-2.666144 1.9796,-3.851097 1.9796,1.481191 1.9796,-4.739812 1.97961,-0.888715 1.9796,7.109718 1.9796,2.666144 h 1.9796 l 1.9796,-4.443573 1.9796,-2.073668 1.9796,-1.184953 1.9796,-1.481191 1.9796,6.517241 1.9796,0.888715 3.95921,-1.184953 1.9796,-1.77743 1.9796,-5.332288 1.9796,-0.888715 1.9796,6.221003 1.9796,4.147336 1.9796,1.184953 1.9796,-3.554859 3.9592,-8.887148 1.9796,-0.888714 1.97961,9.775862 1.9796,3.851097 1.9796,-3.258621 1.9796,-1.184953 1.9796,-1.481191 1.9796,-7.998433 3.9592,10.368339 1.9796,1.777429 1.9796,0.296239 1.9796,-5.924765 1.9796,1.481191 1.97961,-8.887147 1.9796,6.221003 1.9796,7.998432 1.9796,0.888715 1.9796,-5.628526 1.9796,-1.184953 1.9796,-1.77743 1.9796,-3.554859 3.9592,12.145768 1.9796,-3.258621 1.97961,-1.481191 1.9796,-2.073667 1.9796,-2.666145 1.9796,-2.369906 1.9796,7.702195 3.9592,2.369906 1.9796,-1.481192 1.9796,-2.962382 1.9796,-5.628527 1.9796,1.184953 1.97961,8.294671 1.9796,2.073668 1.9796,-3.258621 1.9796,-0.296238 1.9796,-2.369906 1.9796,-5.332288 1.9796,3.554859 1.9796,6.221003 h 1.9796 l 1.9796,-1.481192 1.9796,-2.369905 1.9796,-0.888715 1.97961,-5.332289 1.9796,4.739812 1.9796,6.517242 1.9796,-2.369906 1.9796,3.25862 1.9796,-5.628526 1.9796,1.481191 1.9796,-8.590909 1.9796,4.739812 1.9796,5.628526 1.97961,0.592477 1.9796,2.666144 1.9796,-7.702194 1.9796,-1.77743 1.9796,-2.369906 1.9796,3.851098 1.9796,5.924764 1.9796,2.369906 1.9796,-3.554859 1.9796,-3.851097 1.9796,-4.739812 1.9796,1.184953 3.95921,5.332289 1.9796,2.962382 1.9796,-2.073668 1.9796,-0.592476 1.9796,-6.517241 1.9796,-1.481192 1.9796,5.628527 1.9796,4.443574 1.9796,1.481191 1.97961,-4.443574 1.9796,-1.481191 1.9796,-3.851097 1.9796,1.481191 1.9796,4.147336 1.9796,3.554858 1.9796,0.592477 1.9796,-3.851097 v 0"
           clip-path="url(#p3d33e3fc61)"
           style="fill:none;stroke:#ff7f0e;stroke-width:1.5;stroke-linecap:square"
           id="path46" />
      </g>
      <g
         id="line2d_3">
        <path
           d="m 92.290909,57.409279 h 11.877601 l 3.95921,5.332288 1.9796,4.443574 1.9796,3.554859 1.9796,-3.851097 1.9796,-2.369906 1.9796,-2.073668 1.9796,7.998433 1.9796,10.368338 1.9796,4.147336 3.95921,-2.369906 1.9796,-4.147336 1.9796,6.81348 1.9796,1.184953 1.9796,-4.443574 1.9796,-8.294671 1.9796,-2.666144 1.9796,3.554859 1.9796,8.294671 1.9796,8.887147 h 1.9796 l 1.9796,-11.553291 1.97961,-8.294671 1.9796,-13.330721 1.9796,9.183386 1.9796,13.626959 1.9796,16.293103 1.9796,-2.073667 1.9796,-16.88558 1.9796,-13.923198 1.9796,-6.81348 3.9592,35.844828 1.9796,0.592477 1.97961,-11.553292 1.9796,-9.183386 1.9796,-4.147335 1.9796,-1.184953 1.9796,14.219436 1.9796,10.0721 1.9796,-3.554859 1.9796,-8.590909 1.9796,-13.923197 1.9796,-4.739812 1.9796,13.923197 1.97961,20.144201 h 1.9796 l 1.9796,-13.330721 1.9796,-16.293104 1.9796,-7.405956 1.9796,14.811912 3.9592,25.180251 1.9796,-10.960815 1.9796,-11.84953 1.9796,-16.293103 1.97961,4.147335 3.9592,34.067398 1.9796,-5.03605 1.9796,-11.849529 1.9796,-14.811913 1.9796,-8.294671 1.9796,18.66301 1.9796,16.88558 1.9796,-0.592477 1.9796,-7.998432 1.97961,-12.442007 1.9796,-16.293103 1.9796,16.88558 1.9796,13.034483 1.9796,9.183385 1.9796,-7.109718 1.9796,-9.775862 1.9796,-10.368338 1.9796,-7.405956 3.9592,35.252351 1.9796,-2.369906 1.97961,-10.664577 1.9796,-11.84953 1.9796,-13.034483 1.9796,11.84953 1.9796,15.700627 1.9796,10.368339 1.9796,-7.998433 1.9796,-11.553291 1.9796,-9.775862 1.9796,-5.924765 1.9796,14.811912 1.97961,23.106583 1.9796,-2.962382 1.9796,-13.923198 1.9796,-10.0721 1.9796,-14.811912 1.9796,9.183385 1.9796,20.440439 1.9796,11.257053 1.9796,-7.405956 3.9592,-22.514106 1.97961,-10.368339 1.9796,18.070533 1.9796,12.442006 1.9796,6.81348 1.9796,-10.960815 1.9796,-7.702195 1.9796,-9.775862 1.9796,-2.369906 3.9592,25.180251 1.9796,3.554859 1.97961,-10.664577 1.9796,-9.479624 1.9796,-13.330721 1.9796,7.405957 1.9796,13.034482 1.9796,15.700627 1.9796,-5.332288 1.9796,-10.368339 1.9796,-5.924765 1.9796,-15.700627 1.9796,9.479624 3.95921,30.216301 1.9796,-5.03605 1.9796,-13.330721 1.9796,-8.294671 1.9796,-11.84953 1.9796,11.257054 1.9796,9.479624 1.9796,15.10815 1.9796,-5.628527 1.9796,-8.887147 1.9796,-12.442006 1.97961,-10.960815 1.9796,15.10815 1.9796,10.664577 1.9796,16.88558 1.9796,-7.702194 1.9796,-12.738245 1.9796,-15.996865 1.9796,-5.628527 1.9796,17.774295 1.9796,12.738244 1.9796,7.405957 1.97961,-10.960816 1.9796,-6.221003 1.9796,-10.368338 1.9796,-8.590909 3.9592,31.99373 1.9796,1.77743 1.9796,-9.775862 1.9796,-7.109718 1.9796,-14.515674 1.9796,7.109718 1.9796,10.664576 1.97961,12.145768 h 1.9796 l 1.9796,-10.368338 1.9796,-13.923198 1.9796,-8.294671 1.9796,16.293104 1.9796,12.442006 1.9796,6.81348 1.9796,-9.183386 1.9796,-11.553291 1.97961,-4.739812 1.9796,-6.517242 1.9796,14.515674 1.9796,17.181819 1.9796,1.184953 1.9796,-13.330721 1.9796,-7.405957 1.9796,-14.515674 1.9796,4.147336 1.9796,14.219436 1.9796,15.10815 1.9796,-2.666144 1.97961,-9.183386 1.9796,-1.777429 1.9796,-16.589342 1.9796,-0.592476 1.9796,11.849529 1.9796,18.070533 1.9796,3.851098 1.9796,-12.442007 1.9796,-9.775862 1.9796,-15.10815 1.97961,5.03605 1.9796,12.738244 1.9796,15.700627 1.9796,2.369906 1.9796,-11.849529 1.9796,-7.109718 1.9796,-14.811913 1.9796,1.481192 v 0"
           clip-path="url(#p3d33e3fc61)"
           style="fill:none;stroke:#2ca02c;stroke-width:1.5;stroke-linecap:square"
           id="path49" />
      </g>
      <g
         id="patch_3">
        <path
           d="M 72,109.19172 V 51.84"
           style="fill:none;stroke:#000000;stroke-linecap:square;stroke-linejoin:miter"
           id="path52" />
      </g>
      <g
         id="patch_4">
        <path
           d="M 72,109.19172 H 518.4"
           style="fill:none;stroke:#000000;stroke-linecap:square;stroke-linejoin:miter"
           id="path55" />
      </g>
      <g
         id="text_2">
        <!-- Epilepsy, Task 120 -->
        <g
           transform="matrix(0.2,0,0,-0.2,203.13906,45.84)"
           id="g110">
          <defs
             id="defs72">
            <path
               id="DejaVuSans-45"
               d="M 628,4666 H 3578 V 4134 H 1259 V 2753 H 3481 V 2222 H 1259 V 531 H 3634 V 0 H 628 Z"
               transform="scale(0.015625)" />
            <path
               id="DejaVuSans-69"
               d="m 603,3500 h 575 V 0 H 603 Z m 0,1363 h 575 V 4134 H 603 Z"
               transform="scale(0.015625)" />
            <path
               id="DejaVuSans-6c"
               d="m 603,4863 h 575 V 0 H 603 Z"
               transform="scale(0.015625)" />
            <path
               id="DejaVuSans-65"
               d="M 3597,1894 V 1613 H 953 q 38,-594 358,-905 320,-311 892,-311 331,0 642,81 311,81 618,244 V 178 Q 3153,47 2828,-22 2503,-91 2169,-91 1331,-91 842,396 353,884 353,1716 q 0,859 464,1363 464,505 1252,505 706,0 1117,-455 411,-454 411,-1235 z m -575,169 q -6,471 -264,752 -258,282 -683,282 -481,0 -770,-272 -289,-272 -333,-766 z"
               transform="scale(0.015625)" />
            <path
               id="DejaVuSans-73"
               d="m 2834,3397 v -544 q -243,125 -506,187 -262,63 -544,63 -428,0 -642,-131 -214,-131 -214,-394 0,-200 153,-314 153,-114 616,-217 l 197,-44 q 612,-131 870,-370 258,-239 258,-667 0,-488 -386,-773 Q 2250,-91 1575,-91 1294,-91 989,-36 684,19 347,128 v 594 q 319,-166 628,-249 309,-82 613,-82 406,0 624,139 219,139 219,392 0,234 -158,359 -157,125 -692,241 l -200,47 q -534,112 -772,345 -237,233 -237,639 0,494 350,762 350,269 994,269 318,0 599,-47 282,-46 519,-140 z"
               transform="scale(0.015625)" />
            <path
               id="DejaVuSans-79"
               d="m 2059,-325 q -243,-625 -475,-815 -231,-191 -618,-191 H 506 v 481 h 338 q 237,0 368,113 132,112 291,531 L 1606,56 191,3500 H 800 L 1894,763 2988,3500 h 609 z"
               transform="scale(0.015625)" />
            <path
               id="DejaVuSans-2c"
               d="m 750,794 h 659 V 256 L 897,-744 H 494 L 750,256 Z"
               transform="scale(0.015625)" />
            <path
               id="DejaVuSans-20"
               transform="scale(0.015625)"
               d="" />
            <path
               id="DejaVuSans-54"
               d="M -19,4666 H 3928 V 4134 H 2272 V 0 H 1638 V 4134 H -19 Z"
               transform="scale(0.015625)" />
            <path
               id="DejaVuSans-61"
               d="m 2194,1759 q -697,0 -966,-159 -269,-159 -269,-544 0,-306 202,-486 202,-179 548,-179 479,0 768,339 289,339 289,901 v 128 z m 1147,238 V 0 H 2766 V 531 Q 2569,213 2275,61 1981,-91 1556,-91 q -537,0 -855,302 -317,302 -317,808 0,590 395,890 396,300 1180,300 h 807 v 57 q 0,397 -261,614 -261,217 -733,217 -300,0 -585,-72 -284,-72 -546,-216 v 532 q 315,122 612,182 297,61 578,61 760,0 1135,-394 375,-393 375,-1193 z"
               transform="scale(0.015625)" />
            <path
               id="DejaVuSans-6b"
               d="m 581,4863 h 578 V 1991 l 1716,1509 h 734 L 1753,1863 3688,0 H 2938 L 1159,1709 V 0 H 581 Z"
               transform="scale(0.015625)" />
            <path
               id="DejaVuSans-31"
               d="M 794,531 H 1825 V 4091 L 703,3866 v 575 l 1116,225 h 631 V 531 H 3481 V 0 H 794 Z"
               transform="scale(0.015625)" />
            <path
               id="DejaVuSans-32"
               d="M 1228,531 H 3431 V 0 H 469 v 531 q 359,372 979,998 621,627 780,809 303,340 423,576 121,236 121,464 0,372 -261,606 -261,235 -680,235 -297,0 -627,-103 -329,-103 -704,-313 v 638 q 381,153 712,231 332,78 607,78 725,0 1156,-363 431,-362 431,-968 0,-288 -108,-546 -107,-257 -392,-607 -78,-91 -497,-524 Q 1991,1309 1228,531 Z"
               transform="scale(0.015625)" />
            <path
               id="DejaVuSans-30"
               d="m 2034,4250 q -487,0 -733,-480 -245,-479 -245,-1442 0,-959 245,-1439 246,-480 733,-480 491,0 736,480 246,480 246,1439 0,963 -246,1442 -245,480 -736,480 z m 0,500 q 785,0 1199,-621 414,-620 414,-1801 0,-1178 -414,-1799 -414,-620 -1199,-620 -784,0 -1198,620 -414,621 -414,1799 0,1181 414,1801 414,621 1198,621 z"
               transform="scale(0.015625)" />
          </defs>
          <use
             xlink:href="#DejaVuSans-45"
             id="use74"
             x="0"
             y="0"
             width="100%"
             height="100%" />
          <use
             xlink:href="#DejaVuSans-70"
             x="63.183594"
             id="use76"
             y="0"
             width="100%"
             height="100%" />
          <use
             xlink:href="#DejaVuSans-69"
             x="126.66016"
             id="use78"
             y="0"
             width="100%"
             height="100%" />
          <use
             xlink:href="#DejaVuSans-6c"
             x="154.44336"
             id="use80"
             y="0"
             width="100%"
             height="100%" />
          <use
             xlink:href="#DejaVuSans-65"
             x="182.22656"
             id="use82"
             y="0"
             width="100%"
             height="100%" />
          <use
             xlink:href="#DejaVuSans-70"
             x="243.75"
             id="use84"
             y="0"
             width="100%"
             height="100%" />
          <use
             xlink:href="#DejaVuSans-73"
             x="307.22656"
             id="use86"
             y="0"
             width="100%"
             height="100%" />
          <use
             xlink:href="#DejaVuSans-79"
             x="359.32617"
             id="use88"
             y="0"
             width="100%"
             height="100%" />
          <use
             xlink:href="#DejaVuSans-2c"
             x="418.50586"
             id="use90"
             y="0"
             width="100%"
             height="100%" />
          <use
             xlink:href="#DejaVuSans-20"
             x="450.29297"
             id="use92"
             y="0"
             width="100%"
             height="100%" />
          <use
             xlink:href="#DejaVuSans-54"
             x="482.08008"
             id="use94"
             y="0"
             width="100%"
             height="100%" />
          <use
             xlink:href="#DejaVuSans-61"
             x="526.66406"
             id="use96"
             y="0"
             width="100%"
             height="100%" />
          <use
             xlink:href="#DejaVuSans-73"
             x="587.94336"
             id="use98"
             y="0"
             width="100%"
             height="100%" />
          <use
             xlink:href="#DejaVuSans-6b"
             x="640.04297"
             id="use100"
             y="0"
             width="100%"
             height="100%" />
          <use
             xlink:href="#DejaVuSans-20"
             x="697.95312"
             id="use102"
             y="0"
             width="100%"
             height="100%" />
          <use
             xlink:href="#DejaVuSans-31"
             x="729.74023"
             id="use104"
             y="0"
             width="100%"
             height="100%" />
          <use
             xlink:href="#DejaVuSans-32"
             x="793.36328"
             id="use106"
             y="0"
             width="100%"
             height="100%" />
          <use
             xlink:href="#DejaVuSans-30"
             x="856.98633"
             id="use108"
             y="0"
             width="100%"
             height="100%" />
        </g>
      </g>
    </g>
    <g
       id="axes_2">
      <g
         id="patch_5">
        <path
           d="M 72,178.01379 H 518.4 V 120.66207 H 72 Z"
           style="fill:none"
           id="path114" />
      </g>
      <g
         id="matplotlib.axis_3">
        <g
           id="xtick_6" />
        <g
           id="xtick_7" />
        <g
           id="xtick_8" />
        <g
           id="xtick_9" />
        <g
           id="xtick_10" />
      </g>
      <g
         id="matplotlib.axis_4">
        <g
           id="ytick_3" />
        <g
           id="ytick_4" />
        <g
           id="text_3">
          <!-- Reg. -->
          <g
             transform="matrix(0,-0.14,-0.14,0,65.088437,164.86262)"
             id="g138">
            <defs
               id="defs128">
              <path
                 id="DejaVuSans-52"
                 d="m 2841,2188 q 203,-69 395,-294 192,-225 386,-619 L 4263,0 h -679 l -596,1197 q -232,469 -449,622 -217,153 -592,153 H 1259 V 0 H 628 v 4666 h 1425 q 800,0 1194,-335 394,-334 394,-1009 0,-441 -205,-732 -205,-290 -595,-402 z M 1259,4147 V 2491 h 794 q 456,0 689,211 233,211 233,620 0,409 -233,617 -233,208 -689,208 z"
                 transform="scale(0.015625)" />
              <path
                 id="DejaVuSans-67"
                 d="m 2906,1791 q 0,625 -258,968 -257,344 -723,344 -462,0 -720,-344 -258,-343 -258,-968 0,-622 258,-966 258,-344 720,-344 466,0 723,344 258,344 258,966 z M 3481,434 q 0,-893 -397,-1329 -396,-436 -1215,-436 -303,0 -572,45 -269,45 -522,139 v 559 q 253,-137 500,-202 247,-66 503,-66 566,0 847,295 281,295 281,892 V 616 Q 2728,306 2450,153 2172,0 1784,0 1141,0 747,490 353,981 353,1791 q 0,812 394,1302 394,491 1037,491 388,0 666,-153 278,-153 456,-462 v 531 h 575 z"
                 transform="scale(0.015625)" />
              <path
                 id="DejaVuSans-2e"
                 d="m 684,794 h 660 V 0 H 684 Z"
                 transform="scale(0.015625)" />
            </defs>
            <use
               xlink:href="#DejaVuSans-52"
               id="use130"
               x="0"
               y="0"
               width="100%"
               height="100%" />
            <use
               xlink:href="#DejaVuSans-65"
               x="64.982422"
               id="use132"
               y="0"
               width="100%"
               height="100%" />
            <use
               xlink:href="#DejaVuSans-67"
               x="126.50586"
               id="use134"
               y="0"
               width="100%"
               height="100%" />
            <use
               xlink:href="#DejaVuSans-2e"
               x="189.98242"
               id="use136"
               y="0"
               width="100%"
               height="100%" />
          </g>
        </g>
      </g>
      <g
         id="line2d_4">
        <path
           d="m 92.290909,151.5286 1.979601,6.71173 1.979601,-2.60426 1.979601,-1.14833 1.979598,-2.7693 1.9796,-0.38594 1.9796,0.96063 1.97961,-1.2415 1.9796,-3.05121 1.9796,-0.20076 1.9796,0.23675 1.9796,1.65218 1.9796,0.62913 1.9796,1.56798 1.9796,0.53404 1.9796,-0.53978 1.9796,1.86265 1.9796,1.26414 1.97961,0.68409 1.9796,-0.42772 1.9796,0.90781 1.9796,1.21361 1.9796,1.43835 1.9796,0.37756 1.9796,-0.19632 1.9796,-0.99261 1.9796,-1.49697 1.9796,1.9545 1.9796,0.77765 1.9796,-0.0957 1.97961,-1.78566 1.9796,-2.51152 1.9796,-2.79757 1.9796,0.61399 1.9796,1.1891 1.9796,0.35739 1.9796,-1.9552 1.9796,-3.57901 1.9796,-1.67684 1.9796,-0.4026 1.9796,1.48472 1.9796,0.98417 1.97961,-1.66155 1.9796,-0.8167 1.9796,-0.47074 1.9796,0.2609 1.9796,-0.18002 1.9796,0.72666 1.9796,0.98326 1.9796,0.39726 1.9796,0.90642 1.9796,0.73244 1.9796,-0.81051 1.97961,-1.31939 3.9592,2.22845 1.9796,1.65873 1.9796,0.99747 1.9796,-0.53902 1.9796,-1.60041 1.9796,-2.6761 1.9796,2.2762 1.9796,1.25664 1.9796,2.50819 1.97961,0.14978 1.9796,-1.6446 1.9796,-3.57374 1.9796,1.56457 1.9796,1.87042 1.9796,2.51837 1.9796,1.71143 3.9592,-3.96199 1.9796,0.22875 1.9796,1.89189 1.97961,3.06048 1.9796,2.53238 1.9796,-2.09674 1.9796,-1.33338 1.9796,-2.26361 1.9796,0.82381 1.9796,2.80139 1.9796,2.55862 1.9796,0.74217 1.9796,-3.0261 1.9796,-3.96893 1.9796,-0.72305 1.97961,0.15551 1.9796,2.50129 1.9796,2.79855 1.9796,-1.37177 1.9796,-2.73299 1.9796,-3.88715 1.9796,-1.04691 1.9796,0.15735 1.9796,3.58544 1.9796,1.23349 1.9796,-0.9972 1.97961,-4.58648 1.9796,-0.64261 1.9796,-0.28801 1.9796,0.2662 1.9796,3.84165 1.9796,1.75394 1.9796,-0.95537 1.9796,-3.06258 1.9796,-0.34896 1.9796,-0.65704 1.9796,1.56263 1.97961,4.10031 1.9796,0.75107 1.9796,-2.55771 1.9796,-2.29782 3.9592,-0.56369 3.9592,4.20835 1.9796,-0.77782 1.9796,-3.12877 1.9796,-2.36668 1.97961,0.0813 1.9796,-0.18073 1.9796,1.16149 1.9796,2.40932 1.9796,-2.19891 1.9796,-3.93434 1.9796,-1.23048 1.9796,0.0363 1.9796,0.67368 1.9796,2.09612 1.9796,0.43391 1.9796,-2.32898 1.97961,-3.96857 1.9796,0.67175 1.9796,1.46227 3.9592,2.49819 1.9796,0.7026 1.9796,-3.16596 1.9796,-1.58739 1.9796,0.93501 1.9796,2.47324 1.9796,0.63586 1.97961,1.49685 1.9796,-0.41265 1.9796,-3.15467 1.9796,-1.02518 1.9796,1.71604 1.9796,2.86962 1.9796,0.86542 1.9796,0.16125 1.9796,-1.31876 1.9796,-3.3399 1.9796,0.071 3.95921,5.00388 1.9796,-0.4389 1.9796,-1.18156 1.9796,-1.32785 1.9796,-3.5688 1.9796,0.45082 1.9796,3.25879 1.9796,2.67925 3.9592,-2.06898 1.9796,-3.16417 1.97961,-1.94111 1.9796,0.58472 1.9796,3.57759 1.9796,2.13947 1.9796,-0.80975 1.9796,-1.92538 1.9796,-3.38636 1.9796,-0.92585 1.9796,1.89979 1.9796,3.41599 1.97961,1.24411 1.9796,-2.1383 1.9796,-1.181 1.9796,-3.51806 1.9796,-0.55263 1.9796,3.37571 1.9796,2.90596 1.9796,-0.27184 1.9796,-0.606 1.9796,-2.70665 1.9796,-3.14433 1.9796,-0.67319 1.97961,3.03207 1.9796,1.64116 1.9796,0.0574 1.9796,0.58692 1.9796,-1.75931 1.9796,-3.1785 1.9796,-2.00862 3.9592,4.25548 3.95921,1.51853 1.9796,-1.92926 1.9796,-3.14161 1.9796,-2.10837 1.9796,1.21899 1.9796,1.42946 1.9796,1.22652 1.9796,1.675 v 0"
           clip-path="url(#p1b2ef452b0)"
           style="fill:none;stroke:#ff7f0e;stroke-width:0.5;stroke-linecap:square;stroke-opacity:0.7"
           id="path142" />
      </g>
      <g
         id="line2d_5">
        <path
           d="m 92.290909,152.45998 1.979601,-9.71178 1.979601,-2.85939 1.979601,0.63793 1.979598,2.89716 1.9796,2.12734 1.9796,0.8233 1.97961,-1.86548 1.9796,-0.19985 1.9796,-0.51466 1.9796,0.0635 1.9796,-0.73009 1.9796,-0.14622 1.9796,-0.96626 1.9796,-0.3438 1.9796,2.09983 1.9796,1.20421 1.9796,-0.66113 3.95921,-1.79265 1.9796,-0.41436 1.9796,0.76859 1.9796,-0.77313 1.9796,-1.12261 1.9796,-1.80551 1.9796,-0.84939 1.9796,1.22233 1.9796,-0.0427 1.9796,0.50271 1.9796,-1.18672 1.97961,-1.31954 1.9796,-1.5474 1.9796,-0.28117 1.9796,0.58045 1.9796,0.78535 1.9796,1.07322 1.9796,0.0426 1.9796,0.40366 1.9796,-0.10111 1.9796,1.26125 1.9796,1.43902 1.9796,0.28514 1.97961,0.92962 3.9592,1.45965 1.9796,0.60093 1.9796,1.86824 1.9796,0.65884 1.9796,-0.2838 1.9796,0.32172 1.9796,-0.53996 1.9796,-0.363 1.9796,0.43069 1.97961,1.15699 1.9796,-0.27393 1.9796,-0.78431 1.9796,-0.49418 1.9796,-1.47495 3.9592,0.18498 1.9796,1.67514 3.9592,-1.40373 1.9796,-1.40292 1.97961,0.0165 1.9796,0.8344 1.9796,2.0329 1.9796,0.78855 1.9796,-0.24072 1.9796,-1.56963 1.9796,-0.32255 1.9796,1.62084 1.9796,1.42576 1.9796,1.24569 1.9796,0.59869 1.97961,-0.80541 1.9796,-2.26169 1.9796,1.7553 1.9796,0.67068 1.9796,1.41572 1.9796,0.70656 1.9796,-0.24119 1.9796,-1.22343 1.9796,-1.56943 1.9796,1.62532 1.9796,1.8924 1.9796,0.10255 1.97961,0.36772 1.9796,-0.449 1.9796,-0.94665 1.9796,0.009 1.9796,0.73316 1.9796,1.65902 1.9796,-0.027 1.9796,0.55297 1.9796,0.0249 1.9796,-1.04089 1.9796,-0.46902 1.97961,2.77365 1.9796,-0.17703 1.9796,-0.52379 1.9796,0.98736 3.9592,-0.24135 1.9796,-0.62601 1.9796,0.90507 1.9796,-0.23074 1.9796,-0.0285 1.9796,0.78728 1.97961,0.22946 1.9796,-1.00247 1.9796,-0.26107 1.9796,0.77766 3.9592,-0.14951 1.9796,0.6972 1.9796,-0.0974 1.9796,-0.94313 1.9796,0.46875 1.9796,1.2383 1.97961,0.0606 1.9796,-0.27328 1.9796,0.76217 1.9796,-1.15249 3.9592,0.45308 1.9796,2.48008 1.9796,-1.04855 1.9796,0.0542 1.9796,0.65539 1.9796,-1.60288 1.9796,0.31054 1.97961,1.52482 1.9796,1.93412 1.9796,-0.86788 1.9796,-0.61891 1.9796,0.0107 1.9796,-1.29907 1.9796,0.6532 1.9796,1.47324 1.9796,1.68952 1.9796,-1.35443 1.9796,-0.32161 1.97961,-1.47918 1.9796,-0.82868 1.9796,1.24115 1.9796,2.12848 1.9796,1.70259 1.9796,-1.81494 1.9796,-1.29582 1.9796,-1.76332 1.9796,-0.11839 1.9796,1.93106 1.9796,2.13539 1.97961,-0.14092 1.9796,-1.37719 1.9796,-0.86338 1.9796,-1.62099 1.9796,-0.70027 1.9796,2.81445 1.9796,1.83669 1.9796,-0.66717 1.9796,-1.07426 1.9796,-1.30895 1.9796,-1.51747 1.9796,1.12859 1.97961,1.34666 1.9796,1.79965 3.9592,-1.92844 1.9796,-1.86685 1.9796,-0.10049 1.9796,1.80087 1.9796,1.33111 1.9796,0.1677 1.9796,-1.33981 1.97961,-0.2814 1.9796,-0.7665 1.9796,-0.42274 1.9796,1.36652 1.9796,1.8187 1.9796,-0.53871 1.9796,-1.06418 1.9796,-0.30241 1.9796,-1.32344 1.9796,0.25092 1.9796,0.8065 1.9796,1.17866 1.97961,-0.46864 1.9796,-0.18007 1.9796,0.0818 1.9796,-1.61951 1.9796,-0.09 1.9796,0.35711 1.9796,2.17341 1.9796,-0.34823 1.9796,-0.51996 1.9796,0.36419 1.97961,-0.8351 1.9796,0.34926 1.9796,0.023 1.9796,2.14959 1.9796,0.33516 1.9796,0.53233 1.9796,1.07879 1.9796,0.0844 v 0"
           clip-path="url(#p1b2ef452b0)"
           style="fill:none;stroke:#ff7f0e;stroke-width:0.5;stroke-linecap:square;stroke-opacity:0.7"
           id="path145" />
      </g>
      <g
         id="line2d_6">
        <path
           d="m 92.290909,144.81471 1.979601,1.94623 1.979601,4.86132 1.979601,-1.07759 1.979598,-0.80328 1.9796,-0.4923 1.9796,-1.03476 1.97961,2.18213 1.9796,2.58495 1.9796,2.27347 1.9796,1.5509 1.9796,0.91554 1.9796,0.34108 1.9796,-1.17451 1.9796,-0.59328 1.9796,0.15799 1.9796,1.06291 1.9796,2.32282 1.97961,2.63285 1.9796,0.95023 1.9796,0.51979 1.9796,-0.0515 1.9796,1.14841 1.9796,0.88933 1.9796,1.92931 1.9796,0.60523 1.9796,-1.40224 1.9796,-0.17733 1.9796,0.8654 1.9796,1.7252 1.97961,1.07908 1.9796,0.7685 1.9796,-0.75538 1.9796,-1.71144 1.9796,0.25126 1.9796,1.93863 1.9796,1.43214 1.9796,0.35852 1.9796,-0.42332 1.9796,-2.35078 1.9796,-1.55115 1.9796,1.59707 1.97961,2.17474 1.9796,0.31457 1.9796,-0.58769 1.9796,-0.77473 1.9796,-1.91687 1.9796,0.13827 1.9796,1.81536 1.9796,1.43978 1.9796,0.30688 1.9796,-0.32419 1.9796,-0.13928 1.97961,-1.16271 1.9796,1.68491 1.9796,1.87613 1.9796,0.0974 1.9796,-0.54013 1.9796,-0.7019 1.9796,0.64588 1.9796,-0.6914 1.9796,1.64575 1.9796,-0.54175 1.9796,-1.06959 1.97961,-1.68006 1.9796,-0.66945 1.9796,0.19506 1.9796,0.47888 1.9796,-0.28738 1.9796,-1.51618 1.9796,-2.36477 1.9796,-1.48522 1.9796,-0.0519 1.9796,1.2037 1.9796,-0.25457 1.97961,-1.0809 1.9796,-1.52937 1.9796,-2.39628 1.9796,1.075 1.9796,0.35712 1.9796,1.70086 1.9796,-0.79241 1.9796,-1.06427 1.9796,-0.86382 1.9796,-0.4229 3.9592,2.98037 1.97961,0.80591 3.9592,-2.02816 1.9796,-0.6865 1.9796,1.25189 1.9796,1.52479 1.9796,0.89608 1.9796,0.0264 1.9796,-1.87349 1.9796,-0.24145 1.9796,-0.058 3.95921,2.5433 1.9796,0.2421 1.9796,-0.79276 1.9796,-1.73135 1.9796,-0.51723 1.9796,0.77025 1.9796,1.44399 1.9796,0.77624 1.9796,0.0972 1.9796,-0.4963 1.97961,-1.52543 1.9796,0.40451 1.9796,1.50363 1.9796,0.9321 1.9796,0.64356 1.9796,0.37746 1.9796,-0.43593 1.9796,-0.28533 1.9796,1.08869 1.9796,0.95734 3.95921,0.53035 1.9796,0.74531 1.9796,0.17637 1.9796,-0.24334 3.9592,0.77191 1.9796,-0.44483 1.9796,0.49346 1.9796,0.28477 1.9796,-0.28159 1.9796,0.3364 1.9796,-0.34515 1.97961,-0.78284 1.9796,-1.33446 1.9796,0.19969 1.9796,0.51937 1.9796,-0.21649 1.9796,-0.48293 1.9796,-0.12958 1.9796,-1.27329 1.9796,-1.57499 1.9796,0.009 3.95921,0.2752 1.9796,-0.47357 1.9796,-0.33208 1.9796,-0.97057 1.9796,-1.18358 1.9796,-0.0263 3.9592,0.58142 1.9796,-0.24749 1.9796,-0.0583 1.9796,-0.35246 1.97961,-0.67041 1.9796,-0.0447 1.9796,0.38657 5.9388,1.7201 1.9796,0.21603 1.9796,-0.74995 1.9796,-0.61195 3.9592,0.91558 1.9796,0.80181 1.97961,1.22193 1.9796,0.44904 3.9592,-2.12092 1.9796,0.2237 1.9796,0.4149 1.9796,1.48169 1.9796,1.15124 1.9796,-0.0587 1.9796,-1.86292 1.97961,-1.06801 1.9796,-0.086 1.9796,0.33074 1.9796,2.16441 1.9796,1.05516 1.9796,-1.42373 1.9796,-1.85021 1.9796,-1.38774 1.9796,-0.69462 1.9796,0.92089 1.9796,2.29404 1.9796,1.32382 1.97961,-1.69089 1.9796,-1.13162 3.9592,-2.9452 1.9796,0.55596 1.9796,2.33959 1.9796,2.51432 1.9796,-0.77418 1.9796,-1.86042 1.9796,-2.18738 1.97961,-1.40345 1.9796,1.21478 1.9796,2.92313 1.9796,2.40882 1.9796,-0.70211 1.9796,-1.42849 1.9796,-2.37833 1.9796,-1.9744 v 0"
           clip-path="url(#p1b2ef452b0)"
           style="fill:none;stroke:#ff7f0e;stroke-width:0.5;stroke-linecap:square;stroke-opacity:0.7"
           id="path148" />
      </g>
      <g
         id="line2d_7">
        <path
           d="m 92.290909,155.09104 1.979601,1.10954 1.979601,0.57849 1.979601,1.5699 1.979598,0.68081 1.9796,-1.2514 1.9796,-0.73289 1.97961,0.94085 1.9796,0.65871 1.9796,-1.56397 3.9592,-3.71037 1.9796,-0.82344 1.9796,0.58166 1.9796,0.40232 1.9796,-1.74057 1.9796,-4.13655 1.9796,-2.93884 1.97961,-2.39074 1.9796,0.35152 1.9796,-1.01055 3.9592,-3.74576 1.9796,-0.14118 1.9796,0.0701 1.9796,1.23558 1.9796,1.67289 1.9796,-1.73387 1.9796,-2.14653 1.9796,-0.43552 1.97961,2.03058 1.9796,3.29836 1.9796,3.83313 1.9796,0.51571 1.9796,-2.22398 1.9796,-3.36265 1.9796,0.49095 1.9796,2.82347 1.9796,2.20595 1.9796,1.49096 1.9796,-1.3759 1.9796,-2.8641 1.97961,-1.43902 1.9796,-0.25923 1.9796,0.36777 1.9796,-0.0888 1.9796,0.22815 1.9796,-1.52506 1.9796,-2.51641 1.9796,-2.15635 1.9796,-0.66941 1.9796,-0.0392 1.9796,0.5244 1.97961,1.32613 1.9796,-2.58497 1.9796,-2.14431 1.9796,-1.25871 1.9796,1.02866 1.9796,1.1871 1.9796,0.83498 1.9796,1.69404 1.9796,-3.2632 3.9592,-0.003 3.95921,3.00177 1.9796,1.34696 1.9796,-2.83641 1.9796,-1.34193 1.9796,0.55979 1.9796,0.96842 1.9796,1.92665 1.9796,0.52459 1.9796,-2.67886 1.9796,-2.23788 1.97961,-1.1766 1.9796,1.24799 1.9796,2.72496 1.9796,-0.40847 1.9796,0.49197 1.9796,-3.22177 1.9796,-1.76759 1.9796,-0.27567 3.9592,3.49357 1.9796,0.65156 1.9796,-0.9184 1.97961,-1.31516 1.9796,-1.09697 1.9796,-0.78681 1.9796,2.03177 3.9592,1.45734 1.9796,0.18864 1.9796,-0.72522 1.9796,-1.74443 1.9796,0.0363 1.9796,1.50225 1.97961,0.58172 1.9796,-0.47957 1.9796,0.58301 1.9796,-0.45241 1.9796,-2.04534 1.9796,-1.09619 3.9592,1.51519 1.9796,-0.1842 1.9796,0.60136 1.9796,-1.85437 1.97961,-2.81892 1.9796,-0.16835 1.9796,1.30822 1.9796,0.60019 1.9796,-0.27332 1.9796,-0.0102 1.9796,-2.31128 1.9796,-1.79107 1.9796,0.62223 1.9796,1.70494 1.9796,0.87356 3.95921,-0.67707 1.9796,-2.10593 1.9796,-1.02322 1.9796,1.58158 1.9796,3.3272 1.9796,-0.79776 1.9796,0.52754 1.9796,-1.01035 1.9796,-2.4823 1.9796,0.83059 1.9796,2.35617 1.97961,3.23478 1.9796,-1.27171 1.9796,-0.78908 3.9592,-2.20304 1.9796,1.07748 1.9796,2.63395 1.9796,1.39263 3.9592,-2.18066 1.9796,-0.46628 1.97961,-0.14539 1.9796,1.71873 1.9796,2.23433 1.9796,-0.13035 1.9796,-2.24404 1.9796,-1.02487 1.9796,0.19499 1.9796,1.26034 1.9796,1.68722 1.9796,1.45657 1.9796,-1.85577 1.97961,-1.66934 1.9796,-1.10461 1.9796,0.91638 1.9796,2.24251 1.9796,1.44366 1.9796,0.17941 1.9796,-2.51084 1.9796,-1.84512 1.9796,-0.99291 3.9592,3.99239 1.9796,1.23614 1.97961,-0.63523 1.9796,-2.83582 1.9796,-1.52138 1.9796,-0.15569 1.9796,2.45777 1.9796,1.61996 1.9796,0.11013 1.9796,-1.56165 1.9796,-2.00961 1.9796,-0.22156 1.97961,0.10229 1.9796,2.99191 1.9796,1.29038 1.9796,-0.005 1.9796,-2.32358 1.9796,-1.42199 1.9796,0.004 1.9796,1.95602 1.9796,2.63367 1.9796,1.552 1.9796,0.0503 1.9796,-1.82819 1.97961,-0.88326 1.9796,-0.33554 1.9796,1.34581 1.9796,2.49075 1.9796,1.31356 1.9796,0.48651 1.9796,-2.67255 1.9796,-0.94642 1.9796,0.17518 1.9796,1.07525 1.97961,1.45846 1.9796,0.38583 1.9796,0.20486 1.9796,-2.44247 1.9796,-0.86987 1.9796,-0.53504 1.9796,0.0541 1.9796,0.21572 v 0"
           clip-path="url(#p1b2ef452b0)"
           style="fill:none;stroke:#1f77b4;stroke-width:4;stroke-linecap:square;stroke-opacity:0.7"
           id="path151" />
      </g>
      <g
         id="patch_6">
        <path
           d="M 72,178.01379 V 120.66207"
           style="fill:none;stroke:#000000;stroke-linecap:square;stroke-linejoin:miter"
           id="path154" />
      </g>
      <g
         id="patch_7">
        <path
           d="M 72,178.01379 H 518.4"
           style="fill:none;stroke:#000000;stroke-linecap:square;stroke-linejoin:miter"
           id="path157" />
      </g>
    </g>
    <g
       id="axes_3">
      <g
         id="patch_8">
        <path
           d="M 72,246.83586 H 518.4 V 189.48414 H 72 Z"
           style="fill:none"
           id="path161" />
      </g>
      <g
         id="matplotlib.axis_5">
        <g
           id="xtick_11" />
        <g
           id="xtick_12" />
        <g
           id="xtick_13" />
        <g
           id="xtick_14" />
        <g
           id="xtick_15" />
      </g>
      <g
         id="matplotlib.axis_6">
        <g
           id="ytick_5" />
        <g
           id="ytick_6" />
        <g
           id="text_4">
          <!-- Avg.Reg. -->
          <g
             transform="matrix(0,-0.14,-0.14,0,65.088437,248.87359)"
             id="g192">
            <defs
               id="defs174">
              <path
                 id="DejaVuSans-41"
                 d="M 2188,4044 1331,1722 h 1716 z m -357,622 h 716 L 4325,0 H 3669 L 3244,1197 H 1141 L 716,0 H 50 Z"
                 transform="scale(0.015625)" />
              <path
                 id="DejaVuSans-76"
                 d="M 191,3500 H 800 L 1894,563 2988,3500 h 609 L 2284,0 h -781 z"
                 transform="scale(0.015625)" />
            </defs>
            <use
               xlink:href="#DejaVuSans-41"
               id="use176"
               x="0"
               y="0"
               width="100%"
               height="100%" />
            <use
               xlink:href="#DejaVuSans-76"
               x="62.533203"
               id="use178"
               y="0"
               width="100%"
               height="100%" />
            <use
               xlink:href="#DejaVuSans-67"
               x="121.71289"
               id="use180"
               y="0"
               width="100%"
               height="100%" />
            <use
               xlink:href="#DejaVuSans-2e"
               x="185.18945"
               id="use182"
               y="0"
               width="100%"
               height="100%" />
            <use
               xlink:href="#DejaVuSans-52"
               x="216.97656"
               id="use184"
               y="0"
               width="100%"
               height="100%" />
            <use
               xlink:href="#DejaVuSans-65"
               x="281.95898"
               id="use186"
               y="0"
               width="100%"
               height="100%" />
            <use
               xlink:href="#DejaVuSans-67"
               x="343.48242"
               id="use188"
               y="0"
               width="100%"
               height="100%" />
            <use
               xlink:href="#DejaVuSans-2e"
               x="406.95898"
               id="use190"
               y="0"
               width="100%"
               height="100%" />
          </g>
        </g>
      </g>
      <g
         id="line2d_8">
        <path
           d="m 92.290909,218.93374 1.979601,5.45836 1.979601,0.4075 1.979601,-0.26319 1.979598,-1.05878 1.9796,-0.81048 1.9796,-0.3557 1.97961,-0.51919 1.9796,-0.95524 1.9796,-0.79684 1.9796,-0.61696 1.9796,-0.29019 1.9796,-0.16683 5.9388,0.15652 3.9592,0.49336 9.89801,1.66836 3.9592,0.79744 3.9592,0.45771 7.91841,1.01001 1.9796,0.0248 3.9592,-0.19312 5.9388,-0.10776 3.9592,-0.52988 3.9592,-0.51775 3.95921,-0.40182 9.898,-1.16204 5.9388,-0.39327 13.85721,-0.45092 3.9592,-0.0383 3.9592,-0.15852 3.9592,0.0368 3.95921,0.0633 3.9592,-0.11331 3.9592,0.0749 3.9592,0.15848 5.9388,0.0821 9.89801,0.54796 3.9592,0.17197 5.9388,0.44057 9.89801,0.24757 3.9592,0.12399 9.898,-0.0743 3.95921,-0.0374 7.9184,-0.2005 5.9388,-5.7e-4 7.91841,-0.0833 5.9388,0.0266 7.9184,-0.0402 3.9592,-0.0125 25.73481,-0.85612 7.91841,-0.44295 39.59202,-1.30274 7.9184,-0.20551 5.9388,-0.1511 7.91841,-0.23261 5.9388,-0.15586 5.9388,-0.16748 5.9388,-0.20113 7.91841,-0.21868 5.9388,-0.18699 7.9184,-0.23314 5.93881,-0.21895 9.898,-0.354 21.77561,-0.85419 v 0"
           clip-path="url(#p812e2e87a0)"
           style="fill:none;stroke:#ff7f0e;stroke-width:0.5;stroke-linecap:square;stroke-opacity:0.7"
           id="path196" />
      </g>
      <g
         id="line2d_9">
        <path
           d="m 92.290909,220.44864 1.979601,-7.89818 1.979601,-4.18301 1.979601,-1.8321 1.979598,-0.15681 3.9592,1.00071 3.95921,-0.006 7.9184,-0.49081 3.9592,-0.49358 1.9796,-0.005 3.9592,0.15035 3.95921,-0.15438 9.898,-0.76848 3.9592,-0.53032 7.91841,-0.85068 5.9388,-0.93702 3.9592,-0.39196 5.9388,-0.41066 3.9592,-0.0779 5.93881,0.10494 5.9388,0.35495 7.9184,0.65295 15.83681,0.92041 25.73481,0.88188 17.81641,1.13981 5.9388,0.35873 7.91841,0.56844 85.12283,5.94676 15.83681,1.07711 21.77561,1.44511 11.87761,0.68536 27.71441,1.36044 19.79601,0.80859 11.8776,0.46665 39.59202,1.47133 v 0"
           clip-path="url(#p812e2e87a0)"
           style="fill:none;stroke:#ff7f0e;stroke-width:0.5;stroke-linecap:square;stroke-opacity:0.7"
           id="path199" />
      </g>
      <g
         id="line2d_10">
        <path
           d="m 92.290909,208.01349 1.979601,1.58279 1.979601,3.16326 1.979601,1.14346 1.979598,0.42476 1.9796,0.14972 1.9796,-0.13349 1.97961,0.34353 1.9796,0.73436 7.9184,3.79935 1.9796,0.60211 5.9388,1.34294 1.9796,0.62685 5.93881,2.32158 5.9388,2.0815 3.9592,1.52213 13.85721,4.19417 5.9388,1.37703 5.9388,1.5288 13.85721,2.39487 5.9388,0.72161 7.9184,1.17013 3.95921,0.49107 7.9184,1.14096 9.898,1.21008 9.89801,0.72528 3.9592,0.13794 13.85721,-0.0459 15.8368,-0.36877 27.71442,-0.0855 7.9184,0.015 7.9184,0.0629 17.81641,0.26194 11.87761,0.41726 29.69401,1.0364 7.9184,0.0913 13.85721,-0.0145 35.63282,-0.22182 31.67361,0.17376 23.75521,-0.05 7.91841,-0.0461 7.9184,0.0142 5.9388,-0.0434 v 0"
           clip-path="url(#p812e2e87a0)"
           style="fill:none;stroke:#ff7f0e;stroke-width:0.5;stroke-linecap:square;stroke-opacity:0.7"
           id="path202" />
      </g>
      <g
         id="line2d_11">
        <path
           d="m 92.290909,224.7281 1.979601,0.90234 1.979601,0.61443 1.979601,0.94557 1.979598,0.78882 1.9796,0.18664 1.9796,-0.037 3.95921,0.40981 1.9796,-0.0574 1.9796,-0.32383 5.9388,-1.45823 1.9796,-0.30055 1.9796,-0.43992 1.9796,-0.78394 15.83681,-7.69443 1.9796,-0.7226 3.9592,-1.19671 3.9592,-1.38754 1.97961,-0.53151 1.9796,-0.33064 5.9388,-0.39958 3.9592,-0.61969 3.9592,-0.20815 3.9592,-0.0366 5.93881,-0.55858 9.898,-1.00006 7.9184,-1.32727 3.95921,-0.57704 7.9184,-1.43036 11.87761,-1.60251 49.49002,-4.69298 7.9184,-0.5537 31.67362,-2.17335 7.9184,-0.63773 5.9388,-0.52166 7.91841,-0.64055 21.7756,-1.57136 7.91841,-0.35705 5.9388,-0.2906 51.46962,-1.30996 7.91841,-0.14122 7.9184,-0.14194 27.71441,-0.38663 19.79601,0.0427 17.81641,0.0807 v 0"
           clip-path="url(#p812e2e87a0)"
           style="fill:none;stroke:#1f77b4;stroke-width:4;stroke-linecap:square;stroke-opacity:0.7"
           id="path205" />
      </g>
      <g
         id="patch_9">
        <path
           d="M 72,246.83586 V 189.48414"
           style="fill:none;stroke:#000000;stroke-linecap:square;stroke-linejoin:miter"
           id="path208" />
      </g>
      <g
         id="patch_10">
        <path
           d="M 72,246.83586 H 518.4"
           style="fill:none;stroke:#000000;stroke-linecap:square;stroke-linejoin:miter"
           id="path211" />
      </g>
    </g>
    <g
       id="axes_4">
      <g
         id="patch_11">
        <path
           d="M 72,315.65793 H 518.4 V 258.30621 H 72 Z"
           style="fill:none"
           id="path215" />
      </g>
      <g
         id="matplotlib.axis_7">
        <g
           id="xtick_16" />
        <g
           id="xtick_17" />
        <g
           id="xtick_18" />
        <g
           id="xtick_19" />
        <g
           id="xtick_20" />
      </g>
      <g
         id="matplotlib.axis_8">
        <g
           id="ytick_7" />
        <g
           id="ytick_8" />
        <g
           id="text_5">
          <!-- GRSA -->
          <g
             transform="matrix(0,-0.14,-0.14,0,65.088437,306.63347)"
             id="g238">
            <defs
               id="defs228">
              <path
                 id="DejaVuSans-47"
                 d="M 3809,666 V 1919 H 2778 v 519 H 4434 V 434 Q 4069,175 3628,42 3188,-91 2688,-91 1594,-91 976,548 359,1188 359,2328 q 0,1144 617,1783 618,639 1712,639 456,0 867,-113 411,-112 758,-331 v -672 q -350,297 -744,447 -394,150 -828,150 -857,0 -1287,-478 -429,-478 -429,-1425 0,-944 429,-1422 430,-478 1287,-478 334,0 596,58 263,58 472,180 z"
                 transform="scale(0.015625)" />
              <path
                 id="DejaVuSans-53"
                 d="m 3425,4513 v -616 q -359,172 -678,256 -319,85 -616,85 -515,0 -795,-200 -280,-200 -280,-569 0,-310 186,-468 186,-157 705,-254 l 381,-78 q 706,-135 1042,-474 336,-339 336,-907 0,-679 -455,-1029 -454,-350 -1332,-350 -331,0 -705,75 -373,75 -773,222 v 650 q 384,-215 753,-325 369,-109 725,-109 540,0 834,212 294,213 294,607 0,343 -211,537 -211,194 -692,291 l -385,75 q -706,140 -1022,440 -315,300 -315,835 0,619 436,975 436,356 1201,356 329,0 669,-60 341,-59 697,-177 z"
                 transform="scale(0.015625)" />
            </defs>
            <use
               xlink:href="#DejaVuSans-47"
               id="use230"
               x="0"
               y="0"
               width="100%"
               height="100%" />
            <use
               xlink:href="#DejaVuSans-52"
               x="77.490234"
               id="use232"
               y="0"
               width="100%"
               height="100%" />
            <use
               xlink:href="#DejaVuSans-53"
               x="146.97266"
               id="use234"
               y="0"
               width="100%"
               height="100%" />
            <use
               xlink:href="#DejaVuSans-41"
               x="212.32422"
               id="use236"
               y="0"
               width="100%"
               height="100%" />
          </g>
        </g>
      </g>
      <g
         id="line2d_12">
        <path
           d="m 92.290909,311.10078 1.979601,0.18911 1.979601,0.30147 1.979601,0.51637 1.979598,0.26883 1.9796,-0.0113 1.9796,-0.18 1.97961,-0.0552 3.9592,0.0447 3.9592,-0.003 1.9796,0.0574 3.9592,-0.18006 1.9796,0.0906 5.93881,-0.095 13.8572,0.0413 3.9592,-0.11216 7.91841,-0.0726 7.9184,-0.11086 3.9592,-0.0953 3.9592,0.0558 5.93881,-0.0425 9.898,-0.0699 5.9388,-0.0626 1.9796,-0.11061 9.89801,0.10077 3.9592,-0.18428 3.9592,0.17816 11.87761,-0.0187 1.9796,0.0837 5.9388,-0.0255 43.55122,-0.32523 5.9388,-0.21128 7.91841,-0.0617 5.9388,-0.227 7.9184,-0.0229 3.9592,-0.14488 1.97961,-0.0576 5.9388,0.12181 3.9592,-0.1416 3.9592,0.0312 3.9592,0.13544 5.93881,-0.10927 9.898,0.10562 1.9796,-0.0458 7.9184,0.21315 11.87761,-0.0401 1.9796,0.0918 11.87761,-0.15186 1.9796,0.0648 9.898,-0.31406 3.9592,0.0485 3.95921,-0.30531 9.898,-0.0153 3.9592,-0.24136 9.89801,0.10176 3.9592,-0.16605 7.9184,0.18401 17.81641,0.0479 3.9592,0.18063 1.9796,-0.0877 5.9388,0.004 1.97961,-0.0697 3.9592,0.14351 3.9592,-0.1786 3.9592,-0.14193 1.9796,-0.10325 3.9592,-0.008 1.97961,-0.23017 3.9592,-0.20107 3.9592,-0.37273 3.9592,-0.1663 1.9796,-0.32425 v 0"
           clip-path="url(#p7d101dc791)"
           style="fill:none;stroke:#ff7f0e;stroke-linecap:square;stroke-opacity:0.7"
           id="path242" />
      </g>
      <g
         id="line2d_13">
        <path
           d="m 92.290909,311.38258 3.959202,0.59371 1.979601,0.49756 1.979598,0.22322 3.9592,-0.0704 3.95921,0.14669 5.9388,-0.10055 7.9184,-0.12234 3.9592,-0.12388 5.93881,-0.14299 15.8368,-0.50822 1.9796,-0.11547 3.95921,-0.0763 1.9796,-0.1129 1.9796,0.12037 3.9592,-0.17162 1.9796,-0.0772 3.9592,0.0551 1.9796,-0.18025 1.9796,0.14617 9.89801,0.0291 1.9796,-0.16378 3.9592,0.0546 7.9184,-0.13938 1.97961,-0.12942 3.9592,0.0785 37.61241,-0.13125 1.97961,-0.0485 1.9796,-0.18147 7.9184,0.022 5.9388,-0.19494 5.9388,-0.11 1.97961,0.0852 5.9388,-0.34865 1.9796,0.0821 9.898,-0.29983 5.93881,-0.0249 1.9796,-0.1584 1.9796,-0.008 1.9796,-0.2313 1.9796,0.17278 3.9592,-0.005 1.9796,-0.0563 3.9592,-0.25392 3.95921,0.0145 1.9796,0.13832 7.9184,-0.51694 3.9592,0.17703 1.9796,0.007 3.95921,-0.29401 1.9796,-0.23592 1.9796,-0.0157 3.9592,0.22196 1.9796,-0.1641 1.9796,-0.0169 1.9796,-0.33872 1.9796,0.005 1.9796,-0.10709 3.9592,0.15309 1.97961,-0.24987 1.9796,0.0757 1.9796,-0.41498 3.9592,-0.081 3.9592,0.0889 11.87761,-0.80272 1.9796,0.10609 3.9592,-0.42669 1.9796,-0.30165 1.9796,-0.0513 1.9796,-0.19811 5.9388,-0.0944 1.97961,-0.37471 5.9388,-0.38243 5.9388,-0.43962 1.9796,-0.32362 1.9796,-0.14577 3.9592,-0.48263 1.9796,0.0874 5.93881,-0.88383 1.9796,-0.11829 3.9592,-0.55503 1.9796,0.0653 1.9796,-0.36813 7.91841,-0.6606 7.9184,-0.70633 3.9592,-0.0122 1.9796,-0.2925 1.9796,0.0461 1.9796,-0.27396 3.95921,-0.3335 1.9796,0.0651 1.9796,-0.1062 1.9796,-0.32917 1.9796,0.0245 1.9796,-0.45896 1.9796,-0.27999 1.9796,-0.59582 1.9796,-0.14633 1.9796,-0.28524 1.97961,-0.45226 1.9796,-0.13791 3.9592,-1.59258 1.9796,-1.07568 1.9796,-0.55021 1.9796,-0.82811 1.9796,-0.63478 v 0"
           clip-path="url(#p7d101dc791)"
           style="fill:none;stroke:#ff7f0e;stroke-linecap:square;stroke-opacity:0.7"
           id="path245" />
      </g>
      <g
         id="line2d_14">
        <path
           d="m 92.290909,311.33785 5.938803,0.94661 1.979598,0.16706 9.89801,-0.003 15.8368,-0.21562 19.79601,-0.78009 7.91841,-0.49932 7.9184,-0.32873 3.9592,-0.23796 7.9184,-0.22343 3.95921,-0.28922 7.9184,-0.26624 5.9388,-0.51392 7.91841,-0.23417 3.9592,-0.33737 3.9592,0.0102 3.9592,-10e-6 5.9388,-0.38395 9.89801,-0.15268 5.9388,-0.32108 5.9388,-0.13867 9.89801,-0.58635 7.9184,-0.3388 7.91841,-0.39156 5.9388,-0.29728 7.9184,-0.62653 5.9388,-0.49173 5.93881,-0.73395 3.9592,-0.30446 3.9592,-0.46667 3.9592,-0.52922 5.93881,-0.47311 1.9796,-0.27214 13.8572,-1.02828 23.75521,-1.07875 1.9796,-0.26519 9.89801,-0.54809 15.83681,-1.66235 3.9592,-0.67454 5.9388,-0.73604 1.9796,-0.20908 5.9388,-1.15769 3.95921,-0.6896 1.9796,-0.10028 3.9592,-0.50629 3.9592,-0.7819 1.9796,-0.41235 1.9796,-0.20922 3.9592,-0.12011 1.9796,-0.0906 3.95921,-0.672 1.9796,-0.38529 1.9796,-0.15188 3.9592,0.0577 1.9796,-0.0882 3.9592,-0.83296 1.9796,-0.41325 1.9796,-0.17993 1.97961,-0.0505 1.9796,-0.22507 1.9796,-0.34371 1.9796,-0.60581 1.9796,-0.82078 1.9796,-0.56614 3.9592,-0.74673 1.9796,-0.53706 1.9796,-0.78159 5.93881,-2.96919 1.9796,-0.63909 3.9592,-1.75011 1.9796,-1.13216 1.9796,-1.26066 1.9796,-1.40971 1.9796,-1.21415 3.9592,-1.95664 1.97961,-1.17592 3.9592,-3.01813 1.9796,-1.65979 1.9796,-1.35093 1.9796,-1.14894 1.9796,-1.33463 1.9796,-1.4779 v 0"
           clip-path="url(#p7d101dc791)"
           style="fill:none;stroke:#ff7f0e;stroke-linecap:square;stroke-opacity:0.7"
           id="path248" />
      </g>
      <g
         id="line2d_15">
        <path
           d="m 92.290909,312.36636 1.979601,-0.56707 1.979601,0.35559 1.979601,0.6301 1.979598,0.26605 3.9592,-0.21996 3.95921,-0.31766 3.9592,-0.0456 7.9184,0.22431 7.91841,-0.20475 1.9796,0.0219 3.9592,-0.123 7.9184,-0.007 9.89801,-0.1187 21.7756,-0.12541 5.93881,0.091 3.9592,-0.0626 5.9388,0.24403 9.89801,0.10357 3.9592,0.12066 5.9388,-0.1093 7.9184,0.15684 3.95921,-0.0945 3.9592,0.041 3.9592,0.14329 5.9388,-0.0295 23.75521,0.0409 5.93881,0.0264 3.9592,0.005 5.9388,-0.0999 7.9184,0.059 25.73482,-0.0346 1.9796,-0.0527 5.9388,0.10557 5.9388,-0.0421 5.9388,-0.008 3.95921,-2.2e-4 3.9592,-0.0878 9.898,0.0441 3.9592,-0.0544 5.93881,0.008 5.9388,0.0338 17.81641,0.1086 5.9388,-0.028 3.9592,-2e-4 7.91841,5.8e-4 3.9592,0.0563 7.9184,-0.0944 5.9388,0.0341 7.91841,-0.0325 3.9592,0.0638 5.9388,-0.0747 9.89801,0.0405 5.9388,-0.0306 19.79601,-0.0452 3.9592,-0.1058 1.9796,0.0294 3.9592,-0.15871 3.9592,-5e-4 3.95921,-0.16461 1.9796,-0.0468 9.898,-1.08794 v 0"
           clip-path="url(#p7d101dc791)"
           style="fill:none;stroke:#1f77b4;stroke-width:4;stroke-linecap:square;stroke-opacity:0.7"
           id="path251" />
      </g>
      <g
         id="patch_12">
        <path
           d="M 72,315.65793 V 258.30621"
           style="fill:none;stroke:#000000;stroke-linecap:square;stroke-linejoin:miter"
           id="path254" />
      </g>
      <g
         id="patch_13">
        <path
           d="M 72,315.65793 H 518.4"
           style="fill:none;stroke:#000000;stroke-linecap:square;stroke-linejoin:miter"
           id="path257" />
      </g>
    </g>
    <g
       id="axes_5">
      <g
         id="patch_14">
        <path
           d="M 72,384.48 H 518.4 V 327.12828 H 72 Z"
           style="fill:none"
           id="path261" />
      </g>
      <g
         id="matplotlib.axis_9">
        <g
           id="xtick_21" />
        <g
           id="xtick_22" />
        <g
           id="xtick_23" />
        <g
           id="xtick_24" />
        <g
           id="xtick_25" />
        <g
           id="text_6">
          <!-- Time -->
          <g
             transform="matrix(0.2,0,0,-0.2,270.73281,403.67687)"
             id="g280">
            <defs
               id="defs270">
              <path
                 id="DejaVuSans-6d"
                 d="m 3328,2828 q 216,388 516,572 300,184 706,184 547,0 844,-383 297,-382 297,-1088 V 0 h -578 v 2094 q 0,503 -179,746 -178,244 -543,244 -447,0 -707,-297 -259,-296 -259,-809 V 0 h -578 v 2094 q 0,506 -178,748 -178,242 -550,242 -441,0 -701,-298 -259,-298 -259,-808 V 0 H 581 v 3500 h 578 v -544 q 197,322 472,475 275,153 653,153 382,0 649,-194 267,-193 395,-562 z"
                 transform="scale(0.015625)" />
            </defs>
            <use
               xlink:href="#DejaVuSans-54"
               id="use272"
               x="0"
               y="0"
               width="100%"
               height="100%" />
            <use
               xlink:href="#DejaVuSans-69"
               x="57.958984"
               id="use274"
               y="0"
               width="100%"
               height="100%" />
            <use
               xlink:href="#DejaVuSans-6d"
               x="85.742188"
               id="use276"
               y="0"
               width="100%"
               height="100%" />
            <use
               xlink:href="#DejaVuSans-65"
               x="183.1543"
               id="use278"
               y="0"
               width="100%"
               height="100%" />
          </g>
        </g>
      </g>
      <g
         id="matplotlib.axis_10">
        <g
           id="ytick_9" />
        <g
           id="ytick_10" />
        <g
           id="ytick_11" />
        <g
           id="text_7">
          <!-- Avg.GRSA -->
          <g
             transform="matrix(0,-0.14,-0.14,0,65.088437,390.64445)"
             id="g303">
            <use
               xlink:href="#DejaVuSans-41"
               id="use287"
               x="0"
               y="0"
               width="100%"
               height="100%" />
            <use
               xlink:href="#DejaVuSans-76"
               x="62.533203"
               id="use289"
               y="0"
               width="100%"
               height="100%" />
            <use
               xlink:href="#DejaVuSans-67"
               x="121.71289"
               id="use291"
               y="0"
               width="100%"
               height="100%" />
            <use
               xlink:href="#DejaVuSans-2e"
               x="185.18945"
               id="use293"
               y="0"
               width="100%"
               height="100%" />
            <use
               xlink:href="#DejaVuSans-47"
               x="216.97656"
               id="use295"
               y="0"
               width="100%"
               height="100%" />
            <use
               xlink:href="#DejaVuSans-52"
               x="294.4668"
               id="use297"
               y="0"
               width="100%"
               height="100%" />
            <use
               xlink:href="#DejaVuSans-53"
               x="363.94922"
               id="use299"
               y="0"
               width="100%"
               height="100%" />
            <use
               xlink:href="#DejaVuSans-41"
               x="429.30078"
               id="use301"
               y="0"
               width="100%"
               height="100%" />
          </g>
        </g>
      </g>
      <g
         id="line2d_16" />
      <g
         id="line2d_17" />
      <g
         id="line2d_18">
        <path
           d="m 92.290909,375.40149 1.979601,0.39935 1.979601,0.55753 3.959199,1.54543 1.9796,0.47299 3.95921,0.37203 5.9388,0.31626 7.9184,0.18866 9.89801,0.0581 29.69401,-0.0962 83.14324,-0.94424 33.65321,-0.24695 31.67362,-0.51402 35.63281,-0.57239 154.40887,-1.96109 v 0"
           clip-path="url(#p4f75e9f516)"
           style="fill:none;stroke:#ff7f0e;stroke-linecap:square;stroke-opacity:0.7"
           id="path309" />
      </g>
      <g
         id="line2d_19">
        <path
           d="m 92.290909,376.59165 3.959202,1.20434 1.979601,0.85114 1.979598,0.69924 3.9592,0.70492 3.95921,0.50419 5.9388,0.38664 5.9388,0.18161 7.91841,0.002 9.898,-0.20847 13.85721,-0.53138 23.75521,-1.0114 45.53082,-1.27706 49.49002,-1.14663 29.69401,-0.93043 31.67362,-1.1024 41.57161,-1.76402 23.75522,-1.32652 19.796,-1.38534 13.85721,-1.15131 17.81641,-1.67294 31.67361,-3.24015 9.89801,-1.21218 7.9184,-1.20019 v 0"
           clip-path="url(#p4f75e9f516)"
           style="fill:none;stroke:#ff7f0e;stroke-linecap:square;stroke-opacity:0.7"
           id="path312" />
      </g>
      <g
         id="line2d_20">
        <path
           d="m 92.290909,376.40275 7.918401,2.57984 3.9592,0.63944 3.95921,0.3535 5.9388,0.26278 7.9184,0.1278 7.91841,-0.0707 9.898,-0.35606 9.898,-0.53686 23.75521,-1.75164 23.75522,-2.02909 31.67361,-2.71655 43.55122,-3.71661 15.83681,-1.56469 15.8368,-1.83832 19.79601,-2.55691 33.65322,-4.30804 17.81641,-2.36104 15.8368,-2.34045 15.83681,-2.61942 39.59202,-7.08012 11.8776,-2.44616 7.91841,-1.88678 7.9184,-2.12167 7.9184,-2.4437 5.93881,-2.03434 7.9184,-3.04055 1.9796,-0.81121 v 0"
           clip-path="url(#p4f75e9f516)"
           style="fill:none;stroke:#ff7f0e;stroke-linecap:square;stroke-opacity:0.7"
           id="path315" />
      </g>
      <g
         id="line2d_21">
        <path
           d="m 92.290909,380.74659 1.979601,-1.1975 1.979601,0.10145 3.959199,1.37035 1.9796,0.38978 1.9796,0.18551 3.95921,0.006 5.9388,-0.0857 11.8776,0.1001 25.73482,-0.35618 31.67361,-0.43121 17.81641,0.019 75.22483,0.57264 45.53082,0.19754 134.61286,0.24806 37.61242,-0.0783 3.9592,-0.053 v 0"
           clip-path="url(#p4f75e9f516)"
           style="fill:none;stroke:#1f77b4;stroke-width:4;stroke-linecap:square;stroke-opacity:0.7"
           id="path318" />
      </g>
      <g
         id="patch_15">
        <path
           d="M 72,384.48 V 327.12828"
           style="fill:none;stroke:#000000;stroke-linecap:square;stroke-linejoin:miter"
           id="path321" />
      </g>
      <g
         id="patch_16">
        <path
           d="M 72,384.48 H 518.4"
           style="fill:none;stroke:#000000;stroke-linecap:square;stroke-linejoin:miter"
           id="path324" />
      </g>
      <g
         id="legend_1">
        <g
           id="patch_17">
          <path
             d="m 80.4,371.95578 h 107.85562 q 2.4,0 2.4,-2.4 v -34.0275 q 0,-2.4 -2.4,-2.4 H 80.4 q -2.4,0 -2.4,2.4 v 34.0275 q 0,2.4 2.4,2.4 z"
             style="opacity:0.8;fill:#ffffff;stroke:#cccccc;stroke-linejoin:miter"
             id="path327" />
        </g>
        <g
           id="line2d_22">
          <path
             d="m 82.8,342.8464 h 12 12"
             style="fill:none;stroke:#1f77b4;stroke-width:4;stroke-linecap:square;stroke-opacity:0.7"
             id="path330" />
        </g>
        <g
           id="text_8">
          <!-- True Class -->
          <g
             transform="matrix(0.12,0,0,-0.12,116.4,347.0464)"
             id="g357">
            <defs
               id="defs335">
              <path
                 id="DejaVuSans-72"
                 d="m 2631,2963 q -97,56 -211,82 -114,27 -251,27 -488,0 -749,-317 -261,-317 -261,-911 V 0 H 581 v 3500 h 578 v -544 q 182,319 472,473 291,155 707,155 59,0 131,-8 72,-7 159,-23 z"
                 transform="scale(0.015625)" />
              <path
                 id="DejaVuSans-43"
                 d="m 4122,4306 v -665 q -319,297 -680,443 -361,147 -767,147 -800,0 -1225,-489 -425,-489 -425,-1414 0,-922 425,-1411 425,-489 1225,-489 406,0 767,147 361,147 680,444 V 359 Q 3791,134 3420,21 3050,-91 2638,-91 1578,-91 968,557 359,1206 359,2328 q 0,1125 609,1773 610,649 1670,649 418,0 788,-111 371,-111 696,-333 z"
                 transform="scale(0.015625)" />
            </defs>
            <use
               xlink:href="#DejaVuSans-54"
               id="use337"
               x="0"
               y="0"
               width="100%"
               height="100%" />
            <use
               xlink:href="#DejaVuSans-72"
               x="46.333984"
               id="use339"
               y="0"
               width="100%"
               height="100%" />
            <use
               xlink:href="#DejaVuSans-75"
               x="87.447266"
               id="use341"
               y="0"
               width="100%"
               height="100%" />
            <use
               xlink:href="#DejaVuSans-65"
               x="150.82617"
               id="use343"
               y="0"
               width="100%"
               height="100%" />
            <use
               xlink:href="#DejaVuSans-20"
               x="212.34961"
               id="use345"
               y="0"
               width="100%"
               height="100%" />
            <use
               xlink:href="#DejaVuSans-43"
               x="244.13672"
               id="use347"
               y="0"
               width="100%"
               height="100%" />
            <use
               xlink:href="#DejaVuSans-6c"
               x="313.96094"
               id="use349"
               y="0"
               width="100%"
               height="100%" />
            <use
               xlink:href="#DejaVuSans-61"
               x="341.74414"
               id="use351"
               y="0"
               width="100%"
               height="100%" />
            <use
               xlink:href="#DejaVuSans-73"
               x="403.02344"
               id="use353"
               y="0"
               width="100%"
               height="100%" />
            <use
               xlink:href="#DejaVuSans-73"
               x="455.12305"
               id="use355"
               y="0"
               width="100%"
               height="100%" />
          </g>
        </g>
        <g
           id="line2d_23">
          <path
             d="m 82.8,360.46015 h 12 12"
             style="fill:none;stroke:#ff7f0e;stroke-linecap:square;stroke-opacity:0.7"
             id="path360" />
        </g>
        <g
           id="text_9">
          <!-- Other Class -->
          <g
             transform="matrix(0.12,0,0,-0.12,116.4,364.66015)"
             id="g389">
            <defs
               id="defs365">
              <path
                 id="DejaVuSans-4f"
                 d="m 2522,4238 q -688,0 -1093,-513 -404,-512 -404,-1397 0,-881 404,-1394 405,-512 1093,-512 687,0 1089,512 402,513 402,1394 0,885 -402,1397 -402,513 -1089,513 z m 0,512 q 981,0 1568,-658 588,-658 588,-1764 0,-1103 -588,-1761 -587,-658 -1568,-658 -984,0 -1574,656 -589,657 -589,1763 0,1106 589,1764 590,658 1574,658 z"
                 transform="scale(0.015625)" />
              <path
                 id="DejaVuSans-68"
                 d="M 3513,2113 V 0 h -575 v 2094 q 0,497 -194,743 -194,247 -581,247 -466,0 -735,-297 -269,-296 -269,-809 V 0 H 581 v 4863 h 578 V 2956 q 207,316 486,472 280,156 646,156 603,0 912,-373 310,-373 310,-1098 z"
                 transform="scale(0.015625)" />
            </defs>
            <use
               xlink:href="#DejaVuSans-4f"
               id="use367"
               x="0"
               y="0"
               width="100%"
               height="100%" />
            <use
               xlink:href="#DejaVuSans-74"
               x="78.710938"
               id="use369"
               y="0"
               width="100%"
               height="100%" />
            <use
               xlink:href="#DejaVuSans-68"
               x="117.91992"
               id="use371"
               y="0"
               width="100%"
               height="100%" />
            <use
               xlink:href="#DejaVuSans-65"
               x="181.29883"
               id="use373"
               y="0"
               width="100%"
               height="100%" />
            <use
               xlink:href="#DejaVuSans-72"
               x="242.82227"
               id="use375"
               y="0"
               width="100%"
               height="100%" />
            <use
               xlink:href="#DejaVuSans-20"
               x="283.93555"
               id="use377"
               y="0"
               width="100%"
               height="100%" />
            <use
               xlink:href="#DejaVuSans-43"
               x="315.72266"
               id="use379"
               y="0"
               width="100%"
               height="100%" />
            <use
               xlink:href="#DejaVuSans-6c"
               x="385.54688"
               id="use381"
               y="0"
               width="100%"
               height="100%" />
            <use
               xlink:href="#DejaVuSans-61"
               x="413.33008"
               id="use383"
               y="0"
               width="100%"
               height="100%" />
            <use
               xlink:href="#DejaVuSans-73"
               x="474.60938"
               id="use385"
               y="0"
               width="100%"
               height="100%" />
            <use
               xlink:href="#DejaVuSans-73"
               x="526.70898"
               id="use387"
               y="0"
               width="100%"
               height="100%" />
          </g>
        </g>
      </g>
    </g>
  </g>
  <defs
     id="defs410">
    <clipPath
       id="p3d33e3fc61">
      <rect
         x="72"
         y="51.84"
         width="446.39999"
         height="57.351723"
         id="rect395" />
    </clipPath>
    <clipPath
       id="p1b2ef452b0">
      <rect
         x="72"
         y="120.66207"
         width="446.39999"
         height="57.351723"
         id="rect398" />
    </clipPath>
    <clipPath
       id="p812e2e87a0">
      <rect
         x="72"
         y="189.48413"
         width="446.39999"
         height="57.351723"
         id="rect401" />
    </clipPath>
    <clipPath
       id="p7d101dc791">
      <rect
         x="72"
         y="258.30621"
         width="446.39999"
         height="57.351723"
         id="rect404" />
    </clipPath>
    <clipPath
       id="p4f75e9f516">
      <rect
         x="72"
         y="327.12827"
         width="446.39999"
         height="57.351723"
         id="rect407" />
    </clipPath>
  </defs>
</svg>
